<svg width="36" height="36" viewBox="0 0 36 36" fill="none" xmlns="http://www.w3.org/2000/svg">
<mask id="mask0_224_6542" style="mask-type:alpha" maskUnits="userSpaceOnUse" x="5" y="15" width="26" height="17">
<path d="M5.77742 24.0082C5.59921 23.8911 5.59921 23.6298 5.77742 23.5127L17.8376 15.5875C17.9364 15.5225 18.0644 15.5225 18.1632 15.5875L30.2234 23.5127C30.4016 23.6298 30.4016 23.8911 30.2234 24.0082L18.1632 31.9335C18.0644 31.9984 17.9364 31.9984 17.8376 31.9335L5.77742 24.0082Z" fill="url(#paint0_linear_224_6542)"/>
</mask>
<g mask="url(#mask0_224_6542)">
<path fill-rule="evenodd" clip-rule="evenodd" d="M18.765 31.5375L18.162 31.9338C18.0632 31.9987 17.9352 31.9987 17.8364 31.9338L17.2334 31.5375L17.7276 30.7854L17.9992 30.9638L18.2708 30.7854L18.765 31.5375ZM16.0274 30.745L16.5216 29.9929L15.3156 29.2003L14.8214 29.9525L16.0274 30.745ZM13.6153 29.16L14.1096 28.4078L12.9036 27.6153L12.4093 28.3674L13.6153 29.16ZM11.2033 27.5749L11.6976 26.8228L10.4915 26.0302L9.99729 26.7824L11.2033 27.5749ZM8.79127 25.9899L9.28553 25.2377L8.07952 24.4452L7.58526 25.1973L8.79127 25.9899ZM6.37924 24.4048L6.62342 24.0332L6.8735 23.8689L6.80246 23.7608L6.8735 23.6527L6.62342 23.4883L6.37924 23.1168L5.77623 23.513C5.59803 23.6301 5.59803 23.8914 5.77623 24.0085L6.37924 24.4048ZM7.58526 22.3242L8.07952 23.0764L9.28553 22.2838L8.79127 21.5317L7.58526 22.3242ZM9.99729 20.7392L10.4915 21.4913L11.6976 20.6988L11.2033 19.9467L9.99729 20.7392ZM12.4093 19.1541L12.9036 19.9063L14.1096 19.1137L13.6153 18.3616L12.4093 19.1541ZM14.8214 17.5691L15.3156 18.3212L16.5216 17.5287L16.0274 16.7766L14.8214 17.5691ZM17.2334 15.984L17.8364 15.5878C17.9352 15.5228 18.0632 15.5228 18.162 15.5878L18.765 15.984L18.2708 16.7362L17.9992 16.5577L17.7276 16.7362L17.2334 15.984ZM19.971 16.7766L19.4768 17.5287L20.6828 18.3212L21.1771 17.5691L19.971 16.7766ZM22.3831 18.3616L21.8888 19.1137L23.0948 19.9063L23.5891 19.1541L22.3831 18.3616ZM24.7951 19.9467L24.3008 20.6988L25.5069 21.4913L26.0011 20.7392L24.7951 19.9467ZM27.2071 21.5317L26.7129 22.2838L27.9189 23.0764L28.4132 22.3242L27.2071 21.5317ZM29.6192 23.1168L29.375 23.4883L29.1249 23.6527L29.196 23.7608L29.1249 23.8689L29.375 24.0332L29.6192 24.4048L30.2222 24.0085C30.4004 23.8914 30.4004 23.6301 30.2222 23.513L29.6192 23.1168ZM28.4132 25.1973L27.9189 24.4452L26.7129 25.2377L27.2071 25.9899L28.4132 25.1973ZM26.0011 26.7824L25.5069 26.0302L24.3008 26.8228L24.7951 27.5749L26.0011 26.7824ZM23.5891 28.3674L23.0948 27.6153L21.8888 28.4078L22.3831 29.16L23.5891 28.3674ZM21.1771 29.9525L20.6828 29.2003L19.4768 29.9929L19.971 30.745L21.1771 29.9525Z" fill="#D4D4D8"/>
<path opacity="0.7" d="M9.2004 20.5203C8.87581 20.307 8.87581 19.8311 9.2004 19.6178L20.8171 11.9839C20.9971 11.8657 21.2302 11.8657 21.4102 11.9839L33.0269 19.6178C33.3515 19.8311 33.3515 20.307 33.0269 20.5203L21.4102 28.1542C21.2302 28.2725 20.9971 28.2725 20.8171 28.1542L9.2004 20.5203Z" fill="#0F0F10"/>
</g>
<path d="M5.77742 12.4887C5.59921 12.3716 5.59921 12.1103 5.77742 11.9932L17.8376 4.06793C17.9364 4.00299 18.0644 4.00299 18.1632 4.06793L30.2234 11.9932C30.4016 12.1103 30.4016 12.3716 30.2234 12.4887L18.1632 20.4139C18.0644 20.4789 17.9364 20.4789 17.8376 20.4139L5.77742 12.4887Z" fill="#FAFAFA"/>
<defs>
<linearGradient id="paint0_linear_224_6542" x1="14.455" y1="21.067" x2="20.1804" y2="32.0355" gradientUnits="userSpaceOnUse">
<stop stop-color="white"/>
<stop offset="1" stop-color="#9099F0"/>
</linearGradient>
</defs>
</svg>
