<svg width="200" height="200" viewBox="0 0 200 200" fill="none" xmlns="http://www.w3.org/2000/svg">
<g clip-path="url(#clip0_2334_521)">
<g filter="url(#filter0_f_2334_521)" style="mix-blend-mode:multiply">
<path d="M95.7411 172.489C122.66 190.775 157.595 186.486 173.77 162.91C189.946 139.333 181.237 105.397 154.318 87.1105C127.399 68.8241 92.4637 73.1125 76.2883 96.689C60.1128 120.266 68.8221 154.202 95.7411 172.489Z" fill="url(#paint0_linear_2334_521)"/>
</g>
<path fill-rule="evenodd" clip-rule="evenodd" d="M155.42 121.5C155.42 123.387 155.25 125.163 155.024 126.939L166.954 136.097C168.029 136.929 168.311 138.428 167.633 139.649L156.324 158.852C155.646 160.072 154.176 160.572 152.875 160.073L138.796 154.522C135.856 156.687 132.689 158.574 129.24 159.962L127.092 174.669C126.922 176.001 125.735 177 124.321 177H101.704C100.29 177 99.1029 176.001 98.9333 174.669L96.7847 159.962C93.3355 158.574 90.1691 156.743 87.2289 154.522L73.1497 160.073C71.9058 160.517 70.3791 160.072 69.7006 158.852L58.392 139.649C57.7135 138.428 57.9962 136.929 59.0705 136.097L71.0011 126.939C70.7749 125.163 70.6053 123.332 70.6053 121.5C70.6053 119.669 70.7749 117.837 71.0011 116.061L59.0705 106.903C57.9962 106.071 57.657 104.573 58.392 103.352L69.7006 84.1485C70.3791 82.9275 71.8492 82.428 73.1497 82.9275L87.2289 88.4775C90.1691 86.313 93.3355 84.426 96.7847 83.0385L98.9333 68.331C99.1029 66.999 100.29 66 101.704 66H124.321C125.735 66 126.922 66.999 127.092 68.331L129.24 83.0385C132.689 84.426 135.856 86.2575 138.796 88.4775L152.875 82.9275C154.119 82.4835 155.646 82.9275 156.324 84.1485L167.633 103.352C168.311 104.573 168.029 106.071 166.954 106.903L155.024 116.061C155.25 117.837 155.42 119.613 155.42 121.5ZM93.2225 121.5C93.2225 132.212 102.1 140.925 113.012 140.925C123.925 140.925 132.803 132.212 132.803 121.5C132.803 110.789 123.925 102.075 113.012 102.075C102.1 102.075 93.2225 110.789 93.2225 121.5Z" fill="url(#paint1_radial_2334_521)"/>
<path fill-rule="evenodd" clip-rule="evenodd" d="M88.3169 59.2743C87.927 60.1139 87.484 60.8689 87.0156 61.6122L90.4694 68.1698C90.7787 68.7638 90.5958 69.4894 90.0394 69.8915L81.0038 76.0833C80.4475 76.4854 79.6855 76.4018 79.206 75.9089L74.0439 70.5095C72.2791 70.8608 70.4703 71.0416 68.6381 70.9413L64.636 77.0387C64.2848 77.5962 63.5463 77.7936 62.9128 77.4995L52.7781 72.793C52.1446 72.4988 51.819 71.8072 52.0182 71.1792L54.0947 64.1875C52.8358 62.8523 51.7954 61.3785 50.9367 59.7787L43.4809 59.3186C42.8317 59.2574 42.2394 58.7421 42.1877 58.0576L41.0885 47.1593C41.0368 46.4748 41.4731 45.8668 42.1265 45.7199L49.365 44.1277C49.6306 43.2903 49.9331 42.44 50.3115 41.625C50.69 40.81 51.1445 40.0304 51.6128 39.2871L48.1591 32.7295C47.8497 32.1355 48.0074 31.3981 48.5891 31.0078L57.6247 24.816C58.181 24.4138 58.943 24.4975 59.4225 24.9904L64.5845 30.3898C66.3493 30.0385 68.1581 29.8577 69.9904 29.958L73.9924 23.8606C74.3437 23.3031 75.0822 23.1057 75.7156 23.3998L85.8504 28.1063C86.4838 28.4005 86.8095 29.0921 86.6102 29.7201L84.5338 36.7118C85.7926 38.047 86.833 39.5208 87.6918 41.1205L95.1476 41.5807C95.7967 41.6419 96.3891 42.1572 96.4408 42.8417L97.54 53.74C97.5917 54.4245 97.1554 55.0325 96.5019 55.1794L89.2635 56.7716C88.9979 57.609 88.7069 58.4346 88.3169 59.2743ZM60.4463 46.3315C58.2328 51.0979 60.4101 56.8226 65.3002 59.0935C70.1902 61.3643 75.9687 59.3342 78.1822 54.5678C80.3956 49.8014 78.2183 44.0767 73.3283 41.8058C68.4383 39.535 62.6598 41.5651 60.4463 46.3315Z" style="fill: currentColor"/>
</g>
<defs>
<filter id="filter0_f_2334_521" x="60.157" y="67.7724" width="129.745" height="124.054" filterUnits="userSpaceOnUse" color-interpolation-filters="sRGB">
<feFlood flood-opacity="0" result="BackgroundImageFix"/>
<feBlend mode="normal" in="SourceGraphic" in2="BackgroundImageFix" result="shape"/>
<feGaussianBlur stdDeviation="4" result="effect1_foregroundBlur_2334_521"/>
</filter>
<linearGradient id="paint0_linear_2334_521" x1="58.1193" y1="108.293" x2="173.706" y2="175.854" gradientUnits="userSpaceOnUse">
<stop/>
<stop offset="1" stop-color="#1D1D21" stop-opacity="0"/>
</linearGradient>
<radialGradient id="paint1_radial_2334_521" cx="0" cy="0" r="1" gradientTransform="matrix(131.773 42.5002 -42.1173 132.971 78.8442 93.0318)" gradientUnits="userSpaceOnUse">
<stop offset="0.365346" stop-color="white"/>
<stop offset="0.64903" stop-color="#7D88ED"/>
<stop offset="0.748224" stop-color="white"/>
</radialGradient>
<clipPath id="clip0_2334_521">
<rect width="200" height="200" fill="white"/>
</clipPath>
</defs>
</svg>
