<svg xmlns="http://www.w3.org/2000/svg" style="display: none;"><symbol id="icon-collection-export" viewBox="0 0 32 32"><g class="nc-icon-wrapper"><path d="M31,4h-5.1842651C25.9277954,3.6856689,26,3.352356,26,3c0-1.6542969-1.3457031-3-3-3 c-1.9838867,0-3.243042,1.2846069-4,2.5198975C18.243042,1.2846069,16.9838867,0,15,0c-1.6542969,0-3,1.3457031-3,3 c0,0.352356,0.0722656,0.6856689,0.1843262,1H7C6.4472656,4,6,4.4477539,6,5v3c0,0.5522461,0.4472656,1,1,1h24 c0.5527344,0,1-0.4477539,1-1V5C32,4.4477539,31.5527344,4,31,4z M23,2c0.5517578,0,1,0.4487305,1,1s-0.4482422,1-1,1h-2.5429688 C20.9199219,3.0849609,21.7353516,2,23,2z M14,3c0-0.5512695,0.4482422-1,1-1c1.2646484,0,2.0800781,1.0849609,2.5429688,2H15 C14.4482422,4,14,3.5512695,14,3z" stroke="none"></path> <path fill="currentColor" d="M30.9804688,23.8037109C30.9647827,23.7238159,30.6672363,22.3875732,29,21.5892944V11H9v5.5735474 C8.0363159,16.2115479,7.0100708,16,6,16H1c-0.5527344,0-1,0.4477539-1,1v7c0,0.3759766,0.2109375,0.7207031,0.546875,0.8911133 l11.2392578,5.7192383c0.7666016,0.3486328,1.5712891,0.5224609,2.3466797,0.5224609 c0.6855469,0,1.3486328-0.1357422,1.9433594-0.40625l14.2998047-5.7998047 C30.8212891,24.7460938,31.0751953,24.2749023,30.9804688,23.8037109z M15.2861328,28.8891602 c-0.7685547,0.3500977-1.7685547,0.3115234-2.6328125-0.0800781L2,23.3867188V18h4 c2.0078125,0,4.1806641,1.0742188,5.1679688,2.5546875C11.3535156,20.8330078,11.6660156,21,12,21h4 c1.1412354,0,2.3099365,0.9389648,2.7744141,2H11c-0.5527344,0-1,0.4477539-1,1s0.4472656,1,1,1h9c0.5527344,0,1-0.4477539,1-1 c0-0.3374023-0.0419922-0.6723633-0.1201172-1H26c1.2636719,0,2.0078125,0.2700195,2.4404297,0.5532227L15.2861328,28.8891602z" stroke="none"></path></g></symbol><symbol id="icon-collection-edit" viewBox="0 0 32 32"><g class="nc-icon-wrapper"><path d="M31,7H25.444A3.959,3.959,0,0,0,26,5a4,4,0,0,0-4-4c-3.13,0-5,2.386-6,4.323C15,3.386,13.13,1,10,1A4,4,0,0,0,6,5a3.959,3.959,0,0,0,.556,2H1A1,1,0,0,0,0,8v4a1,1,0,0,0,1,1H31a1,1,0,0,0,1-1V8A1,1,0,0,0,31,7ZM22,3a2,2,0,0,1,0,4H17.416C18.078,5.446,19.515,3,22,3ZM8,5a2,2,0,0,1,2-2c2.472,0,3.914,2.446,4.58,4H10A2,2,0,0,1,8,5Z" stroke="none"></path> <path d="M18,31h7a4,4,0,0,0,4-4V15H18Z" fill="currentColor" stroke="none"></path> <path d="M3,27a4,4,0,0,0,4,4h7V15H3Z" fill="currentColor" stroke="none"></path></g></symbol><symbol id="icon-collection" viewBox="0 0 32 32"><g class="nc-icon-wrapper"><polygon points="16 19.236 4.764 13.618 0 16 16 24 32 16 27.236 13.618 16 19.236" stroke="none"></polygon> <polygon points="16 26.236 4.764 20.618 0 23 16 31 32 23 27.236 20.618 16 26.236" stroke="none"></polygon> <polygon points="16 1 0 9 16 17 32 9 16 1" fill="currentColor" stroke="none"></polygon></g></symbol><symbol id="icon-collection-first" viewBox="0 0 24 24"><g class="nc-icon-wrapper"><path fill="currentColor" d="M20,23.414L9.293,12.707c-0.391-0.391-0.391-1.023,0-1.414L20,0.586L21.414,2l-10,10l10,10L20,23.414z" stroke="none"></path> <path d="M14,23.414L3.293,12.707c-0.391-0.391-0.391-1.023,0-1.414L14,0.586L15.414,2l-10,10l10,10 L14,23.414z" stroke="none"></path></g></symbol><symbol id="icon-collection-last" viewBox="0 0 24 24"><g class="nc-icon-wrapper"><path fill="currentColor" d="M4,23.414L2.586,22l10-10l-10-10L4,0.586l10.707,10.707c0.391,0.391,0.391,1.023,0,1.414L4,23.414z" stroke="none"></path> <path d="M10,23.414L8.586,22l10-10l-10-10L10,0.586l10.707,10.707c0.391,0.391,0.391,1.023,0,1.414 L10,23.414z" stroke="none"></path></g></symbol><symbol id="icon-collection-previous" viewBox="0 0 24 24"><g class="nc-icon-wrapper"><path fill="currentColor" d="M17,23.414L6.293,12.707c-0.391-0.391-0.391-1.023,0-1.414L17,0.586L18.414,2l-10,10l10,10L17,23.414z" stroke="none"></path></g></symbol><symbol id="icon-collection-next" viewBox="0 0 24 24"><g class="nc-icon-wrapper"><path fill="currentColor" d="M7,23.414L5.586,22l10-10l-10-10L7,0.586l10.707,10.707c0.391,0.391,0.391,1.023,0,1.414L7,23.414z" stroke="none"></path></g></symbol><symbol id="icon-health" viewBox="0 0 32 32"><g class="nc-icon-wrapper"><path d="M20,27h-.042a1,1,0,0,1-.887-.627L11.9,8.439l-4,8.008A1,1,0,0,1,7,17H0V15H6.382l4.723-9.447A.97.97,0,0,1,12.042,5a1,1,0,0,1,.887.627L20.1,23.561l4-8.008A1,1,0,0,1,25,15h7v2H25.618L20.9,26.447A1,1,0,0,1,20,27Z" fill="currentColor" stroke="none"></path></g></symbol><symbol id="icon-revision" viewBox="0 0 32 32"><g class="nc-icon-wrapper"><polygon points="22 1 22 8 29 8 22 1" stroke="none"></polygon> <path d="M20,10V0H3A1,1,0,0,0,2,1V31a1,1,0,0,0,1,1H29a1,1,0,0,0,1-1V10ZM8,8h8v2H8ZM24,24H8V22H24Zm0-7H8V15H24Z" fill="currentColor" stroke="none"></path></g></symbol><symbol id="icon-requires" viewBox="0 0 32 32"><g class="nc-icon-wrapper"><polygon points="18 23 18.5 1 13.5 1 14 23 18 23" fill="currentColor" stroke="none"></polygon><circle cx="16" cy="28.5" r="2.5" stroke="none"></circle></g></symbol><symbol id="icon-recommends" viewBox="0 0 32 32"><g class="nc-icon-wrapper"><path d="M17,23.5H13v-2c0-4.281,2.847-6.54,5.134-8.355C20.284,11.438,21.5,10.5,21.5,8.5c0-3-2.991-4-5.5-4A16.63,16.63,0,0,0,7.75,7.22L5.776,3.753A19.7,19.7,0,0,1,16,.5c5.771,0,9.5,3.5,9.5,8,0,4-2.706,6.053-4.879,7.778C18.376,18.06,17,19.265,17,21.5Z" fill="currentColor" stroke="none"></path><path d="M15,31.5A2.5,2.5,0,1,1,17.5,29,2.5,2.5,0,0,1,15,31.5Z" stroke="none"></path></g></symbol><symbol id="icon-upload" viewBox="0 0 32 32"><g class="nc-icon-wrapper"><path d="M16,25a2,2,0,0,0,2-2V11h4a1,1,0,0,0,.8-1.6l-6-8a1.036,1.036,0,0,0-1.6,0l-6,8A1,1,0,0,0,10,11h4V23A2,2,0,0,0,16,25Z" stroke="none"></path><path d="M30,22a1,1,0,0,0-1,1v6H3V23a1,1,0,0,0-2,0v6a2,2,0,0,0,2,2H29a2,2,0,0,0,2-2V23A1,1,0,0,0,30,22Z" fill="currentColor" stroke="none"></path></g></symbol><symbol id="icon-options" viewBox="0 0 32 32"><g class="nc-icon-wrapper"><path d="M23.707,11.293l-3-3c-0.391-0.391-1.023-0.391-1.414,0L16,11.586L20.414,16l3.293-3.293 C24.098,12.316,24.098,11.684,23.707,11.293z" stroke="none"></path> <path fill="currentColor" d="M14.586,13L1.293,26.293c-0.391,0.391-0.391,1.023,0,1.414l3,3C4.488,30.902,4.744,31,5,31 s0.512-0.098,0.707-0.293L19,17.414L14.586,13z" stroke="none"></path> <path d="M25.293,6.707c-0.391-0.391-0.391-1.023,0-1.414l2-2c0.391-0.391,1.023-0.391,1.414,0 s0.391,1.023,0,1.414l-2,2C26.316,7.098,25.684,7.098,25.293,6.707z" stroke="none"></path> <path d="M31,12h-3c-0.552,0-1-0.448-1-1s0.448-1,1-1h3c0.552,0,1,0.448,1,1S31.552,12,31,12z" stroke="none"></path> <path d="M27.293,18.707l-2-2c-0.391-0.391-0.391-1.023,0-1.414s1.023-0.391,1.414,0l2,2 c0.391,0.391,0.391,1.023,0,1.414C28.316,19.098,27.684,19.098,27.293,18.707z" stroke="none"></path> <path d="M21,5c-0.552,0-1-0.448-1-1V1c0-0.552,0.448-1,1-1s1,0.448,1,1v3C22,4.552,21.552,5,21,5z" stroke="none"></path> <path d="M15.293,6.707l-2-2c-0.391-0.391-0.391-1.023,0-1.414s1.023-0.391,1.414,0l2,2 c0.391,0.391,0.391,1.023,0,1.414C16.316,7.098,15.684,7.098,15.293,6.707z" stroke="none"></path></g></symbol><symbol id="icon-vote-up" viewBox="0 0 32 32"><g class="nc-icon-wrapper"><path d="M16.354,1.146a.5.5,0,0,0-.708,0l-10.5,10.5a.5.5,0,0,0,0,.708l2,2a.5.5,0,0,0,.708,0L14,8.207V30.5a.5.5,0,0,0,.5.5h3a.5.5,0,0,0,.5-.5V8.207l6.146,6.147a.5.5,0,0,0,.708,0l2-2a.5.5,0,0,0,0-.708Z" fill="currentColor" stroke="none"></path></g></symbol><symbol id="icon-vote-down" viewBox="0 0 32 32"><g class="nc-icon-wrapper"><path d="M24.854,17.646a.5.5,0,0,0-.708,0L18,23.793V1.5a.5.5,0,0,0-.5-.5h-3a.5.5,0,0,0-.5.5V23.793L7.854,17.646a.5.5,0,0,0-.708,0l-2,2a.5.5,0,0,0,0,.708l10.5,10.5a.5.5,0,0,0,.708,0l10.5-10.5a.5.5,0,0,0,0-.708Z" fill="currentColor" stroke="none"></path></g></symbol></svg>