<?xml version="1.0" encoding="UTF-8" standalone="yes"?>
<svg xmlns="http://www.w3.org/2000/svg" style="display: none;">
  <symbol id="icon-uic-sample" viewBox="0 0 24 24">
    <path d="M12 2A3 3 0 0 0 9 5A3 3 0 0 0 11 7.83V9H8V11H11V19.92C10.26 19.79 9.5 19.58 8.79 19.27C8.05 18.95 7.4 18.56 6.82 18.09C6.24 17.62 5.78 17.11 5.44 16.55L7 15L3 12V15C3 15.97 3.27 16.88 3.82 17.72C4.37 18.56 5.09 19.31 6 19.95C6.87 20.59 7.84 21.09 8.88 21.45C9.93 21.81 10.97 22 12 22C13.03 22 14.07 21.8 15.12 21.44C16.16 21.08 17.13 20.58 18 19.95C18.92 19.31 19.63 18.57 20.18 17.72C20.73 16.88 21 15.97 21 15V12L17 15L18.56 16.55C18.22 17.11 17.76 17.62 17.18 18.09C16.6 18.56 15.95 18.95 15.21 19.27C14.5 19.58 13.74 19.79 13 19.92V11H16V9H13V7.82A3 3 0 0 0 15 5A3 3 0 0 0 12 2M12 4A1 1 0 0 1 13 5A1 1 0 0 1 12 6A1 1 0 0 1 11 5A1 1 0 0 1 12 4Z"/>
  </symbol>
  <symbol viewBox="0 0 24 24" id="icon-clipboard-copy">
    <path d="M0 0h24v24H0V0z" fill="none" vector-effect="non-scaling-stroke"/>
    <path d="M16 1H4c-1.1 0-2 .9-2 2v14h2V3h12V1zm3 4H8c-1.1 0-2 .9-2 2v14c0 1.1.9 2 2 2h11c1.1 0 2-.9 2-2V7c0-1.1-.9-2-2-2zm0 16H8V7h11v14z" vector-effect="non-scaling-stroke"/>
  </symbol>
  <symbol viewBox="0 0 1792 1792" id="icon-window-minimize">
    <path d="M1792 1312v192q0 66-47 113t-113 47h-1472q-66 0-113-47t-47-113v-192q0-66 47-113t113-47h1472q66 0 113 47t47 113z" vector-effect="non-scaling-stroke"/>
  </symbol>
  <symbol viewBox="0 0 2048 1792" id="icon-window-restore">
    <path d="M256 1536h768v-512h-768v512zm1024-512h512v-768h-768v256h96q66 0 113 47t47 113v352zm768-864v960q0 66-47 113t-113 47h-608v352q0 66-47 113t-113 47h-960q-66 0-113-47t-47-113v-960q0-66 47-113t113-47h608v-352q0-66 47-113t113-47h960q66 0 113 47t47 113z" vector-effect="non-scaling-stroke"/>
  </symbol>
  <symbol viewBox="0 0 1792 1792" id="icon-window-maximize">
    <path d="M256 1408h1280v-768h-1280v768zm1536-1120v1216q0 66-47 113t-113 47h-1472q-66 0-113-47t-47-113v-1216q0-66 47-113t113-47h1472q66 0 113 47t47 113z" vector-effect="non-scaling-stroke"/>
  </symbol>
  <symbol viewBox="0 0 24 24" id="icon-sort-none">
    <path d="M17.156,9.405L12,5.28L6.844,9.405l-1.25-1.562l5.781-4.625c0.365-0.291,0.884-0.291,1.249,0l5.781,4.625 L17.156,9.405z"/>
    <path d="M12,21c-0.221,0-0.442-0.073-0.625-0.219l-5.781-4.625l1.25-1.562L12,18.72l5.156-4.125 l1.25,1.562l-5.781,4.625C12.442,20.927,12.221,21,12,21z"/>
  </symbol>
  <symbol viewBox="0 0 24 24" id="icon-sort-down">
    <path d="M12,15c-0.256,0-0.512-0.098-0.707-0.293L6.586,10L8,8.586l4,4l4-4L17.414,10l-4.707,4.707 C12.512,14.902,12.256,15,12,15z"/>
  </symbol>
  <symbol viewBox="0 0 24 24" id="icon-window-close">
    <path d="M22.7,4.3l-3-3c-0.4-0.4-1-0.4-1.4,0L12,7.6L5.7,1.3c-0.4-0.4-1-0.4-1.4,0l-3,3c-0.4,0.4-0.4,1,0,1.4L7.6,12 l-6.3,6.3c-0.4,0.4-0.4,1,0,1.4l3,3c0.4,0.4,1,0.4,1.4,0l6.3-6.3l6.3,6.3c0.2,0.2,0.5,0.3,0.7,0.3s0.5-0.1,0.7-0.3l3-3 c0.4-0.4,0.4-1,0-1.4L16.4,12l6.3-6.3C23.1,5.3,23.1,4.7,22.7,4.3z"/>
  </symbol>
  <symbol viewBox="0 0 24 24" id="icon-search-down">
    <path d="M12,15c-0.256,0-0.512-0.098-0.707-0.293L6.586,10L8,8.586l4,4l4-4L17.414,10l-4.707,4.707 C12.512,14.902,12.256,15,12,15z"/>
  </symbol>
  <symbol viewBox="0 0 61 60" id="icon-spinner_new">
    <path d="M60.5 30C60.5 24.0666 58.7405 18.2664 55.4441 13.3329C52.1476 8.39942 47.4623 4.55424 41.9805 2.28361C36.4987 0.012985 30.4667 -0.581115 24.6473 0.576442C18.8279 1.734 13.4824 4.59122 9.2868 8.7868C5.09122 12.9824 2.234 18.3279 1.07644 24.1473C-0.0811151 29.9667 0.512985 35.9987 2.78361 41.4805C5.05424 46.9623 8.89942 51.6476 13.8329 54.9441C18.7664 58.2405 24.5666 60 30.5 60V52.8071C25.9892 52.8071 21.5796 51.4695 17.829 48.9634C14.0784 46.4574 11.1552 42.8954 9.42895 38.7279C7.70274 34.5605 7.25108 29.9747 8.1311 25.5505C9.01111 21.1264 11.1833 17.0626 14.3729 13.8729C17.5626 10.6833 21.6264 8.51112 26.0505 7.6311C30.4747 6.75108 35.0605 7.20273 39.2279 8.92895C43.3954 10.6552 46.9574 13.5784 49.4634 17.329C51.9695 21.0796 53.3071 25.4892 53.3071 30H60.5Z"/>
  </symbol>
  <symbol viewBox="0 0 128 128" id="icon-spinner">
    <g class="nc-icon-wrapper">
      <g>
        <path d="M46.75 12.52s14.72-5.44 27.3-4.33 15.84 3.2 15.84 3.2l1.64-4.95a34.72 34.72 0 0 1 12.12 11.68c7.72 12.5 7.3 20.27 7.3 20.27s-6.5-7.6-12.65-9.4a93.7 93.7 0 0 0-14.87-2.45l3.07-5.3a77.73 77.73 0 0 0-15.2-6.38c-8.5-2.5-24.6-2.38-24.6-2.38zm68.73 34.45s5.43 14.7 4.32 27.27-3.22 15.83-3.22 15.83l4.93 1.67a34.73 34.73 0 0 1-11.65 12.1c-12.5 7.74-20.27 7.3-20.27 7.3s7.63-6.5 9.4-12.62a93.64 93.64 0 0 0 2.47-14.87l5.3 3.07a77.62 77.62 0 0 0 6.4-15.18c2.48-8.52 2.36-24.57 2.36-24.57zM81.03 115.7s-14.7 5.43-27.27 4.32-15.83-3.23-15.83-3.23l-1.67 4.9a34.73 34.73 0 0 1-12.1-11.7c-7.74-12.5-7.3-20.27-7.3-20.27s6.5 7.62 12.62 9.4a93.56 93.56 0 0 0 14.87 2.47l-3.07 5.3a77.7 77.7 0 0 0 15.18 6.38c8.52 2.5 24.57 2.38 24.57 2.38zM12.3 81.24S6.88 66.54 8 53.97s3.23-15.82 3.23-15.82l-4.93-1.7a34.72 34.72 0 0 1 11.68-12.1c12.5-7.73 20.27-7.3 20.27-7.3s-7.62 6.5-9.4 12.63a93.56 93.56 0 0 0-2.47 14.86l-5.3-3.07a77.67 77.67 0 0 0-6.38 15.17c-2.5 8.52-2.37 24.58-2.37 24.58z" fill-opacity="1"/>
      </g>
    </g>
  </symbol>
  <symbol viewBox="0 0 256 256" id="icon-nexus">
    <g transform="matrix(1.5735692,0,0,1.5753846,-0.2449024,-0.3312154)">
      <g>
        <g>
          <path style="fill:var(--nexus-outline-color, #000000); fill-opacity:var(--nexus-outline-opacity, 1);" d="m 44.4,162.5 c -0.6,0 -1.3,0 -1.9,-0.1 -1.5,-0.2 -2.9,-0.5 -4.5,-1 -2.8,-0.9 -5.2,-2.2 -6.9,-3.2 -3.8,-2.2 -7.7,-4.9 -11.8,-8.3 -1.8,-1.5 -3.6,-3.1 -5.3,-4.7 l -1.4,-1.4 c -1,-0.9 -1.9,-1.9 -2.6,-3 -1.3,-2 -2.4,-4.6 -2.5,-8 -0.1,-1.1 -0.2,-2.2 -0.2,-3.4 0,-2.4 0.1,-5 0.5,-7.5 0.7,-5.2 2.4,-9.8 3.7,-13.3 0.1,-0.3 0.2,-0.6 0.3,-0.9 -0.4,-0.9 -0.7,-1.9 -1.1,-2.9 C 8.9,99.6 7.7,93.8 7.1,88 6.5,81.9 6.7,75.7 7.6,69.6 7.8,68.3 8,67 8.3,65.8 5.9,62.3 2.9,57.3 1,51.5 l 0,-0.1 c -0.4,-1.2 -1.4,-4.2 -0.8,-8 0.2,-1.4 0.5,-2.8 1,-4.3 0.9,-2.8 2.2,-5.1 3.2,-6.8 2.2,-3.8 4.9,-7.6 8.2,-11.7 1.5,-1.8 3,-3.6 4.6,-5.2 L 18.6,14 c 0.7,-0.8 1.5,-1.5 2.4,-2.1 2,-1.5 4.8,-2.8 8.6,-2.9 1.2,-0.1 2.5,-0.2 3.8,-0.2 l 0.1,0 c 2.5,0 5.2,0.2 7.8,0.6 4,0.6 7.6,1.7 10.8,2.9 2.1,-0.9 4.3,-1.7 6.6,-2.5 5.4,-1.8 11.2,-3 17,-3.4 6.1,-0.5 12.3,-0.2 18.2,0.8 1.4,0.2 2.8,0.5 4.2,0.8 4.7,-3.2 9,-5.5 13.5,-6.9 l 0.1,0 c 1,-0.4 3.2,-1.1 6.1,-1.1 0.6,0 1.3,0 1.9,0.1 1.5,0.2 2.9,0.5 4.5,1 2.8,0.9 5.2,2.2 6.9,3.2 3.8,2.2 7.7,4.9 11.8,8.3 1.8,1.5 3.6,3.1 5.3,4.7 l 1.4,1.4 c 0.7,0.6 1.4,1.3 1.9,2.1 1.8,2.3 3.2,5.6 3.3,10.2 0.1,1.6 0.1,3.3 0,5 -0.2,3.7 -0.7,7.2 -1.6,10.4 -0.7,2.4 -1.5,4.8 -2.4,7.2 1.8,4.5 3.1,9.1 4,13.8 1.8,9.9 1.6,20.1 -0.6,29.9 1.3,1.9 2.5,3.7 3.5,5.5 1.7,3 3.1,6.1 4.1,9.3 0.4,1.2 1.3,4.2 0.7,8.2 -0.2,1.4 -0.6,2.7 -1.1,4.2 -1.8,5.1 -4.6,9.3 -7.1,12.8 -2.7,3.8 -5.8,7.5 -9,10.9 l -1.2,1.2 c -0.7,0.8 -1.5,1.5 -2.4,2.2 -2,1.5 -4.8,2.7 -8.6,2.9 -1.2,0.1 -2.5,0.2 -3.8,0.2 l -0.1,0 c -2.7,0 -5.4,-0.2 -8.2,-0.7 -4.5,-0.7 -8.5,-2.1 -12.1,-3.5 -1.9,0.8 -3.9,1.5 -5.8,2.1 -5.6,1.7 -11.5,2.8 -17.4,3.1 -6.1,0.4 -12.3,-0.1 -18.3,-1.2 -0.7,-0.1 -1.5,-0.3 -2.2,-0.4 -5.2,3.7 -9.8,6.1 -14.6,7.7 l -0.1,0 c -1,-0.1 -3.2,0.7 -6.1,0.7 l 0,0 z m -19.8,-28.4 10.6,3.7 c 0.9,-2.6 1,-5.4 0.4,-8 0,0.2 0,0.5 0.1,0.7 0,0.3 0.1,0.7 0.1,1.1 -0.1,-2 -0.8,-4.6 -2.6,-7 -0.7,-0.9 -1.5,-1.7 -2.4,-2.4 l 0.5,0.4 0.9,0.9 c -0.8,-0.8 -1.7,-1.6 -2.7,-2.3 l -4.9,12.9 0,0 z m 99.1,-4.7 c -0.8,0.8 -1.6,1.6 -2.3,2.7 l 11.9,4.6 0,-11.1 c 0,0 0,0 0,0 -1.1,0 -2.2,0.1 -3.2,0.4 0.2,0 0.4,0 0.6,0 0.3,0 0.7,-0.1 1.1,-0.1 -1.8,0.1 -4.2,0.7 -6.4,2.1 -1.2,0.8 -2.2,1.7 -3.1,2.9 l 0.4,-0.5 1,-1 0,0 z m -87.9,-2.6 c 0.5,0.4 1,0.8 1.5,1.3 2.6,2.2 5,3.9 7.2,5.2 1.4,-0.7 3,-1.7 4.7,-3 0.5,-0.3 0.9,-0.7 1.4,-1.1 0.3,-0.2 0.5,-0.5 0.8,-0.7 0.1,-0.1 0.3,-0.3 0.4,-0.4 l 6.2,-6.3 8.4,2.9 c 0.3,0.1 0.6,0.2 0.8,0.3 1.8,0.6 3.6,1 5.4,1.4 3.7,0.7 7.6,1 11.4,0.7 3.6,-0.2 7.3,-0.9 10.7,-1.9 1.7,-0.5 3.4,-1.1 5,-1.9 0.8,-0.3 1.6,-0.7 2.3,-1.1 2,-1 4.3,-1.6 6.6,-1.6 3.6,0 6.3,1.3 7.6,2 0.4,0.2 0.8,0.4 1.3,0.5 2.5,1 5.4,2.2 8,2.6 0.4,0.1 0.9,0.1 1.3,0.2 1.5,-1.7 2.9,-3.5 4.2,-5.3 0.8,-1.1 1.6,-2.2 2.3,-3.3 -0.1,-0.2 -0.2,-0.4 -0.4,-0.7 -0.7,-1.2 -1.5,-2.4 -2.5,-3.9 -0.3,-0.5 -0.7,-0.9 -1.1,-1.4 -0.2,-0.2 -0.3,-0.4 -0.5,-0.6 -4.1,-4 -5.5,-9.7 -3.6,-15.1 0.1,-0.3 0.2,-0.6 0.3,-0.8 2.3,-7.2 2.7,-14.9 1.4,-22.3 -0.7,-3.5 -1.7,-7 -3.2,-10.3 -0.1,-0.3 -0.3,-0.6 -0.4,-0.9 -3.3,-6.1 -1.9,-11.3 -0.7,-13.8 0.5,-1 0.9,-2.1 1.3,-3.1 0.8,-1.9 1.4,-3.9 2,-5.7 0.2,-0.9 0.4,-1.8 0.5,-2.9 -0.5,-0.4 -1,-0.8 -1.5,-1.3 -2.7,-2.2 -5,-3.9 -7.2,-5.2 -1.4,0.8 -3,1.8 -4.8,3 -0.5,0.4 -1,0.8 -1.5,1.2 -0.1,0.1 -0.3,0.2 -0.4,0.4 -2.7,2.6 -6.3,4 -10,4 -1.8,0 -3.5,-0.3 -5.2,-1 C 95.4,36.8 95,36.6 94.6,36.5 92.8,36 91,35.5 89.1,35.2 85.4,34.6 81.5,34.4 77.7,34.7 c -3.6,0.3 -7.2,1 -10.6,2.1 -1.7,0.5 -3.3,1.2 -4.9,1.9 -0.8,0.3 -1.5,0.7 -2.3,1.1 L 59.5,40 c -2.1,1.2 -4.6,1.8 -7,1.8 -2.2,0 -4.4,-0.5 -6.5,-1.5 -0.5,-0.2 -0.9,-0.4 -1.4,-0.6 -2.4,-1 -5.3,-2.1 -7.8,-2.4 -0.4,-0.1 -0.8,-0.1 -1.1,-0.2 -0.4,0.5 -0.8,1 -1.2,1.4 -2.2,2.7 -3.9,5 -5.2,7.3 0.7,1.4 1.7,2.9 2.9,4.7 0.3,0.5 0.7,1 1.1,1.4 0.2,0.3 0.5,0.5 0.7,0.8 l 5.8,6.1 -2.5,8 c -0.2,0.5 -0.3,1 -0.5,1.5 -0.5,1.8 -0.9,3.7 -1.2,5.6 -0.6,3.8 -0.7,7.6 -0.3,11.5 0.3,3.6 1.1,7.2 2.3,10.6 0.6,1.7 1.3,3.3 2,4.9 0.1,0.2 0.2,0.4 0.3,0.6 2.1,4.3 2.1,9.1 -0.1,13.4 -0.2,0.4 -0.4,0.8 -0.5,1.2 -0.4,1 -0.9,2 -1.3,3 -0.8,2.2 -1.8,4.8 -2.1,7.1 0,0.1 -0.1,0.4 -0.1,0.6 l 0,0 z m 94.1,-88 c 0.8,0.8 1.7,1.6 2.8,2.4 L 137.6,28.3 127,24.6 c -0.9,2.6 -1,5.4 -0.4,8 0,-0.1 0,-0.2 0,-0.3 0,-0.3 0,-0.8 0,-1.3 l 0,-0.1 c 0,1.5 0.5,4 2.1,6.4 0.8,1.1 1.7,2.1 2.8,3 l -0.5,-0.4 -1.1,-1.1 0,0 z M 29.3,26.3 l 0,11.1 c 1.1,0 2.2,-0.1 3.2,-0.4 -0.2,0 -0.4,0 -0.6,0 -0.3,0 -0.7,0.1 -1.1,0.1 1.8,-0.1 4.2,-0.7 6.4,-2.1 1.2,-0.8 2.2,-1.7 3.1,-2.9 l -0.4,0.5 -0.9,1 c 0.8,-0.8 1.6,-1.7 2.3,-2.7 l -12,-4.6 0,0 z"/>
        </g>
      </g>
      <g>
        <g>
          <g>
            <path class="nexus-orange-darker" style="fill:var(--nexus-orange-darker-color, #b4762c);fill-opacity:var(--nexus-orange-darker-opacity, 1)" d="M 56.3,88.4 57,116.7 50,111 c -7.8,12.7 -10.3,25 -6.6,34.1 l 1.3,3.2 -3.2,-1.4 c -7.3,-3.2 -13.9,-7.7 -19.4,-13.5 l -0.3,-0.3 -0.1,-0.5 c -0.4,-3.5 -0.2,-7.3 0.7,-11.2 l 0,-0.1 c 1.3,-4.9 3.2,-9.8 5.6,-14.7 1.5,-3.1 3.3,-6.2 5.3,-9.2 l -6.1,-5 29.1,-4 z"/>
          </g>
        </g>
        <g>
          <g>
            <path class="nexus-orange-darker" style="fill:var(--nexus-orange-darker-color, #b4762c);fill-opacity:var(--nexus-orange-darker-opacity, 1)" d="m 105.9,74.1 -0.7,-28.3 7,5.7 c 7.8,-12.7 10.3,-25 6.6,-34.1 l -1.3,-3.2 3.2,1.4 c 7.3,3.2 13.9,7.7 19.4,13.5 l 0.3,0.3 0.1,0.5 c 0.4,3.5 0.2,7.3 -0.7,11.2 l 0,0.1 c -1.3,4.9 -3.2,9.8 -5.6,14.7 -1.5,3.1 -3.3,6.2 -5.3,9.2 l 6.1,5 -29.1,4 z"/>
          </g>
        </g>
        <g>
          <g>
            <path class="nexus-orange-darker" style="fill:var(--nexus-orange-darker-color, #b4762c);fill-opacity:var(--nexus-orange-darker-opacity, 1)" d="m 88.5,105.4 28.3,-0.7 -5.7,7 c 12.7,7.8 25,10.3 34.1,6.6 l 3.2,-1.3 -1.4,3.2 c -3.2,7.3 -7.7,13.9 -13.5,19.4 l -0.3,0.3 -0.5,0.1 c -3.5,0.4 -7.3,0.2 -11.2,-0.7 l -0.1,0 c -4.9,-1.3 -9.8,-3.2 -14.7,-5.6 -3.1,-1.5 -6.2,-3.3 -9.2,-5.3 l -5,6.1 -4,-29.1 z"/>
          </g>
        </g>
        <g>
          <g>
            <path class="nexus-orange-darker" style="fill:var(--nexus-orange-darker-color, #b4762c);fill-opacity:var(--nexus-orange-darker-opacity, 1)" d="m 74.1,57.6 -28.3,0.7 5.7,-7 C 38.8,43.5 26.5,41 17.4,44.7 L 14.3,46 15.7,42.8 C 18.9,35.5 23.4,28.9 29.2,23.4 L 29.5,23.1 30,23 c 3.5,-0.4 7.3,-0.2 11.2,0.7 l 0.1,0 c 4.9,1.3 9.8,3.2 14.7,5.6 3.1,1.5 6.2,3.3 9.2,5.3 l 5,-6.1 3.9,29.1 z"/>
          </g>
        </g>
        <g>
          <g>
            <circle class="nexus-orange" cx="81.400002" cy="80.800003" r="60.5" style="fill:var(--nexus-orange-color, #da8e35);fill-opacity:var(--nexus-orange-opacity, 1)"/>
          </g>
        </g>
        <g>
          <path d="M 59.3,59.5 C 55.8,57.9 53.2,56.3 50.6,54.4 46.6,51.6 42.9,48.5 39.8,45.2 32.2,37.5 28.2,29.6 29.3,23.1 L 27,25.6 c -5.5,5.8 -12.8,16 -12.9,20.4 0.1,0.5 0.1,0.5 0.1,0.5 1,3.4 2.6,6.8 4.9,10.1 l 0,0.1 c 3,4.8 8.9,12.7 29.9,21.9 l -3.7,7 28.3,-7.6 -10.1,-26.5 -4.2,8 z" style="fill:#ffffff"/>
        </g>
        <g>
          <path d="m 103.3,103.5 c 3.5,1.6 6.1,3.2 8.7,5.1 4,2.8 7.7,5.9 10.8,9.2 7.6,7.7 11.6,15.6 10.5,22.1 l 2.3,-2.4 c 5.5,-5.8 12.8,-16 12.9,-20.4 -0.1,-0.5 -0.1,-0.5 -0.1,-0.5 -1,-3.4 -2.6,-6.8 -4.9,-10.1 l 0,-0.1 c -3,-4.8 -8.9,-12.7 -29.9,-21.9 l 3.7,-7 -28.3,7.6 10.2,26.2 4.1,-7.8 z" style="fill:#ffffff"/>
        </g>
        <g>
          <path d="m 104,59.3 c 1.6,-3.5 3.2,-6.1 5.1,-8.7 2.8,-4 5.9,-7.7 9.2,-10.8 7.7,-7.6 15.6,-11.6 22.1,-10.5 L 138,27 c -5.8,-5.5 -16,-12.8 -20.4,-12.9 -0.5,0.1 -0.5,0.1 -0.5,0.1 -3.4,1 -6.8,2.6 -10.1,4.9 l -0.1,0 C 102.1,22.1 94.2,28 85,49 l -7,-3.7 7.6,28.3 26.4,-10 -8,-4.3 z" style="fill:#ffffff"/>
        </g>
        <g>
          <path d="m 58.2,103.2 c -1.6,3.5 -3.2,6.1 -5.1,8.7 -2.8,4 -5.9,7.7 -9.2,10.8 -7.7,7.6 -15.6,11.6 -22.1,10.5 l 2.4,2.3 c 5.8,5.5 16,12.8 20.4,12.9 0.5,-0.1 0.5,-0.1 0.5,-0.1 3.4,-1 6.8,-2.6 10.1,-4.9 l 0.1,0 c 4.8,-3 12.7,-8.9 21.9,-29.9 l 7,3.7 -7.6,-28.3 -26.3,10 7.9,4.3 z" style="fill:#ffffff"/>
        </g>
      </g>
    </g>
  </symbol>
  <symbol viewBox="0 0 698.3 162.5" id="icon-nexus-header">
    <g>
      <g>
        <g>
          <path class="nexus-outline" d="M44.4,162.5c-0.6,0-1.3,0-1.9-0.1c-1.5-0.2-2.9-0.5-4.5-1c-2.8-0.9-5.2-2.2-6.9-3.2c-3.8-2.2-7.7-4.9-11.8-8.3 c-1.8-1.5-3.6-3.1-5.3-4.7l-1.4-1.4c-1-0.9-1.9-1.9-2.6-3c-1.3-2-2.4-4.6-2.5-8c-0.1-1.1-0.2-2.2-0.2-3.4c0-2.4,0.1-5,0.5-7.5 c0.7-5.2,2.4-9.8,3.7-13.3c0.1-0.3,0.2-0.6,0.3-0.9c-0.4-0.9-0.7-1.9-1.1-2.9C8.9,99.6,7.7,93.8,7.1,88 c-0.6-6.1-0.4-12.3,0.5-18.4c0.2-1.3,0.4-2.6,0.7-3.8C5.9,62.3,2.9,57.3,1,51.5l0-0.1c-0.4-1.2-1.4-4.2-0.8-8 c0.2-1.4,0.5-2.8,1-4.3c0.9-2.8,2.2-5.1,3.2-6.8c2.2-3.8,4.9-7.6,8.2-11.7c1.5-1.8,3-3.6,4.6-5.2l1.4-1.4 c0.7-0.8,1.5-1.5,2.4-2.1c2-1.5,4.8-2.8,8.6-2.9c1.2-0.1,2.5-0.2,3.8-0.2h0.1c2.5,0,5.2,0.2,7.8,0.6c4,0.6,7.6,1.7,10.8,2.9 c2.1-0.9,4.3-1.7,6.6-2.5C64.1,8,69.9,6.8,75.7,6.4C81.8,5.9,88,6.2,93.9,7.2c1.4,0.2,2.8,0.5,4.2,0.8c4.7-3.2,9-5.5,13.5-6.9 l0.1,0c1-0.4,3.2-1.1,6.1-1.1c0.6,0,1.3,0,1.9,0.1c1.5,0.2,2.9,0.5,4.5,1c2.8,0.9,5.2,2.2,6.9,3.2c3.8,2.2,7.7,4.9,11.8,8.3 c1.8,1.5,3.6,3.1,5.3,4.7l1.4,1.4c0.7,0.6,1.4,1.3,1.9,2.1c1.8,2.3,3.2,5.6,3.3,10.2c0.1,1.6,0.1,3.3,0,5 c-0.2,3.7-0.7,7.2-1.6,10.4c-0.7,2.4-1.5,4.8-2.4,7.2c1.8,4.5,3.1,9.1,4,13.8c1.8,9.9,1.6,20.1-0.6,29.9c1.3,1.9,2.5,3.7,3.5,5.5 c1.7,3,3.1,6.1,4.1,9.3c0.4,1.2,1.3,4.2,0.7,8.2c-0.2,1.4-0.6,2.7-1.1,4.2c-1.8,5.1-4.6,9.3-7.1,12.8c-2.7,3.8-5.8,7.5-9,10.9 l-1.2,1.2c-0.7,0.8-1.5,1.5-2.4,2.2c-2,1.5-4.8,2.7-8.6,2.9c-1.2,0.1-2.5,0.2-3.8,0.2h-0.1c-2.7,0-5.4-0.2-8.2-0.7 c-4.5-0.7-8.5-2.1-12.1-3.5c-1.9,0.8-3.9,1.5-5.8,2.1c-5.6,1.7-11.5,2.8-17.4,3.1c-6.1,0.4-12.3-0.1-18.3-1.2 c-0.7-0.1-1.5-0.3-2.2-0.4c-5.2,3.7-9.8,6.1-14.6,7.7l-0.1,0C49.5,161.7,47.3,162.5,44.4,162.5L44.4,162.5z M24.6,134.1l10.6,3.7 c0.9-2.6,1-5.4,0.4-8c0,0.2,0,0.5,0.1,0.7c0,0.3,0.1,0.7,0.1,1.1c-0.1-2-0.8-4.6-2.6-7c-0.7-0.9-1.5-1.7-2.4-2.4l0.5,0.4l0.9,0.9 c-0.8-0.8-1.7-1.6-2.7-2.3L24.6,134.1L24.6,134.1z M123.7,129.4c-0.8,0.8-1.6,1.6-2.3,2.7l11.9,4.6l0-11.1c0,0,0,0,0,0 c-1.1,0-2.2,0.1-3.2,0.4c0.2,0,0.4,0,0.6,0c0.3,0,0.7-0.1,1.1-0.1c-1.8,0.1-4.2,0.7-6.4,2.1c-1.2,0.8-2.2,1.7-3.1,2.9l0.4-0.5 L123.7,129.4L123.7,129.4z M35.8,126.8c0.5,0.4,1,0.8,1.5,1.3c2.6,2.2,5,3.9,7.2,5.2c1.4-0.7,3-1.7,4.7-3 c0.5-0.3,0.9-0.7,1.4-1.1c0.3-0.2,0.5-0.5,0.8-0.7c0.1-0.1,0.3-0.3,0.4-0.4l6.2-6.3l8.4,2.9c0.3,0.1,0.6,0.2,0.8,0.3 c1.8,0.6,3.6,1,5.4,1.4c3.7,0.7,7.6,1,11.4,0.7c3.6-0.2,7.3-0.9,10.7-1.9c1.7-0.5,3.4-1.1,5-1.9c0.8-0.3,1.6-0.7,2.3-1.1 c2-1,4.3-1.6,6.6-1.6c3.6,0,6.3,1.3,7.6,2c0.4,0.2,0.8,0.4,1.3,0.5c2.5,1,5.4,2.2,8,2.6c0.4,0.1,0.9,0.1,1.3,0.2 c1.5-1.7,2.9-3.5,4.2-5.3c0.8-1.1,1.6-2.2,2.3-3.3c-0.1-0.2-0.2-0.4-0.4-0.7c-0.7-1.2-1.5-2.4-2.5-3.9c-0.3-0.5-0.7-0.9-1.1-1.4 c-0.2-0.2-0.3-0.4-0.5-0.6c-4.1-4-5.5-9.7-3.6-15.1c0.1-0.3,0.2-0.6,0.3-0.8c2.3-7.2,2.7-14.9,1.4-22.3c-0.7-3.5-1.7-7-3.2-10.3 c-0.1-0.3-0.3-0.6-0.4-0.9c-3.3-6.1-1.9-11.3-0.7-13.8c0.5-1,0.9-2.1,1.3-3.1c0.8-1.9,1.4-3.9,2-5.7c0.2-0.9,0.4-1.8,0.5-2.9 c-0.5-0.4-1-0.8-1.5-1.3c-2.7-2.2-5-3.9-7.2-5.2c-1.4,0.8-3,1.8-4.8,3c-0.5,0.4-1,0.8-1.5,1.2c-0.1,0.1-0.3,0.2-0.4,0.4 c-2.7,2.6-6.3,4-10,4c-1.8,0-3.5-0.3-5.2-1c-0.4-0.1-0.8-0.3-1.2-0.4c-1.8-0.5-3.6-1-5.5-1.3c-3.7-0.6-7.6-0.8-11.4-0.5 c-3.6,0.3-7.2,1-10.6,2.1c-1.7,0.5-3.3,1.2-4.9,1.9c-0.8,0.3-1.5,0.7-2.3,1.1L59.5,40c-2.1,1.2-4.6,1.8-7,1.8 c-2.2,0-4.4-0.5-6.5-1.5c-0.5-0.2-0.9-0.4-1.4-0.6c-2.4-1-5.3-2.1-7.8-2.4c-0.4-0.1-0.8-0.1-1.1-0.2c-0.4,0.5-0.8,1-1.2,1.4 c-2.2,2.7-3.9,5-5.2,7.3c0.7,1.4,1.7,2.9,2.9,4.7c0.3,0.5,0.7,1,1.1,1.4c0.2,0.3,0.5,0.5,0.7,0.8l5.8,6.1l-2.5,8 c-0.2,0.5-0.3,1-0.5,1.5c-0.5,1.8-0.9,3.7-1.2,5.6c-0.6,3.8-0.7,7.6-0.3,11.5c0.3,3.6,1.1,7.2,2.3,10.6c0.6,1.7,1.3,3.3,2,4.9 c0.1,0.2,0.2,0.4,0.3,0.6c2.1,4.3,2.1,9.1-0.1,13.4c-0.2,0.4-0.4,0.8-0.5,1.2c-0.4,1-0.9,2-1.3,3c-0.8,2.2-1.8,4.8-2.1,7.1 C35.9,126.3,35.8,126.6,35.8,126.8L35.8,126.8z M129.9,38.8c0.8,0.8,1.7,1.6,2.8,2.4l4.9-12.9L127,24.6c-0.9,2.6-1,5.4-0.4,8 c0-0.1,0-0.2,0-0.3c0-0.3,0-0.8,0-1.3v-0.1c0,1.5,0.5,4,2.1,6.4c0.8,1.1,1.7,2.1,2.8,3l-0.5-0.4L129.9,38.8L129.9,38.8z  M29.3,26.3l0,11.1c1.1,0,2.2-0.1,3.2-0.4c-0.2,0-0.4,0-0.6,0c-0.3,0-0.7,0.1-1.1,0.1c1.8-0.1,4.2-0.7,6.4-2.1 c1.2-0.8,2.2-1.7,3.1-2.9l-0.4,0.5l-0.9,1c0.8-0.8,1.6-1.7,2.3-2.7L29.3,26.3L29.3,26.3z"/>
        </g>
      </g>
      <g>
        <g>
          <path class="nexus-orange-darker" d="M56.3,88.4l0.7,28.3l-7-5.7c-7.8,12.7-10.3,25-6.6,34.1l1.3,3.2l-3.2-1.4c-7.3-3.2-13.9-7.7-19.4-13.5 l-0.3-0.3l-0.1-0.5c-0.4-3.5-0.2-7.3,0.7-11.2l0-0.1c1.3-4.9,3.2-9.8,5.6-14.7c1.5-3.1,3.3-6.2,5.3-9.2l-6.1-5L56.3,88.4z"/>
        </g>
        <g>
          <path class="nexus-orange-darker" d="M105.9,74.1l-0.7-28.3l7,5.7c7.8-12.7,10.3-25,6.6-34.1l-1.3-3.2l3.2,1.4c7.3,3.2,13.9,7.7,19.4,13.5 l0.3,0.3l0.1,0.5c0.4,3.5,0.2,7.3-0.7,11.2l0,0.1c-1.3,4.9-3.2,9.8-5.6,14.7c-1.5,3.1-3.3,6.2-5.3,9.2l6.1,5L105.9,74.1z"/>
        </g>
        <g>
          <g>
            <path class="nexus-orange-darker" d="M88.5,105.4l28.3-0.7l-5.7,7c12.7,7.8,25,10.3,34.1,6.6l3.2-1.3l-1.4,3.2c-3.2,7.3-7.7,13.9-13.5,19.4 l-0.3,0.3l-0.5,0.1c-3.5,0.4-7.3,0.2-11.2-0.7l-0.1,0c-4.9-1.3-9.8-3.2-14.7-5.6c-3.1-1.5-6.2-3.3-9.2-5.3l-5,6.1L88.5,105.4z"/>
          </g>
        </g>
        <g>
          <g>
            <path class="nexus-orange-darker" d="M74.1,57.6l-28.3,0.7l5.7-7c-12.7-7.8-25-10.3-34.1-6.6L14.3,46l1.4-3.2c3.2-7.3,7.7-13.9,13.5-19.4 l0.3-0.3L30,23c3.5-0.4,7.3-0.2,11.2,0.7l0.1,0c4.9,1.3,9.8,3.2,14.7,5.6c3.1,1.5,6.2,3.3,9.2,5.3l5-6.1L74.1,57.6z"/>
          </g>
        </g>
        <g>
          <g>
            <circle class="nexus-orange" cx="81.4" cy="80.8" r="60.5"/>
          </g>
        </g>
        <g>
          <path d="M59.3,59.5c-3.5-1.6-6.1-3.2-8.7-5.1c-4-2.8-7.7-5.9-10.8-9.2c-7.6-7.7-11.6-15.6-10.5-22.1L27,25.6 c-5.5,5.8-12.8,16-12.9,20.4c0.1,0.5,0.1,0.5,0.1,0.5c1,3.4,2.6,6.8,4.9,10.1l0,0.1c3,4.8,8.9,12.7,29.9,21.9l-3.7,7l28.3-7.6 L63.5,51.5L59.3,59.5z"/>
        </g>
        <g>
          <path d="M103.3,103.5c3.5,1.6,6.1,3.2,8.7,5.1c4,2.8,7.7,5.9,10.8,9.2c7.6,7.7,11.6,15.6,10.5,22.1l2.3-2.4 c5.5-5.8,12.8-16,12.9-20.4c-0.1-0.5-0.1-0.5-0.1-0.5c-1-3.4-2.6-6.8-4.9-10.1l0-0.1c-3-4.8-8.9-12.7-29.9-21.9l3.7-7l-28.3,7.6 l10.2,26.2L103.3,103.5z"/>
        </g>
        <g>
          <path d="M104,59.3c1.6-3.5,3.2-6.1,5.1-8.7c2.8-4,5.9-7.7,9.2-10.8c7.7-7.6,15.6-11.6,22.1-10.5L138,27 c-5.8-5.5-16-12.8-20.4-12.9c-0.5,0.1-0.5,0.1-0.5,0.1c-3.4,1-6.8,2.6-10.1,4.9l-0.1,0c-4.8,3-12.7,8.9-21.9,29.9l-7-3.7 l7.6,28.3L112,63.6L104,59.3z"/>
        </g>
        <g>
          <path d="M58.2,103.2c-1.6,3.5-3.2,6.1-5.1,8.7c-2.8,4-5.9,7.7-9.2,10.8c-7.7,7.6-15.6,11.6-22.1,10.5l2.4,2.3 c5.8,5.5,16,12.8,20.4,12.9c0.5-0.1,0.5-0.1,0.5-0.1c3.4-1,6.8-2.6,10.1-4.9l0.1,0c4.8-3,12.7-8.9,21.9-29.9l7,3.7l-7.6-28.3 L50.3,98.9L58.2,103.2z"/>
        </g>
      </g>
    </g>
    <g>
      <path d="M198.6,131.3h-6V31.9h8.5l29.8,83.9V31.9h6v99.4h-7.2l-31.1-88.6V131.3z"/>
      <path d="M281.1,77.9v6h-27.1v41.5h32.7v6h-39.2V31.9h39.2v6h-32.7v40H281.1z"/>
      <path d="M321.8,85l-20.2,46.3h-6.4l22.4-51.5l-20.9-47.8h6.8l18.7,42.7l18.9-42.7h6.2l-20.9,47.8l22.3,51.5h-7 L321.8,85z"/>
      <path d="M364.5,107.3c0,10.6,4,18.9,14.9,18.9s14.9-8.2,14.9-18.9V31.9h6.1V107c0,14.2-6,25.1-21.2,25.1 c-15.2,0-21.3-10.9-21.3-25.1V31.9h6.5V107.3z"/>
      <path d="M452.8,55.9v2.1h-6.2v-2.6c0-10.5-4-18.5-14.8-18.5c-10.8,0-14.8,7.8-14.8,18.3c0,24.1,35.9,24.6,35.9,52 c0,14.3-6.2,24.8-21.4,24.8s-21.4-10.5-21.4-24.8v-5.1h6.2v5.5c0,10.6,4.1,18.3,15,18.3s15-7.7,15-18.3c0-23.9-35.9-24.3-35.9-52 c0-14.9,6.5-24.6,21.2-24.7C446.7,31.1,452.8,41.6,452.8,55.9z"/>
      <path class="nexus-orange" d="M495.8,102.5l10.6-70.6h21.7v99.4h-14.8V60.1l-10.8,71.3h-14.8l-11.6-70.3v70.3h-13.6V31.9h21.7L495.8,102.5z"/>
      <path class="nexus-orange" d="M537.6,55.8c0-15.9,8.4-25,23.7-25c15.3,0,23.7,9.1,23.7,25v51.7c0,15.9-8.4,25-23.7,25 c-15.3,0-23.7-9.1-23.7-25V55.8z M553.2,108.5c0,7.1,3.1,9.8,8.1,9.8s8.1-2.7,8.1-9.8V54.8c0-7.1-3.1-9.8-8.1-9.8s-8.1,2.7-8.1,9.8 V108.5z"/>
      <path class="nexus-orange" d="M594.4,31.9h24.7c15.6,0,23.3,8.7,23.3,24.6v50.3c0,15.9-7.7,24.6-23.3,24.6h-24.7V31.9z M610,46.1v71h8.8 c5,0,7.9-2.6,7.9-9.7V55.8c0-7.1-3-9.7-7.9-9.7H610z"/>
      <path class="nexus-orange" d="M672.6,30.8c15.2,0,23,9.1,23,25v3.1h-14.8v-4.1c0-7.1-2.8-9.8-7.8-9.8c-5,0-7.8,2.7-7.8,9.8 c0,20.4,30.5,24.3,30.5,52.7c0,15.9-8,25-23.3,25c-15.3,0-23.3-9.1-23.3-25v-6.1h14.8v7.1c0,7.1,3.1,9.7,8.1,9.7s8.1-2.6,8.1-9.7 c0-20.4-30.5-24.3-30.5-52.7C649.6,39.9,657.4,30.8,672.6,30.8z"/>
    </g>
  </symbol>
  <symbol viewBox="0 0 24 24" id="icon-sort-up">
    <path d="M16,15.414l-4-4l-4,4L6.586,14l4.707-4.707c0.391-0.391,1.023-0.391,1.414,0L17.414,14L16,15.414z"/>
  </symbol>
  <symbol viewBox="0 0 24 24" id="icon-search-up">
    <path d="M16,15.414l-4-4l-4,4L6.586,14l4.707-4.707c0.391-0.391,1.023-0.391,1.414,0L17.414,14L16,15.414z"/>
  </symbol>
  <symbol viewBox="0 0 24 24" id="icon-endorse-disabled">
    <path d="M22.7,4.3l-3-3c-0.4-0.4-1-0.4-1.4,0L12,7.6L5.7,1.3c-0.4-0.4-1-0.4-1.4,0l-3,3c-0.4,0.4-0.4,1,0,1.4L7.6,12 l-6.3,6.3c-0.4,0.4-0.4,1,0,1.4l3,3c0.4,0.4,1,0.4,1.4,0l6.3-6.3l6.3,6.3c0.2,0.2,0.5,0.3,0.7,0.3s0.5-0.1,0.7-0.3l3-3 c0.4-0.4,0.4-1,0-1.4L16.4,12l6.3-6.3C23.1,5.3,23.1,4.7,22.7,4.3z"/>
  </symbol>
  <symbol viewBox="0 0 1792 1792" id="icon-endorse-yes">
    <path d="M320 1344q0-26-19-45t-45-19q-27 0-45.5 19t-18.5 45q0 27 18.5 45.5t45.5 18.5q26 0 45-18.5t19-45.5zm160-512v640q0 26-19 45t-45 19h-288q-26 0-45-19t-19-45v-640q0-26 19-45t45-19h288q26 0 45 19t19 45zm1184 0q0 86-55 149 15 44 15 76 3 76-43 137 17 56 0 117-15 57-54 94 9 112-49 181-64 76-197 78h-129q-66 0-144-15.5t-121.5-29-120.5-39.5q-123-43-158-44-26-1-45-19.5t-19-44.5v-641q0-25 18-43.5t43-20.5q24-2 76-59t101-121q68-87 101-120 18-18 31-48t17.5-48.5 13.5-60.5q7-39 12.5-61t19.5-52 34-50q19-19 45-19 46 0 82.5 10.5t60 26 40 40.5 24 45 12 50 5 45 .5 39q0 38-9.5 76t-19 60-27.5 56q-3 6-10 18t-11 22-8 24h277q78 0 135 57t57 135z"/>
  </symbol>
  <symbol viewBox="0 0 1792 1792" id="icon-comments">
    <path d="M640 896q0-53-37.5-90.5t-90.5-37.5-90.5 37.5-37.5 90.5 37.5 90.5 90.5 37.5 90.5-37.5 37.5-90.5zm384 0q0-53-37.5-90.5t-90.5-37.5-90.5 37.5-37.5 90.5 37.5 90.5 90.5 37.5 90.5-37.5 37.5-90.5zm384 0q0-53-37.5-90.5t-90.5-37.5-90.5 37.5-37.5 90.5 37.5 90.5 90.5 37.5 90.5-37.5 37.5-90.5zm384 0q0 174-120 321.5t-326 233-450 85.5q-110 0-211-18-173 173-435 229-52 10-86 13-12 1-22-6t-13-18q-4-15 20-37 5-5 23.5-21.5t25.5-23.5 23.5-25.5 24-31.5 20.5-37 20-48 14.5-57.5 12.5-72.5q-146-90-229.5-216.5t-83.5-269.5q0-174 120-321.5t326-233 450-85.5 450 85.5 326 233 120 321.5z"/>
  </symbol>
  <symbol viewBox="0 0 1792 1792" id="icon-endorse-maybe">
    <path d="M384 1344q0-26-19-45t-45-19-45 19-19 45 19 45 45 19 45-19 19-45zm1152-576q0-51-39-89.5t-89-38.5h-352q0-58 48-159.5t48-160.5q0-98-32-145t-128-47q-26 26-38 85t-30.5 125.5-59.5 109.5q-22 23-77 91-4 5-23 30t-31.5 41-34.5 42.5-40 44-38.5 35.5-40 27-35.5 9h-32v640h32q13 0 31.5 3t33 6.5 38 11 35 11.5 35.5 12.5 29 10.5q211 73 342 73h121q192 0 192-167 0-26-5-56 30-16 47.5-52.5t17.5-73.5-18-69q53-50 53-119 0-25-10-55.5t-25-47.5q32-1 53.5-47t21.5-81zm128-1q0 89-49 163 9 33 9 69 0 77-38 144 3 21 3 43 0 101-60 178 1 139-85 219.5t-227 80.5h-129q-96 0-189.5-22.5t-216.5-65.5q-116-40-138-40h-288q-53 0-90.5-37.5t-37.5-90.5v-640q0-53 37.5-90.5t90.5-37.5h274q36-24 137-155 58-75 107-128 24-25 35.5-85.5t30.5-126.5 62-108q39-37 90-37 84 0 151 32.5t102 101.5 35 186q0 93-48 192h176q104 0 180 76t76 179z"/>
  </symbol>
  <symbol viewBox="0 0 1792 1792" id="icon-endorse-no">
    <path d="M320 576q0 26-19 45t-45 19q-27 0-45.5-19t-18.5-45q0-27 18.5-45.5t45.5-18.5q26 0 45 18.5t19 45.5zm160 512v-640q0-26-19-45t-45-19h-288q-26 0-45 19t-19 45v640q0 26 19 45t45 19h288q26 0 45-19t19-45zm1129-149q55 61 55 149-1 78-57.5 135t-134.5 57h-277q4 14 8 24t11 22 10 18q18 37 27 57t19 58.5 10 76.5q0 24-.5 39t-5 45-12 50-24 45-40 40.5-60 26-82.5 10.5q-26 0-45-19-20-20-34-50t-19.5-52-12.5-61q-9-42-13.5-60.5t-17.5-48.5-31-48q-33-33-101-120-49-64-101-121t-76-59q-25-2-43-20.5t-18-43.5v-641q0-26 19-44.5t45-19.5q35-1 158-44 77-26 120.5-39.5t121.5-29 144-15.5h129q133 2 197 78 58 69 49 181 39 37 54 94 17 61 0 117 46 61 43 137 0 32-15 76z"/>
  </symbol>
  <symbol viewBox="0 0 24 24" id="icon-close">
    <path d="M22.7,4.3l-3-3c-0.4-0.4-1-0.4-1.4,0L12,7.6L5.7,1.3c-0.4-0.4-1-0.4-1.4,0l-3,3c-0.4,0.4-0.4,1,0,1.4L7.6,12 l-6.3,6.3c-0.4,0.4-0.4,1,0,1.4l3,3c0.4,0.4,1,0.4,1.4,0l6.3-6.3l6.3,6.3c0.2,0.2,0.5,0.3,0.7,0.3s0.5-0.1,0.7-0.3l3-3 c0.4-0.4,0.4-1,0-1.4L16.4,12l6.3-6.3C23.1,5.3,23.1,4.7,22.7,4.3z"/>
  </symbol>
  <symbol viewBox="0 0 24 24" id="icon-toggle-disabled">
    <path d="M22.7,4.3l-3-3c-0.4-0.4-1-0.4-1.4,0L12,7.6L5.7,1.3c-0.4-0.4-1-0.4-1.4,0l-3,3c-0.4,0.4-0.4,1,0,1.4L7.6,12 l-6.3,6.3c-0.4,0.4-0.4,1,0,1.4l3,3c0.4,0.4,1,0.4,1.4,0l6.3-6.3l6.3,6.3c0.2,0.2,0.5,0.3,0.7,0.3s0.5-0.1,0.7-0.3l3-3 c0.4-0.4,0.4-1,0-1.4L16.4,12l6.3-6.3C23.1,5.3,23.1,4.7,22.7,4.3z"/>
  </symbol>
  <symbol viewBox="0 0 24 24" id="icon-download">
    <polygon points="6,10 12,17 18,10 13,10 13,1 11,1 11,10 "/>
    <path d="M22,21H2v-6H0v7c0,0.552,0.448,1,1,1h22c0.552,0,1-0.448,1-1v-7h-2V21z"/>
  </symbol>
  <symbol viewBox="0 0 24 24" id="icon-conflict">
    <path d="M19.882,7.528C19.708,7.203,19.369,7,19,7h-4.674l1.636-5.725c0.086-0.302,0.026-0.626-0.163-0.877 S15.314,0,15,0H8C7.549,0,7.154,0.302,7.035,0.737l-3,11c-0.082,0.301-0.019,0.623,0.17,0.87C4.395,12.854,4.688,13,5,13h4.802 l-1.786,9.821c-0.085,0.466,0.169,0.928,0.609,1.106C8.748,23.977,8.875,24,9,24c0.327,0,0.643-0.16,0.833-0.445l10-15 C20.037,8.248,20.056,7.854,19.882,7.528z"/>
  </symbol>
  <symbol viewBox="0 0 24 24" id="icon-toggle-enabled">
    <path d="M2,12l2-2l4,3c0,0,4.4-5.5,13-8l1,2c0,0-9.4,4.4-14,13L2,12z"/>
  </symbol>
  <symbol viewBox="0 0 1792 1792" id="icon-toggle-uninstalled">
    <path d="M704 1376v-704q0-14-9-23t-23-9h-64q-14 0-23 9t-9 23v704q0 14 9 23t23 9h64q14 0 23-9t9-23zm256 0v-704q0-14-9-23t-23-9h-64q-14 0-23 9t-9 23v704q0 14 9 23t23 9h64q14 0 23-9t9-23zm256 0v-704q0-14-9-23t-23-9h-64q-14 0-23 9t-9 23v704q0 14 9 23t23 9h64q14 0 23-9t9-23zm-544-992h448l-48-117q-7-9-17-11h-317q-10 2-17 11zm928 32v64q0 14-9 23t-23 9h-96v948q0 83-47 143.5t-113 60.5h-832q-66 0-113-58.5t-47-141.5v-952h-96q-14 0-23-9t-9-23v-64q0-14 9-23t23-9h309l70-167q15-37 54-63t79-26h320q40 0 79 26t54 63l70 167h309q14 0 23 9t9 23z"/>
  </symbol>
  <symbol viewBox="0 0 24 24" id="icon-feedback-success">
    <path d="M2,12l2-2l4,3c0,0,4.4-5.5,13-8l1,2c0,0-9.4,4.4-14,13L2,12z"/>
  </symbol>
  <symbol viewBox="0 0 24 24" id="icon-feedback-warning">
    <path d="M22.885,21.534l-10-19c-0.346-0.657-1.424-0.657-1.77,0l-10,19c-0.163,0.31-0.152,0.683,0.028,0.982 C1.325,22.817,1.649,23,2,23h20c0.351,0,0.675-0.183,0.856-0.483C23.037,22.217,23.048,21.844,22.885,21.534z M12,20 c-0.552,0-1-0.448-1-1c0-0.552,0.448-1,1-1s1,0.448,1,1C13,19.552,12.552,20,12,20z M13,16h-2V9h2V16z"/>
  </symbol>
  <symbol viewBox="0 0 24 24" id="icon-close-slim">
    <path d="M19.7,4.3c-0.4-0.4-1-0.4-1.4,0L12,10.6L5.7,4.3c-0.4-0.4-1-0.4-1.4,0s-0.4,1,0,1.4l6.3,6.3l-6.3,6.3 c-0.4,0.4-0.4,1,0,1.4C4.5,19.9,4.7,20,5,20s0.5-0.1,0.7-0.3l6.3-6.3l6.3,6.3c0.2,0.2,0.5,0.3,0.7,0.3s0.5-0.1,0.7-0.3 c0.4-0.4,0.4-1,0-1.4L13.4,12l6.3-6.3C20.1,5.3,20.1,4.7,19.7,4.3z"/>
  </symbol>
  <symbol viewBox="0 0 24 24" id="icon-warning">
    <path d="M22.885,21.534l-10-19c-0.346-0.657-1.424-0.657-1.77,0l-10,19c-0.163,0.31-0.152,0.683,0.028,0.982 C1.325,22.817,1.649,23,2,23h20c0.351,0,0.675-0.183,0.856-0.483C23.037,22.217,23.048,21.844,22.885,21.534z M12,20 c-0.552,0-1-0.448-1-1c0-0.552,0.448-1,1-1s1,0.448,1,1C13,19.552,12.552,20,12,20z M13,16h-2V9h2V16z"/>
  </symbol>
  <symbol viewBox="0 0 24 24" id="icon-feedback-error">
    <path d="M22.885,21.534l-10-19c-0.346-0.657-1.424-0.657-1.77,0l-10,19c-0.163,0.31-0.152,0.683,0.028,0.982 C1.325,22.817,1.649,23,2,23h20c0.351,0,0.675-0.183,0.856-0.483C23.037,22.217,23.048,21.844,22.885,21.534z M12,20 c-0.552,0-1-0.448-1-1c0-0.552,0.448-1,1-1s1,0.448,1,1C13,19.552,12.552,20,12,20z M13,16h-2V9h2V16z"/>
  </symbol>
  <symbol viewBox="0 0 24 24" id="icon-feedback-info">
    <path d="M23,0H1C0.448,0,0,0.448,0,1v22c0,0.552,0.448,1,1,1h22c0.552,0,1-0.448,1-1V1C24,0.448,23.552,0,23,0z M14.707,18.284c-0.661,0.26-2.952,1.354-4.272,0.191c-0.394-0.346-0.59-0.785-0.59-1.318c0-0.998,0.328-1.868,0.919-3.957 c0.104-0.395,0.231-0.907,0.231-1.313c0-0.701-0.266-0.887-0.987-0.887c-0.352,0-0.742,0.125-1.095,0.257l0.195-0.799 c0.787-0.32,1.775-0.71,2.621-0.71c1.269,0,2.202,0.633,2.202,1.837c0,0.347-0.06,0.955-0.186,1.375l-0.73,2.582 c-0.15,0.522-0.424,1.673-0.001,2.014c0.416,0.337,1.401,0.158,1.887-0.071L14.707,18.284z M13.5,8C12.672,8,12,7.328,12,6.5 S12.672,5,13.5,5S15,5.672,15,6.5S14.328,8,13.5,8z"/>
  </symbol>
  <symbol viewBox="0 0 24 24" id="icon-input-cancel">
    <path d="M22.7,4.3l-3-3c-0.4-0.4-1-0.4-1.4,0L12,7.6L5.7,1.3c-0.4-0.4-1-0.4-1.4,0l-3,3c-0.4,0.4-0.4,1,0,1.4L7.6,12 l-6.3,6.3c-0.4,0.4-0.4,1,0,1.4l3,3c0.4,0.4,1,0.4,1.4,0l6.3-6.3l6.3,6.3c0.2,0.2,0.5,0.3,0.7,0.3s0.5-0.1,0.7-0.3l3-3 c0.4-0.4,0.4-1,0-1.4L16.4,12l6.3-6.3C23.1,5.3,23.1,4.7,22.7,4.3z"/>
  </symbol>
  <symbol viewBox="0 0 24 24" id="icon-input-confirm">
    <path d="M2,12l2-2l4,3c0,0,4.4-5.5,13-8l1,2c0,0-9.4,4.4-14,13L2,12z"/>
  </symbol>
  <symbol viewBox="0 0 24 24" id="icon-dialog-error">
    <path d="M12,0C5.383,0,0,5.383,0,12s5.383,12,12,12s12-5.383,12-12S18.617,0,12,0z M13.645,5L13,14h-2l-0.608-9 H13.645z M12,20c-1.105,0-2-0.895-2-2c0-1.105,0.895-2,2-2c1.105,0,2,0.895,2,2C14,19.105,13.105,20,12,20z"/>
  </symbol>
  <symbol viewBox="0 0 24 24" id="icon-dialog-question">
    <path d="M12,0C5.383,0,0,5.383,0,12s5.383,12,12,12s12-5.383,12-12S18.617,0,12,0z M11.5,19 c-0.828,0-1.5-0.672-1.5-1.5s0.672-1.5,1.5-1.5s1.5,0.672,1.5,1.5S12.328,19,11.5,19z M15.811,10.127 c-0.309,0.495-0.896,1.051-1.762,1.669c-1.401,1.036-1.363,1.266-1.363,2.204h-2.457c0-0.733-0.016-1.296,0.38-1.981 c0.253-0.439,0.717-0.906,1.391-1.4c0.809-0.578,1.595-1.135,1.595-2.105c0-0.909-0.778-1.233-1.687-1.233 c-0.927,0-1.984,0.303-3.171,0.909l-1.011-2.03c2.157-1.209,5.561-1.756,7.422-0.241C16.514,7.032,16.522,8.989,15.811,10.127z"/>
  </symbol>
  <symbol viewBox="0 0 24 24" id="icon-game">
    <path d="M13,2c0-0.552-0.448-1-1-1s-1,0.448-1,1v5h2V2z"/>
    <path d="M18,9H6c-3.309,0-6,2.691-6,6s2.691,6,6,6c2.155,0,4.127-1.158,5.191-3h1.617c1.064,1.842,3.036,3,5.191,3 c3.309,0,6-2.691,6-6S21.309,9,18,9z M9,16H7v2H5v-2H3v-2h2v-2h2v2h2V16z M17,18c-0.552,0-1-0.448-1-1c0-0.552,0.448-1,1-1 s1,0.448,1,1C18,17.552,17.552,18,17,18z M20,15c-0.552,0-1-0.448-1-1c0-0.552,0.448-1,1-1s1,0.448,1,1C21,14.552,20.552,15,20,15z"/>
  </symbol>
  <symbol viewBox="0 0 16 16" id="icon-search">
    <path d="M12.7,11.3c0.9-1.2,1.4-2.6,1.4-4.2C14.1,3.2,11,0,7.1,0S0,3.2,0,7.1c0,3.9,3.2,7.1,7.1,7.1 c1.6,0,3.1-0.5,4.2-1.4l3,3c0.2,0.2,0.5,0.3,0.7,0.3s0.5-0.1,0.7-0.3c0.4-0.4,0.4-1,0-1.4L12.7,11.3z M7.1,12.1 C4.3,12.1,2,9.9,2,7.1S4.3,2,7.1,2s5.1,2.3,5.1,5.1S9.9,12.1,7.1,12.1z"/>
  </symbol>
  <symbol viewBox="0 0 24 24" id="icon-dialog-info">
    <path d="M12,0C5.383,0,0,5.383,0,12s5.383,12,12,12s12-5.383,12-12S18.617,0,12,0z M14.658,18.284 c-0.661,0.26-2.952,1.354-4.272,0.191c-0.394-0.346-0.59-0.785-0.59-1.318c0-0.998,0.328-1.868,0.919-3.957 c0.104-0.395,0.231-0.907,0.231-1.313c0-0.701-0.266-0.887-0.987-0.887c-0.352,0-0.742,0.125-1.095,0.257l0.195-0.799 c0.787-0.32,1.775-0.71,2.621-0.71c1.269,0,2.203,0.633,2.203,1.837c0,0.347-0.06,0.955-0.186,1.375l-0.73,2.582 c-0.151,0.522-0.424,1.673-0.001,2.014c0.416,0.337,1.401,0.158,1.887-0.071L14.658,18.284z M13.452,8c-0.828,0-1.5-0.672-1.5-1.5 s0.672-1.5,1.5-1.5s1.5,0.672,1.5,1.5S14.28,8,13.452,8z"/>
  </symbol>
  <symbol viewBox="0 0 24 24" id="icon-savegame">
    <path d="M23.813,7.419l-5-7C18.626,0.156,18.323,0,18,0h-3v7c0,0.553-0.447,1-1,1H6C5.447,8,5,7.553,5,7V0H1 C0.447,0,0,0.447,0,1v22c0,0.553,0.447,1,1,1h22c0.553,0,1-0.447,1-1V8C24,7.792,23.935,7.588,23.813,7.419z M19,20 c0,0.553-0.447,1-1,1H6c-0.553,0-1-0.447-1-1v-5c0-0.553,0.447-1,1-1h12c0.553,0,1,0.447,1,1V20z"/>
    <rect x="10" width="3" height="6"/>
  </symbol>
  <symbol viewBox="0 0 24 24" id="icon-mods">
    <path d="M20.271,6.771l-3.042-3.042l3.208-3.208C19.692,0.189,18.869,0,18,0c-3.314,0-6,2.686-6,6 c0,0.594,0.089,1.166,0.25,1.708l-10.789,8.73c-0.891,0.787-1.423,1.919-1.459,3.106c-0.037,1.188,0.424,2.351,1.264,3.19 C2.082,23.551,3.167,24,4.321,24c1.239,0,2.421-0.532,3.241-1.461l8.73-10.789C16.834,11.911,17.406,12,18,12c3.314,0,6-2.686,6-6 c0-0.869-0.189-1.692-0.521-2.438L20.271,6.771z"/>
  </symbol>
  <symbol viewBox="0 0 24 24" id="icon-notifications">
    <path d="M21.8,18.4c0,0-1.8-2.8-1.8-6.4V8c0-4.4-3.6-8-8-8S4,3.6,4,8v4c0,3.6-1.8,6.4-1.8,6.4c-0.2,0.3-0.2,0.7,0,1 C2.3,19.8,2.6,20,3,20h18c0.4,0,0.7-0.2,0.9-0.5C22.1,19.1,22,18.8,21.8,18.4z"/>
    <path d="M8.6,22c0.7,1.2,2,2,3.4,2s2.7-0.8,3.4-2H8.6z"/>
  </symbol>
  <symbol viewBox="0 0 24 24" id="icon-plugin-master">
    <path d="M12.712,1.942l2.969,6.015l6.638,0.965c0.651,0.095,0.911,0.895,0.44,1.354l-4.804,4.682l1.134,6.612 c0.111,0.649-0.57,1.143-1.152,0.837L12,19.286l-5.938,3.122C5.48,22.714,4.799,22.219,4.91,21.57l1.134-6.612l-4.804-4.682 c-0.471-0.459-0.211-1.26,0.44-1.354l6.638-0.965l2.969-6.015C11.579,1.352,12.421,1.352,12.712,1.942z"/>
  </symbol>
  <symbol viewBox="0 0 24 24" id="icon-profile">
    <path d="M23,2h-4c0,1.105-0.895,2-2,2s-2-0.895-2-2H9c0,1.105-0.895,2-2,2S5,3.105,5,2H1C0.448,2,0,2.448,0,3v18 c0,0.552,0.448,1,1,1h22c0.552,0,1-0.448,1-1V3C24,2.448,23.552,2,23,2z M8,9c1.105,0,2,0.895,2,2c0,1.105-0.895,2-2,2s-2-0.895-2-2 C6,9.895,6.895,9,8,9z M4,17c0-1.657,1.343-3,3-3h2c1.657,0,3,1.343,3,3H4z M20,16h-6v-2h6V16z M20,12h-6v-2h6V12z"/>
  </symbol>
  <symbol viewBox="0 0 1792 1792" id="icon-plugin-native">
    <path d="M640 768h512v-192q0-106-75-181t-181-75-181 75-75 181v192zm832 96v576q0 40-28 68t-68 28h-960q-40 0-68-28t-28-68v-576q0-40 28-68t68-28h32v-192q0-184 132-316t316-132 316 132 132 316v192h32q40 0 68 28t28 68z"/>
  </symbol>
  <symbol viewBox="0 0 24 24" id="icon-plugin-cleaned">
    <path d="M12.7,1.3c-0.4-0.4-1-0.4-1.4,0C11,1.6,3,9.8,3,15c0,5.6,4.6,9,9,9s9-3.4,9-9C21,9.8,13,1.6,12.7,1.3z"/>
  </symbol>
  <symbol viewBox="0 0 24 24" id="icon-plugins">
    <path d="M12,0C5.4,0,0,5.4,0,12s5.4,12,12,12s12-5.4,12-12S18.6,0,12,0z M17,13h-4v4c0,0.6-0.4,1-1,1s-1-0.4-1-1v-4 H7c-0.6,0-1-0.4-1-1s0.4-1,1-1h4V7c0-0.6,0.4-1,1-1s1,0.4,1,1v4h4c0.6,0,1,0.4,1,1S17.6,13,17,13z"/>
  </symbol>
  <symbol viewBox="0 0 24 24" id="icon-add">
    <path d="M12,0C5.4,0,0,5.4,0,12s5.4,12,12,12s12-5.4,12-12S18.6,0,12,0z M17,13h-4v4c0,0.6-0.4,1-1,1s-1-0.4-1-1v-4 H7c-0.6,0-1-0.4-1-1s0.4-1,1-1h4V7c0-0.6,0.4-1,1-1s1,0.4,1,1v4h4c0.6,0,1,0.4,1,1S17.6,13,17,13z"/>
  </symbol>
  <symbol viewBox="0 0 24 24" id="icon-plugin-dont-clean">
    <path d="M22,4c-3.157,0-6.865-1.111-9.445-2.832c-0.336-0.225-0.773-0.225-1.109,0C8.865,2.889,5.157,4,2,4 C1.448,4,1,4.447,1,5c0,8.374,3.965,15.073,10.606,17.919C11.732,22.973,11.866,23,12,23s0.268-0.027,0.394-0.081 C19.035,20.073,23,13.374,23,5C23,4.447,22.552,4,22,4z M12,20.905V12H4.141C3.491,10.16,3.107,8.133,3.02,5.967 C6.074,5.772,9.442,4.732,12,3.185V12h7.859C18.429,16.045,15.709,19.186,12,20.905z"/>
  </symbol>
  <symbol viewBox="0 0 24 24" id="icon-hide">
    <path d="M20.201,8.041l-4.228,4.228c-0.135,1.987-1.716,3.568-3.703,3.703l-3.439,3.439 C9.813,19.773,10.869,20,12,20c6.473,0,10.69-7.195,10.866-7.501c0.178-0.308,0.179-0.687,0.002-0.995 C22.787,11.362,21.836,9.74,20.201,8.041z"/>
    <path d="M5.647,17.624c0.97-1.015,2.039-2.115,3.153-3.249C8.304,13.709,8,12.893,8,12c0-2.206,1.794-4,4-4 c0.893,0,1.709,0.304,2.375,0.8c1.087-1.068,2.142-2.093,3.122-3.031C15.941,4.748,14.092,4,12,4C5.461,4,1.304,11.2,1.13,11.507 c-0.174,0.307-0.173,0.683,0.002,0.989C1.24,12.685,2.88,15.498,5.647,17.624z"/>
    <path d="M3,22c-0.256,0-0.512-0.098-0.707-0.293c-0.391-0.391-0.391-1.023,0-1.414l18-18 c0.391-0.391,1.023-0.391,1.414,0s0.391,1.023,0,1.414l-18,18C3.512,21.902,3.256,22,3,22z"/>
  </symbol>
  <symbol viewBox="0 0 24 24" id="icon-plugin-light">
    <path d="M22.7,1.3C22.5,1.1,22.2,1,21.8,1C21.4,1.1,10.7,2.9,6.3,7.3c-3.1,3.1-3.3,6.5-2.8,8.9L7.2,14 c0.5-0.3,1,0.4,0.6,0.8l-3.7,3.7c0,0,0,0,0,0l-2.8,2.8c-0.4,0.4-0.4,1,0,1.4C1.5,22.9,1.7,23,2,23s0.5-0.1,0.7-0.3l2.8-2.8 c0.8,0.4,2.3,0.9,4.2,0.9c2.2,0,4.2-0.7,6-2.1c0.3-0.2,0.5-0.7,0.3-1.1l-1.4-5l3.6,1.4c0.5,0.2,1.1,0,1.3-0.5 c2.1-4.7,3.4-11,3.5-11.2C23,1.9,22.9,1.5,22.7,1.3z"/>
  </symbol>
  <symbol viewBox="0 0 24 24" id="icon-remove">
    <path d="M12,0C5.383,0,0,5.383,0,12s5.383,12,12,12s12-5.383,12-12S18.617,0,12,0z M18,14H6v-4h12V14z"/>
  </symbol>
  <symbol viewBox="0 0 24 24" id="icon-highlight">
    <path d="M22.9,11.5C22.7,11.2,18.5,4,12,4C5.5,4,1.3,11.2,1.1,11.5c-0.2,0.3-0.2,0.7,0,1C1.3,12.8,5.5,20,12,20 c6.5,0,10.7-7.2,10.9-7.5C23,12.2,23,11.8,22.9,11.5z M12,16c-2.2,0-4-1.8-4-4s1.8-4,4-4s4,1.8,4,4S14.2,16,12,16z"/>
  </symbol>
  <symbol viewBox="0 0 24 24" id="icon-show">
    <path d="M22.9,11.5C22.7,11.2,18.5,4,12,4C5.5,4,1.3,11.2,1.1,11.5c-0.2,0.3-0.2,0.7,0,1C1.3,12.8,5.5,20,12,20 c6.5,0,10.7-7.2,10.9-7.5C23,12.2,23,11.8,22.9,11.5z M12,16c-2.2,0-4-1.8-4-4s1.8-4,4-4s4,1.8,4,4S14.2,16,12,16z"/>
  </symbol>
  <symbol viewBox="0 0 24 24" id="icon-inspect">
    <path d="M22.9,11.5C22.7,11.2,18.5,4,12,4C5.5,4,1.3,11.2,1.1,11.5c-0.2,0.3-0.2,0.7,0,1C1.3,12.8,5.5,20,12,20 c6.5,0,10.7-7.2,10.9-7.5C23,12.2,23,11.8,22.9,11.5z M12,16c-2.2,0-4-1.8-4-4s1.8-4,4-4s4,1.8,4,4S14.2,16,12,16z"/>
  </symbol>
  <symbol viewBox="0 0 24 24" id="icon-about">
    <path d="M16.555,20.603l-0.306,1.254c-1.038,0.409-4.634,2.125-6.708,0.299c-0.618-0.543-0.927-1.233-0.927-2.069 c0-1.567,0.516-2.933,1.442-6.213c0.163-0.619,0.363-1.424,0.363-2.062c0-1.1-0.417-1.393-1.55-1.393 c-0.553,0-1.165,0.197-1.719,0.404l0.307-1.254c1.235-0.502,2.786-1.114,4.115-1.114c1.993,0,3.458,0.994,3.458,2.884 c0,0.545-0.094,1.499-0.292,2.159l-1.146,4.054c-0.236,0.82-0.666,2.626-0.002,3.162C14.245,21.243,15.792,20.963,16.555,20.603z"/>
    <circle cx="14.5" cy="3.5" r="2.5"/>
  </symbol>
  <symbol viewBox="0 0 1792 1792" id="icon-launch-application">
    <path d="M1312 896q0 37-32 55l-544 320q-15 9-32 9-16 0-32-8-32-19-32-56v-640q0-37 32-56 33-18 64 1l544 320q32 18 32 55zm128 0q0-148-73-273t-198-198-273-73-273 73-198 198-73 273 73 273 198 198 273 73 273-73 198-198 73-273zm224 0q0 209-103 385.5t-279.5 279.5-385.5 103-385.5-103-279.5-279.5-103-385.5 103-385.5 279.5-279.5 385.5-103 385.5 103 279.5 279.5 103 385.5z" vector-effect="non-scaling-stroke"/>
  </symbol>
  <symbol viewBox="0 0 24 24" id="icon-details">
    <path d="M12,0C5.383,0,0,5.383,0,12s5.383,12,12,12s12-5.383,12-12S18.617,0,12,0z M14.658,18.284 c-0.661,0.26-2.952,1.354-4.272,0.191c-0.394-0.346-0.59-0.785-0.59-1.318c0-0.998,0.328-1.868,0.919-3.957 c0.104-0.395,0.231-0.907,0.231-1.313c0-0.701-0.266-0.887-0.987-0.887c-0.352,0-0.742,0.125-1.095,0.257l0.195-0.799 c0.787-0.32,1.775-0.71,2.621-0.71c1.269,0,2.203,0.633,2.203,1.837c0,0.347-0.06,0.955-0.186,1.375l-0.73,2.582 c-0.151,0.522-0.424,1.673-0.001,2.014c0.416,0.337,1.401,0.158,1.887-0.071L14.658,18.284z M13.452,8c-0.828,0-1.5-0.672-1.5-1.5 s0.672-1.5,1.5-1.5s1.5,0.672,1.5,1.5S14.28,8,13.452,8z"/>
  </symbol>
  <symbol viewBox="0 0 24 24" id="icon-plugin-clean">
    <path d="M21,0H8C7.447,0,7,0.448,7,1v4c0,0.552,0.447,1,1,1h13c0.553,0,1-0.448,1-1V1C22,0.448,21.553,0,21,0z"/>
    <path d="M12.675,8c-1.147,5.338-5.039,8.039-5.23,8.168C7.167,16.354,7,16.666,7,17v6c0,0.552,0.447,1,1,1h11 c0.553,0,1-0.448,1-1V8H12.675z"/>
    <rect y="2" width="4" height="2"/>
    <rect x="1.757" y="6.243" transform="matrix(0.7075 -0.7067 0.7067 0.7075 -4.0196 4.7741)" width="4.001" height="1.999"/>
  </symbol>
  <symbol viewBox="0 0 24 24" id="icon-layout-grid">
    <path d="M5,0H1C0.447,0,0,0.447,0,1v4c0,0.553,0.447,1,1,1h4c0.553,0,1-0.447,1-1V1C6,0.447,5.553,0,5,0z"/>
    <path d="M5,9H1c-0.553,0-1,0.447-1,1v4c0,0.553,0.447,1,1,1h4c0.553,0,1-0.447,1-1v-4C6,9.447,5.553,9,5,9z"/>
    <path d="M5,18H1c-0.553,0-1,0.447-1,1v4c0,0.553,0.447,1,1,1h4c0.553,0,1-0.447,1-1v-4 C6,18.447,5.553,18,5,18z"/>
    <path d="M14,0h-4C9.447,0,9,0.447,9,1v4c0,0.553,0.447,1,1,1h4c0.553,0,1-0.447,1-1V1C15,0.447,14.553,0,14,0z"/>
    <path d="M14,9h-4c-0.553,0-1,0.447-1,1v4c0,0.553,0.447,1,1,1h4c0.553,0,1-0.447,1-1v-4 C15,9.447,14.553,9,14,9z"/>
    <path d="M14,18h-4c-0.553,0-1,0.447-1,1v4c0,0.553,0.447,1,1,1h4c0.553,0,1-0.447,1-1v-4C15,18.447,14.553,18,14,18z "/>
    <path d="M23,0h-4c-0.553,0-1,0.447-1,1v4c0,0.553,0.447,1,1,1h4c0.553,0,1-0.447,1-1V1 C24,0.447,23.553,0,23,0z"/>
    <path d="M23,9h-4c-0.553,0-1,0.447-1,1v4c0,0.553,0.447,1,1,1h4c0.553,0,1-0.447,1-1v-4C24,9.447,23.553,9,23,9z"/>
    <path d="M23,18h-4c-0.553,0-1,0.447-1,1v4c0,0.553,0.447,1,1,1h4c0.553,0,1-0.447,1-1v-4C24,18.447,23.553,18,23,18z "/>
  </symbol>
  <symbol viewBox="0 0 24 24" id="icon-layout-list">
    <circle cx="2" cy="4" r="2"/>
    <circle cx="2" cy="12" r="2"/>
    <circle cx="2" cy="20" r="2"/>
    <path d="M23,5H8C7.44775,5,7,4.55225,7,4s0.44775-1,1-1h15c0.55225,0,1,0.44775,1,1S23.55225,5,23,5z"/>
    <path d="M23,13H8c-0.55225,0-1-0.44775-1-1s0.44775-1,1-1h15c0.55225,0,1,0.44775,1,1S23.55225,13,23,13z"/>
    <path d="M23,21H8c-0.55225,0-1-0.44727-1-1s0.44775-1,1-1h15c0.55225,0,1,0.44727,1,1S23.55225,21,23,21z"/>
  </symbol>
  <symbol viewBox="0 0 24 24" id="icon-launch-simple">
    <path d="M20.555,11.168l-15-10c-0.307-0.204-0.702-0.224-1.026-0.05C4.203,1.292,4,1.631,4,2v20 c0,0.369,0.203,0.708,0.528,0.882C4.676,22.961,4.838,23,5,23c0.194,0,0.388-0.057,0.555-0.168l15-10C20.833,12.646,21,12.334,21,12 S20.833,11.354,20.555,11.168z"/>
  </symbol>
  <symbol viewBox="0 0 24 24" id="icon-logout">
    <path d="M17,22H5V2H17V4h2V1a.945.945,0,0,0-1-1H4A.945.945,0,0,0,3,1V23a.945.945,0,0,0,1,1H18a.945.945,0,0,0,1-1V20H17Z"/>
    <polygon points="22 12 15 6 15 11 8 11 8 13 15 13 15 18 22 12"/>
  </symbol>
  <symbol viewBox="0 0 24 24" id="icon-settings">
    <path d="M23,14v-4h-3.262c-0.189-0.732-0.477-1.422-0.852-2.058l2.306-2.306l-2.828-2.828l-2.306,2.306 C15.422,4.739,14.732,4.451,14,4.262V1h-4v3.262C9.268,4.451,8.578,4.739,7.942,5.114L5.636,2.808L2.808,5.636l2.306,2.306 C4.739,8.578,4.451,9.268,4.262,10H1v4h3.262c0.189,0.732,0.477,1.422,0.852,2.058l-2.306,2.306l2.828,2.828l2.306-2.306 c0.635,0.375,1.326,0.663,2.058,0.852V23h4v-3.262c0.732-0.189,1.422-0.477,2.058-0.852l2.306,2.306l2.828-2.828l-2.306-2.306 c0.375-0.635,0.663-1.326,0.852-2.058H23z M12,15c-1.657,0-3-1.343-3-3s1.343-3,3-3s3,1.343,3,3S13.657,15,12,15z"/>
  </symbol>
  <symbol viewBox="0 0 24 24" id="icon-resume">
    <path d="M20.555,11.168l-15-10c-0.307-0.204-0.702-0.224-1.026-0.05C4.203,1.292,4,1.631,4,2v20 c0,0.369,0.203,0.708,0.528,0.882C4.676,22.961,4.838,23,5,23c0.194,0,0.388-0.057,0.555-0.168l15-10C20.833,12.646,21,12.334,21,12 S20.833,11.354,20.555,11.168z"/>
  </symbol>
  <symbol viewBox="0 0 24 24" id="icon-select-install">
    <path d="M23,0H1C0.447,0,0,0.448,0,1v22c0,0.552,0.447,1,1,1h22c0.553,0,1-0.448,1-1V1C24,0.448,23.553,0,23,0z M18,13h-5v5h-2v-5H6v-2h5V6h2v5h5V13z"/>
  </symbol>
  <symbol viewBox="0 0 24 24" id="icon-activate">
    <path d="M2,12l2-2l4,3c0,0,4.4-5.5,13-8l1,2c0,0-9.4,4.4-14,13L2,12z"/>
  </symbol>
  <symbol viewBox="0 0 24 24" id="icon-pause">
    <path d="M7,1H2A1,1,0,0,0,1,2V22a1,1,0,0,0,1,1H7a1,1,0,0,0,1-1V2A1,1,0,0,0,7,1Z"/>
    <path d="M22,1H17a1,1,0,0,0-1,1V22a1,1,0,0,0,1,1h5a1,1,0,0,0,1-1V2A1,1,0,0,0,22,1Z"/>
  </symbol>
  <symbol viewBox="0 0 24 24" id="icon-drag-handle">
    <rect x="1" y="1" width="4" height="4"/>
    <rect x="7" y="1" width="4" height="4"/>
    <rect x="13" y="1" width="4" height="4"/>
    <rect x="19" y="1" width="4" height="4"/>
    <rect x="1" y="7" width="4" height="4"/>
    <rect x="7" y="7" width="4" height="4"/>
    <rect x="13" y="7" width="4" height="4"/>
    <rect x="19" y="7" width="4" height="4"/>
    <rect x="1" y="13" width="4" height="4"/>
    <rect x="7" y="13" width="4" height="4"/>
    <rect x="13" y="13" width="4" height="4"/>
    <rect x="19" y="13" width="4" height="4"/>
    <rect x="1" y="19" width="4" height="4"/>
    <rect x="7" y="19" width="4" height="4"/>
    <rect x="13" y="19" width="4" height="4"/>
    <rect x="19" y="19" width="4" height="4"/>
  </symbol>
  <symbol viewBox="0 0 1792 1792" id="icon-bug">
    <path d="M1696 960q0 26-19 45t-45 19h-224q0 171-67 290l208 209q19 19 19 45t-19 45q-18 19-45 19t-45-19l-198-197q-5 5-15 13t-42 28.5-65 36.5-82 29-97 13v-896h-128v896q-51 0-101.5-13.5t-87-33-66-39-43.5-32.5l-15-14-183 207q-20 21-48 21-24 0-43-16-19-18-20.5-44.5t15.5-46.5l202-227q-58-114-58-274h-224q-26 0-45-19t-19-45 19-45 45-19h224v-294l-173-173q-19-19-19-45t19-45 45-19 45 19l173 173h844l173-173q19-19 45-19t45 19 19 45-19 45l-173 173v294h224q26 0 45 19t19 45zm-480-576h-640q0-133 93.5-226.5t226.5-93.5 226.5 93.5 93.5 226.5z"/>
  </symbol>
  <symbol viewBox="0 0 24 24" id="icon-browse">
    <path d="M23.805,8.406C23.616,8.15,23.317,8,23,8h-2V5c0-0.552-0.447-1-1-1h-9.465L8.832,1.445 C8.646,1.167,8.334,1,8,1H1C0.447,1,0,1.448,0,2v19.978c-0.002,0.074,0.005,0.148,0.02,0.22c0.029,0.145,0.09,0.279,0.174,0.395 c0.087,0.118,0.199,0.217,0.333,0.289c0.099,0.053,0.208,0.091,0.323,0.108C0.9,22.997,0.95,23,1,23c0.008,0,0.016,0,0.023,0H19 c0.439,0,0.827-0.286,0.956-0.706l4-13C24.049,8.991,23.993,8.661,23.805,8.406z M2,3h5.465l1.703,2.555C9.354,5.833,9.666,6,10,6h9 v2H5C4.561,8,4.173,8.286,4.044,8.706L2,15.35V3z"/>
  </symbol>
  <symbol viewBox="0 0 24 24" id="icon-user">
    <path d="M12,0C5.383,0,0,5.383,0,12s5.383,12,12,12s12-5.383,12-12S18.617,0,12,0z M8,10c0-2.209,1.844-4,4-4 s4,1.791,4,4v1c0,2.209-1.844,4-4,4s-4-1.791-4-4V10z M12,22c-2.433,0-4.665-0.876-6.401-2.326C6.438,18.091,8.083,17,10,17h4 c1.917,0,3.562,1.091,4.401,2.674C16.665,21.124,14.433,22,12,22z"/>
  </symbol>
  <symbol viewBox="0 0 24 24" id="icon-deploy">
    <path d="M11.864 16.378a3.914 3.914 0 0 1-1.124 2.468l-2 2a3.956 3.956 0 0 1-5.586 0 3.954 3.954 0 0 1 0-5.586l2-2a3.916 3.916 0 0 1 2.468-1.124l1.816-1.816c-1.974-.51-4.155-.017-5.698 1.527l-2 2a5.956 5.956 0 0 0 0 8.414C2.9 23.42 4.424 24 5.947 24s3.047-.58 4.207-1.74l2-2c1.543-1.543 2.036-3.724 1.527-5.698l-1.817 1.816z"/>
    <path d="M16.378 11.864a3.914 3.914 0 0 0 2.468-1.124l2-2a3.956 3.956 0 0 0 0-5.586 3.954 3.954 0 0 0-5.586 0l-2 2a3.916 3.916 0 0 0-1.124 2.468L10.32 9.438c-.51-1.974-.017-4.155 1.527-5.698l2-2a5.956 5.956 0 0 1 8.414 0C23.42 2.9 24 4.424 24 5.947s-.58 3.047-1.74 4.207l-2 2c-1.543 1.543-3.724 2.036-5.698 1.527l1.816-1.817z"/>
    <path d="M7.586 15l7.413-7.414L16.414 9 9 16.415z"/>
  </symbol>
  <symbol viewBox="0 0 24 24" id="icon-link">
    <path d="M11.864 16.378a3.914 3.914 0 0 1-1.124 2.468l-2 2a3.956 3.956 0 0 1-5.586 0 3.954 3.954 0 0 1 0-5.586l2-2a3.916 3.916 0 0 1 2.468-1.124l1.816-1.816c-1.974-.51-4.155-.017-5.698 1.527l-2 2a5.956 5.956 0 0 0 0 8.414C2.9 23.42 4.424 24 5.947 24s3.047-.58 4.207-1.74l2-2c1.543-1.543 2.036-3.724 1.527-5.698l-1.817 1.816z"/>
    <path d="M16.378 11.864a3.914 3.914 0 0 0 2.468-1.124l2-2a3.956 3.956 0 0 0 0-5.586 3.954 3.954 0 0 0-5.586 0l-2 2a3.916 3.916 0 0 0-1.124 2.468L10.32 9.438c-.51-1.974-.017-4.155 1.527-5.698l2-2a5.956 5.956 0 0 1 8.414 0C23.42 2.9 24 4.424 24 5.947s-.58 3.047-1.74 4.207l-2 2c-1.543 1.543-3.724 2.036-5.698 1.527l1.816-1.817z"/>
    <path d="M7.586 15l7.413-7.414L16.414 9 9 16.415z"/>
  </symbol>
  <symbol viewBox="0 0 24 24" id="icon-stop">
    <path d="M22,1H2C1.447,1,1,1.447,1,2v20c0,0.553,0.447,1,1,1h20c0.553,0,1-0.447,1-1V2C23,1.447,22.553,1,22,1z"/>
  </symbol>
  <symbol viewBox="0 0 24 24" id="icon-purge">
    <path d="M11.864 16.378a3.914 3.914 0 0 1-1.124 2.468l-2 2a3.956 3.956 0 0 1-5.586 0 3.954 3.954 0 0 1 0-5.586l2-2a3.916 3.916 0 0 1 2.468-1.124l1.816-1.816c-1.974-.51-4.155-.017-5.698 1.527l-2 2a5.956 5.956 0 0 0 0 8.414C2.9 23.42 4.424 24 5.947 24s3.047-.58 4.207-1.74l2-2c1.543-1.543 2.036-3.724 1.527-5.698l-1.817 1.816z"/>
    <path d="M16.378 11.864a3.914 3.914 0 0 0 2.468-1.124l2-2a3.956 3.956 0 0 0 0-5.586 3.954 3.954 0 0 0-5.586 0l-2 2a3.916 3.916 0 0 0-1.124 2.468L10.32 9.438c-.51-1.974-.017-4.155 1.527-5.698l2-2a5.956 5.956 0 0 1 8.414 0C23.42 2.9 24 4.424 24 5.947s-.58 3.047-1.74 4.207l-2 2c-1.543 1.543-3.724 2.036-5.698 1.527l1.816-1.817z"/>
    <path d="M7.586 15l7.413-7.414L16.414 9 9 16.415z"/>
    <path d="M18.658 17.447l.895-1.789 3.789 1.895-.895 1.789z"/>
    <path d="M15.658 19.553l1.79-.895 1.894 3.79-1.79.894z"/>
    <path d="M4.658 1.553l1.79-.895 1.894 3.79-1.79.894z"/>
    <path d="M.658 6.447l.895-1.789 3.789 1.895-.895 1.789z"/>
  </symbol>
  <symbol viewBox="0 0 1792 1792" id="icon-delete">
    <path d="M704 1376v-704q0-14-9-23t-23-9h-64q-14 0-23 9t-9 23v704q0 14 9 23t23 9h64q14 0 23-9t9-23zm256 0v-704q0-14-9-23t-23-9h-64q-14 0-23 9t-9 23v704q0 14 9 23t23 9h64q14 0 23-9t9-23zm256 0v-704q0-14-9-23t-23-9h-64q-14 0-23 9t-9 23v704q0 14 9 23t23 9h64q14 0 23-9t9-23zm-544-992h448l-48-117q-7-9-17-11h-317q-10 2-17 11zm928 32v64q0 14-9 23t-23 9h-96v948q0 83-47 143.5t-113 60.5h-832q-66 0-113-58.5t-47-141.5v-952h-96q-14 0-23-9t-9-23v-64q0-14 9-23t23-9h309l70-167q15-37 54-63t79-26h320q40 0 79 26t54 63l70 167h309q14 0 23 9t9 23z"/>
  </symbol>
  <symbol viewBox="0 0 24 24" id="icon-extensions">
    <path d="M23,0H1C0.448,0,0,0.448,0,1v22c0,0.552,0.448,1,1,1h22c0.552,0,1-0.448,1-1V1C24,0.448,23.552,0,23,0z M14,4h6v6h-6V4z M10,18H8v2H6v-2H4v-2h2v-2h2v2h2V18z M7,10c-1.654,0-3-1.346-3-3s1.346-3,3-3s3,1.346,3,3S8.654,10,7,10z M13,20 l4-6l4,6H13z"/>
  </symbol>
  <symbol viewBox="0 0 24 24" id="icon-feedback">
    <path d="M12.5,17.9C12.3,18,12.2,18,12,18s-0.3,0-0.5-0.1L0,11.7V23c0,0.6,0.4,1,1,1h22c0.6,0,1-0.4,1-1V11.7 L12.5,17.9z"/>
    <path d="M6,12.6L6,12.6L6,12.6V2h12v6v4.6l5.1-2.8L20,7.5V1c0-0.6-0.4-1-1-1H5C4.4,0,4,0.4,4,1v6.6L0.9,9.9L6,12.6z"/>
    <rect x="8" y="5" width="8" height="2"/>
    <rect x="8" y="9" width="8" height="2"/>
  </symbol>
  <symbol viewBox="0 0 24 24" id="icon-clone">
    <path d="M22,7h-3v11c0,0.552-0.448,1-1,1H7v3c0,0.552,0.448,1,1,1h14c0.552,0,1-0.448,1-1V8 C23,7.448,22.552,7,22,7z"/>
    <path d="M16,17H2c-0.553,0-1-0.447-1-1V2c0-0.552,0.447-1,1-1h14c0.553,0,1,0.448,1,1v14C17,16.553,16.553,17,16,17z "/>
  </symbol>
  <symbol viewBox="0 0 24 24" id="icon-open-ext">
    <path d="M23,4H12.5L9.8,0.4C9.6,0.1,9.3,0,9,0H1C0.4,0,0,0.4,0,1v22c0,0.6,0.4,1,1,1h22c0.6,0,1-0.4,1-1V5 C24,4.4,23.6,4,23,4z"/>
  </symbol>
  <symbol viewBox="0 0 24 24" id="icon-pane-left">
    <polygon points="11.5,1 2.7,12 11.5,23 22.1,23 13.3,12 22.1,1 "/>
  </symbol>
  <symbol viewBox="0 0 24 24" id="icon-pane-right">
    <polygon points="1.9,1 10.7,12 1.9,23 12.5,23 21.3,12 12.5,1 "/>
  </symbol>
  <symbol viewBox="0 0 24 24" id="icon-import">
    <path d="M24,1c0-0.552-0.448-1-1-1H1C0.448,0,0,0.448,0,1c0,0.552,0.448,1,1,1h22 C23.552,2,24,1.552,24,1z"/>
    <path d="M5,15l7,9l7-9h-6V7c0-0.553-0.447-1-1-1s-1,0.447-1,1v8H5z"/>
  </symbol>
  <symbol viewBox="0 0 64 64" id="icon-dashboard">
    <path d="M25.064,14.309c0,0,1.27,16.948,2.276,19.515c1.006,2.567,3.912,3.837,6.479,2.831 s3.837-3.912,2.831-6.479C35.645,27.609,25.064,14.309,25.064,14.309z"/>
    <path d="M32,15c0.552,0,1-0.448,1-1v-4c0-0.552-0.448-1-1-1s-1,0.448-1,1v4 C31,14.552,31.448,15,32,15z"/>
    <path d="M46.849,15.737l-2.828,2.828c-0.391,0.391-0.391,1.023,0,1.414 c0.195,0.195,0.451,0.293,0.707,0.293s0.512-0.098,0.707-0.293l2.828-2.828c0.391-0.391,0.391-1.023,0-1.414 S47.24,15.346,46.849,15.737z"/>
    <path d="M54,31h-4c-0.552,0-1,0.448-1,1s0.448,1,1,1h4c0.552,0,1-0.448,1-1S54.552,31,54,31z"/>
    <path d="M17.151,15.737c-0.391-0.391-1.023-0.391-1.414,0s-0.391,1.023,0,1.414l2.828,2.828 c0.195,0.195,0.451,0.293,0.707,0.293s0.512-0.098,0.707-0.293c0.391-0.391,0.391-1.023,0-1.414L17.151,15.737z"/>
    <path d="M14,31h-4c-0.552,0-1,0.448-1,1s0.448,1,1,1h4c0.552,0,1-0.448,1-1S14.552,31,14,31z"/>
    <path d="M32,1C14.906,1,1,14.907,1,32s13.906,31,31,31s31-13.907,31-31S49.094,1,32,1z M5.165,43 C3.773,39.607,3,35.895,3,32C3,15.984,15.984,3,32,3c16.016,0,29,12.984,29,29c0,3.895-0.773,7.607-2.165,11H5.165z"/>
  </symbol>
  <symbol viewBox="0 0 24 24" id="icon-open-in-browser">
    <path d="M12.4,8.2a.518.518,0,0,0-.8,0l-4.5,6a.5.5,0,0,0,.4.8H11v8a1,1,0,0,0,2,0V15h3.5a.5.5,0,0,0,.4-.8Z"/>
    <path d="M21,0H3A3,3,0,0,0,0,3V16a3,3,0,0,0,3,3H7V17H3a1,1,0,0,1-1-1V6H22V16a1,1,0,0,1-1,1H17v2h4a3,3,0,0,0,3-3V3A3,3,0,0,0,21,0Z"/>
  </symbol>
  <symbol viewBox="0 0 24 24" id="icon-refresh">
    <path d="M21,12c0,4.963-4.037,9-9,9s-9-4.037-9-9s4.037-9,9-9c1.989,0,3.873,0.65,5.43,1.833l-3.604,3.393 l9.167,0.983L22.562,0l-3.655,3.442C16.957,1.862,14.545,1,12,1C5.935,1,1,5.935,1,12s4.935,11,11,11s11-4.935,11-11H21z"/>
  </symbol>
  <symbol viewBox="0 0 24 24" id="icon-edit">
    <path d="M12.6,5L1.3,16.3C1.1,16.5,1,16.7,1,17v5c0,0.6,0.4,1,1,1h5c0.3,0,0.5-0.1,0.7-0.3L19,11.4L12.6,5z"/>
    <path d="M22.7,6.3l-5-5c-0.4-0.4-1-0.4-1.4,0L14,3.6l6.4,6.4l2.3-2.3C23.1,7.3,23.1,6.7,22.7,6.3z"/>
  </symbol>
  <symbol viewBox="0 0 24 24" id="icon-folder-download">
    <path d="M23,5H12.5l-3-4H1A1,1,0,0,0,0,2V20a3,3,0,0,0,3,3H21a3,3,0,0,0,3-3V6A1,1,0,0,0,23,5ZM12.707,19.707a1,1,0,0,1-1.414,0L6.586,15,8,13.586l3,3V9h2v7.586l3-3L17.414,15Z"/>
  </symbol>
  <symbol viewBox="0 0 24 24" id="icon-install">
    <path d="M23,0H1C0.447,0,0,0.448,0,1v22c0,0.552,0.447,1,1,1h22c0.553,0,1-0.448,1-1V1C24,0.448,23.553,0,23,0z M18,13h-5v5h-2v-5H6v-2h5V6h2v5h5V13z"/>
  </symbol>
  <symbol viewBox="0 0 24 24" id="icon-start-install">
    <path d="M23,0H1C0.447,0,0,0.448,0,1v22c0,0.552,0.447,1,1,1h22c0.553,0,1-0.448,1-1V1C24,0.448,23.553,0,23,0z M18,13h-5v5h-2v-5H6v-2h5V6h2v5h5V13z"/>
  </symbol>
  <symbol viewBox="0 0 1792 1792" id="icon-categories">
    <path d="M576 448q0-53-37.5-90.5t-90.5-37.5-90.5 37.5-37.5 90.5 37.5 90.5 90.5 37.5 90.5-37.5 37.5-90.5zm1067 576q0 53-37 90l-491 492q-39 37-91 37-53 0-90-37l-715-716q-38-37-64.5-101t-26.5-117v-416q0-52 38-90t90-38h416q53 0 117 26.5t102 64.5l715 714q37 39 37 91z"/>
  </symbol>
  <symbol viewBox="0 0 24 24" id="icon-deselect">
    <path d="M23,0H1C0.447,0,0,0.448,0,1v22c0,0.552,0.447,1,1,1h22c0.553,0,1-0.448,1-1V1C24,0.448,23.553,0,23,0z M18,13H6v-2h12V13z"/>
  </symbol>
  <symbol viewBox="0 0 24 24" id="icon-riffle">
    <path d="M23,10H1c-0.6,0-1,0.4-1,1v2c0,0.6,0.4,1,1,1h22c0.6,0,1-0.4,1-1v-2C24,10.4,23.6,10,23,10z"/>
    <path d="M23,2H1C0.4,2,0,2.4,0,3v2c0,0.6,0.4,1,1,1h22c0.6,0,1-0.4,1-1V3C24,2.4,23.6,2,23,2z"/>
    <path d="M23,18H1c-0.6,0-1,0.4-1,1v2c0,0.6,0.4,1,1,1h22c0.6,0,1-0.4,1-1v-2C24,18.4,23.6,18,23,18z"/>
  </symbol>
  <symbol viewBox="0 0 24 24" id="icon-placeholder-image">
    <path d="M23,0H1C0.448,0,0,0.448,0,1v22c0,0.552,0.448,1,1,1h22c0.552,0,1-0.448,1-1V1C24,0.448,23.552,0,23,0z M22,22H2V2h20V22z"/>
    <path d="M5,20h14c0.364,0,0.698-0.197,0.875-0.515s0.166-0.707-0.026-1.015l-5-8 c-0.156-0.25-0.415-0.418-0.706-0.46c-0.291-0.043-0.586,0.047-0.807,0.242l-9,8c-0.31,0.276-0.417,0.715-0.27,1.103S4.585,20,5,20z "/>
    <circle cx="7" cy="7" r="2"/>
  </symbol>
  <symbol viewBox="0 0 1792 1792" id="icon-loot-sort">
    <path d="M736 1440q0 12-10 24l-319 319q-10 9-23 9-12 0-23-9l-320-320q-15-16-7-35 8-20 30-20h192v-1376q0-14 9-23t23-9h192q14 0 23 9t9 23v1376h192q14 0 23 9t9 23zm1056 128v192q0 14-9 23t-23 9h-832q-14 0-23-9t-9-23v-192q0-14 9-23t23-9h832q14 0 23 9t9 23zm-192-512v192q0 14-9 23t-23 9h-640q-14 0-23-9t-9-23v-192q0-14 9-23t23-9h640q14 0 23 9t9 23zm-192-512v192q0 14-9 23t-23 9h-448q-14 0-23-9t-9-23v-192q0-14 9-23t23-9h448q14 0 23 9t9 23zm-192-512v192q0 14-9 23t-23 9h-256q-14 0-23-9t-9-23v-192q0-14 9-23t23-9h256q14 0 23 9t9 23z"/>
  </symbol>
  <symbol viewBox="0 0 24 24" id="icon-locked">
    <path d="M20,8h-2V6c0-3.309-2.691-6-6-6S6,2.691,6,6v2H4C3.448,8,3,8.448,3,9v14c0,0.552,0.448,1,1,1h16 c0.552,0,1-0.448,1-1V9C21,8.448,20.552,8,20,8z M13,17.816L13,20h-2l0-2.184C9.839,17.402,9,16.302,9,15c0-1.654,1.346-3,3-3 s3,1.346,3,3C15,16.302,14.162,17.402,13,17.816z M16,8H8V6c0-2.206,1.794-4,4-4s4,1.794,4,4V8z"/>
  </symbol>
  <symbol viewBox="0 0 24 24" id="icon-highlight-conflict">
    <path d="M19.882,7.528C19.708,7.203,19.369,7,19,7h-4.674l1.636-5.725c0.086-0.302,0.026-0.626-0.163-0.877 S15.314,0,15,0H8C7.549,0,7.154,0.302,7.035,0.737l-3,11c-0.082,0.301-0.019,0.623,0.17,0.87C4.395,12.854,4.688,13,5,13h4.802 l-1.786,9.821c-0.085,0.466,0.169,0.928,0.609,1.106C8.748,23.977,8.875,24,9,24c0.327,0,0.643-0.16,0.833-0.445l10-15 C20.037,8.248,20.056,7.854,19.882,7.528z"/>
  </symbol>
  <symbol viewBox="0 0 24 24" id="icon-unlocked">
    <path d="M20,8H8V6c0-2.206,1.794-4,4-4s4,1.794,4,4h2c0-3.309-2.691-6-6-6S6,2.691,6,6v2H4C3.448,8,3,8.448,3,9v14 c0,0.552,0.448,1,1,1h16c0.552,0,1-0.448,1-1V9C21,8.448,20.552,8,20,8z M13,17.816V20h-2v-2.184C9.839,17.402,9,16.302,9,15 c0-1.654,1.346-3,3-3s3,1.346,3,3C15,16.302,14.161,17.402,13,17.816z"/>
  </symbol>
  <symbol viewBox="0 0 24 24" id="icon-highlight-shield">
    <path d="M22,4c-3.157,0-6.865-1.111-9.445-2.832c-0.336-0.225-0.773-0.225-1.109,0C8.865,2.889,5.157,4,2,4 C1.448,4,1,4.447,1,5c0,8.374,3.965,15.073,10.606,17.919C11.732,22.973,11.866,23,12,23s0.268-0.027,0.394-0.081 C19.035,20.073,23,13.374,23,5C23,4.447,22.552,4,22,4z M12,20.905V12H4.141C3.491,10.16,3.107,8.133,3.02,5.967 C6.074,5.772,9.442,4.732,12,3.185V12h7.859C18.429,16.045,15.709,19.186,12,20.905z"/>
  </symbol>
  <symbol viewBox="0 0 24 24" id="icon-bookmark">
    <path d="M21,1c0-0.552-0.448-1-1-1H4C3.448,0,3,0.448,3,1v23l9-5.821L21,24V1z"/>
  </symbol>
  <symbol viewBox="0 0 24 24" id="icon-checkbox-unchecked">
    <path d="M20,23H4a3,3,0,0,1-3-3V4A3,3,0,0,1,4,1H20a3,3,0,0,1,3,3V20A3,3,0,0,1,20,23ZM4,3A1,1,0,0,0,3,4V20a1,1,0,0,0,1,1H20a1,1,0,0,0,1-1V4a1,1,0,0,0-1-1Z"/>
  </symbol>
  <symbol viewBox="0 0 24 24" id="icon-highlight-temple">
    <path d="M23,22v-9h1v-2H0v2h1v9H0v2h24v-2H23z M21,22h-3v-9h3V22z M13,13h3v9h-3V13z M11,22H8v-9h3V22z M3,13h3v9H3 V13z"/>
    <path d="M13,3.1V1c0-0.6-0.4-1-1-1c-0.6,0-1,0.4-1,1v2.1C7.5,3.4,4.7,5.8,3.5,9h16.9 C19.3,5.8,16.5,3.4,13,3.1z"/>
  </symbol>
  <symbol viewBox="0 0 24 24" id="icon-highlight-lab">
    <path d="M15,11.678V4h2V0H7V4H9v7.673L4.007,19.367A3,3,0,0,0,6.523,24H17.475a3,3,0,0,0,2.517-4.634Z"/>
  </symbol>
  <symbol viewBox="0 0 24 24" id="icon-checkbox-checked">
    <path d="M20,1H4A3,3,0,0,0,1,4V20a3,3,0,0,0,3,3H20a3,3,0,0,0,3-3V4A3,3,0,0,0,20,1ZM18.707,7.707l-9,9a1,1,0,0,1-1.414,0l-3-3a1,1,0,0,1,1.414-1.414L9,14.586l8.293-8.293a1,1,0,1,1,1.414,1.414Z"/>
  </symbol>
  <symbol viewBox="0 0 24 24" id="icon-highlight-home">
    <path d="M12,0.648L0.327,11.26l1.346,1.48L3,11.534V22c0,0.553,0.448,1,1,1h6v-6h4v6h6c0.552,0,1-0.447,1-1V11.534 l1.327,1.207l1.346-1.48L12,0.648z M14,13h-4V9h4V13z"/>
  </symbol>
  <symbol viewBox="0 0 16 16" id="icon-connection">
    <rect x="6" width="4" height="4"/>
    <rect x="12" y="12" width="4" height="4"/>
    <rect y="12" width="4" height="4"/>
    <rect x="5" y="13" width="6" height="2"/>
    <path d="M3,9h10v2h2V8c0-0.6-0.4-1-1-1H9V5H7v2H2C1.4,7,1,7.4,1,8v3h2V9z"/>
  </symbol>
  <symbol viewBox="0 0 24 24" id="icon-highlight-person">
    <path d="M21.543,17.56L17.274,15c-1.41,1.241-3.253,2-5.274,2s-3.864-0.759-5.274-2l-4.269,2.56 C1.558,18.099,1,19.084,1,20.132V24h22v-3.868C23,19.084,22.442,18.099,21.543,17.56z"/>
    <path d="M12,15L12,15c-3.314,0-6-2.686-6-6V6c0-3.314,2.686-6,6-6h0c3.314,0,6,2.686,6,6v3 C18,12.314,15.314,15,12,15z"/>
  </symbol>
  <symbol viewBox="0 0 24 24" id="icon-highlight-flag">
    <path d="M3,1c0-0.552-0.447-1-1-1S1,0.448,1,1v22c0,0.552,0.447,1,1,1s1-0.448,1-1V1z"/>
    <path d="M20,12l3-7h-7V2c0-0.552-0.448-1-1-1H6C5.448,1,5,1.448,5,2v12c0,0.552,0.448,1,1,1h7l-4.941,3.294 C8.186,18.7,8.552,19,9,19h14L20,12z"/>
  </symbol>
  <symbol viewBox="0 0 24 24" id="icon-highlight-patch">
    <path d="M1.756,12.829l-0.879,0.879c-1.17,1.169-1.17,3.073,0,4.242l5.172,5.172 C6.616,23.688,7.369,24,8.17,24s1.555-0.312,2.121-0.878l0.879-0.879L1.756,12.829z"/>
    <path d="M23.123,6.021L17.951,0.85c-1.133-1.133-3.109-1.133-4.242,0L12.83,1.729l9.414,9.414 l0.879-0.879C24.292,9.094,24.292,7.191,23.123,6.021z"/>
    <path d="M11.429,3.157l-8.258,8.258l9.414,9.414l8.258-8.258L11.429,3.157z M9,13c-0.552,0-1-0.448-1-1 c0-0.552,0.448-1,1-1s1,0.448,1,1C10,12.552,9.552,13,9,13z M12,16c-0.552,0-1-0.448-1-1c0-0.552,0.448-1,1-1s1,0.448,1,1 C13,15.552,12.552,16,12,16z M12,10c-0.552,0-1-0.448-1-1c0-0.552,0.448-1,1-1s1,0.448,1,1C13,9.552,12.552,10,12,10z M15,13 c-0.552,0-1-0.448-1-1c0-0.552,0.448-1,1-1s1,0.448,1,1C16,12.552,15.552,13,15,13z"/>
  </symbol>
  <symbol viewBox="0 0 24 24" id="icon-highlight-visuals">
    <path d="M20.4,6.1c-1.1-0.5-2.2-0.8-3.4-0.8c-1.6,0-3,0.5-4.3,0.9c-0.8,0.3-1.6,0.5-2.2,0.5c-0.4,0-0.6-0.1-0.7-0.3 c0-0.1,0.1-0.6,0.2-0.9c0.3-0.9,0.6-2-0.2-3.1c-0.5-0.6-1.3-1-2.2-1c-0.9,0-1.7,0.3-2.5,0.8C1.9,4.4,0,8.1,0,12c0,6.6,5.4,12,12,12 c5.3,0,10.1-3.6,11.6-8.8C23.7,14.6,25.1,8.4,20.4,6.1z M3,12c0-1.1,0.9-2,2-2s2,0.9,2,2s-0.9,2-2,2S3,13.1,3,12z M7.5,19 c-1.1,0-2-0.9-2-2s0.9-2,2-2s2,0.9,2,2S8.6,19,7.5,19z M13,21c-1.1,0-2-0.9-2-2s0.9-2,2-2s2,0.9,2,2S14.1,21,13,21z M17,15 c-1.7,0-3-1.3-3-3s1.3-3,3-3s3,1.3,3,3S18.7,15,17,15z"/>
  </symbol>
  <symbol viewBox="0 0 24 24" id="icon-highlight-map">
    <polygon points="17,1.382 13,3.382 13,22.618 17,20.618 "/>
    <polygon points="11,3.382 7,1.382 7,20.618 11,22.618 "/>
    <path d="M5,1.434L0.485,4.143C0.185,4.323,0,4.648,0,5v19l5-3.234V1.434z"/>
    <path d="M23.515,4.143L19,1.434v19.332L24,24V5C24,4.648,23.815,4.323,23.515,4.143z"/>
  </symbol>
  <symbol viewBox="0 0 32 32" id="icon-highlight-tool">
    <path d="M21.913,16.913l-5.7,6.3,6.547,6.547h0a4.242,4.242,0,0,0,6,0h0a4.242,4.242,0,0,0,0-6Z"/>
    <path d="M30.807,11.964,21.541,2.639a5.7,5.7,0,0,0-8.031.032l5.035,5.035L1.979,22.745a3,3,0,0,0-.194,4.238l2.133,2.138A3,3,0,0,0,6.045,30a2.961,2.961,0,0,0,2.1-.863l15.128-16.7,3.53,3.53a1,1,0,0,0,1.414,0l2.588-2.588A1,1,0,0,0,30.807,11.964Z"/>
    <polygon points="12.496 10.496 4 2 1 5 9.351 13.351 12.496 10.496"/>
  </symbol>
  <symbol viewBox="0 0 24 24" id="icon-highlight-ui">
    <path d="M23,1H1C0.448,1,0,1.448,0,2v16c0,0.552,0.448,1,1,1h9v2H6c-0.552,0-1,0.448-1,1s0.448,1,1,1h12 c0.552,0,1-0.448,1-1s-0.448-1-1-1h-4v-2h9c0.552,0,1-0.448,1-1V2C24,1.448,23.552,1,23,1z M22,17H2V3h20V17z"/>
  </symbol>
  <symbol viewBox="0 0 24 24" id="icon-recover">
    <path d="M1.756,12.829l-0.879,0.879c-1.17,1.169-1.17,3.073,0,4.242l5.172,5.172 C6.616,23.688,7.369,24,8.17,24s1.555-0.312,2.121-0.878l0.879-0.879L1.756,12.829z"/>
    <path d="M23.123,6.021L17.951,0.85c-1.133-1.133-3.109-1.133-4.242,0L12.83,1.729l9.414,9.414 l0.879-0.879C24.292,9.094,24.292,7.191,23.123,6.021z"/>
    <path d="M11.429,3.157l-8.258,8.258l9.414,9.414l8.258-8.258L11.429,3.157z M9,13c-0.552,0-1-0.448-1-1 c0-0.552,0.448-1,1-1s1,0.448,1,1C10,12.552,9.552,13,9,13z M12,16c-0.552,0-1-0.448-1-1c0-0.552,0.448-1,1-1s1,0.448,1,1 C13,15.552,12.552,16,12,16z M12,10c-0.552,0-1-0.448-1-1c0-0.552,0.448-1,1-1s1,0.448,1,1C13,9.552,12.552,10,12,10z M15,13 c-0.552,0-1-0.448-1-1c0-0.552,0.448-1,1-1s1,0.448,1,1C16,12.552,15.552,13,15,13z"/>
  </symbol>
  <symbol viewBox="0 0 24 24" id="icon-workaround">
    <path d="M1.756,12.829l-0.879,0.879c-1.17,1.169-1.17,3.073,0,4.242l5.172,5.172 C6.616,23.688,7.369,24,8.17,24s1.555-0.312,2.121-0.878l0.879-0.879L1.756,12.829z"/>
    <path d="M23.123,6.021L17.951,0.85c-1.133-1.133-3.109-1.133-4.242,0L12.83,1.729l9.414,9.414 l0.879-0.879C24.292,9.094,24.292,7.191,23.123,6.021z"/>
    <path d="M11.429,3.157l-8.258,8.258l9.414,9.414l8.258-8.258L11.429,3.157z M9,13c-0.552,0-1-0.448-1-1 c0-0.552,0.448-1,1-1s1,0.448,1,1C10,12.552,9.552,13,9,13z M12,16c-0.552,0-1-0.448-1-1c0-0.552,0.448-1,1-1s1,0.448,1,1 C13,15.552,12.552,16,12,16z M12,10c-0.552,0-1-0.448-1-1c0-0.552,0.448-1,1-1s1,0.448,1,1C13,9.552,12.552,10,12,10z M15,13 c-0.552,0-1-0.448-1-1c0-0.552,0.448-1,1-1s1,0.448,1,1C16,12.552,15.552,13,15,13z"/>
  </symbol>
  <symbol viewBox="0 0 24 24" id="icon-transfer">
    <path d="M23,8h-2V7c0-2.206-1.794-4-4-4h-1V1h1c3.309,0,6,2.691,6,6V8z"/>
    <path d="M8,23H7c-3.309,0-6-2.691-6-6v-1h2v1c0,2.206,1.794,4,4,4h1V23z"/>
    <path d="M8,10c0-1.105,0.895-2,2-2h4V1c0-0.552-0.448-1-1-1H1C0.448,0,0,0.448,0,1v12c0,0.552,0.448,1,1,1h7V10z"/>
    <path d="M23,10H11c-0.553,0-1,0.448-1,1v12c0,0.552,0.447,1,1,1h12c0.553,0,1-0.448,1-1V11 C24,10.448,23.553,10,23,10z"/>
  </symbol>
  <symbol viewBox="0 0 1792 1792" id="icon-filter">
    <path d="M1595 295q17 41-14 70l-493 493v742q0 42-39 59-13 5-25 5-27 0-45-19l-256-256q-19-19-19-45v-486l-493-493q-31-29-14-70 17-39 59-39h1280q42 0 59 39z"/>
  </symbol>
  <symbol viewBox="0 0 24 24" id="icon-expand-all">
    <polygon points="8 1 1 1 1 8 3.8 5.2 7.3 8.7 8.7 7.3 5.2 3.8 8 1"/>
    <polygon points="23 8 23 1 16 1 18.8 3.8 15.3 7.3 16.7 8.7 20.2 5.2 23 8"/>
    <polygon points="16 23 23 23 23 16 20.2 18.8 16.7 15.3 15.3 16.7 18.8 20.2 16 23"/>
    <polygon points="1 16 1 23 8 23 5.2 20.2 8.7 16.7 7.3 15.3 3.8 18.8 1 16"/>
    <path d="M12,16a4,4,0,1,1,4-4A4.012,4.012,0,0,1,12,16Z"/>
  </symbol>
  <symbol viewBox="0 0 24 24" id="icon-collapse-all">
    <circle cx="12" cy="12" r="4"/>
    <polygon points="1,8 8,8 8,1 5.207,3.793 1.707,0.293 0.293,1.707 3.793,5.207 "/>
    <polygon points="20.207,5.207 23.707,1.707 22.293,0.293 18.793,3.793 16,1 16,8 23,8 "/>
    <polygon points="3.793,18.793 0.293,22.293 1.707,23.707 5.207,20.207 8,23 8,16 1,16 "/>
    <polygon points="23,16 16,16 16,23 18.793,20.207 22.293,23.707 23.707,22.293 20.207,18.793 "/>
  </symbol>
  <symbol viewBox="0 0 24 24" id="icon-changelog">
    <path d="M1,1v22c0,0.552,0.448,1,1,1h20c0.552,0,1-0.448,1-1V1c0-0.552-0.448-1-1-1H2C1.448,0,1,0.448,1,1z M12,18H5 v-2h7V18z M19,13H5v-2h14V13z M19,8H5V6h14V8z"/>
  </symbol>
  <symbol viewBox="0 0 24 24" id="icon-swap">
    <path d="M22.707,6.293L17,0.586L15.586,2l4,4H2C1.448,6,1,6.447,1,7s0.448,1,1,1h17.586l-4,4L17,13.414l5.707-5.707 C23.098,7.316,23.098,6.684,22.707,6.293z"/>
    <path d="M1.293,16.293L7,10.586L8.414,12l-4,4H22c0.552,0,1,0.447,1,1s-0.448,1-1,1H4.414l4,4 L7,23.414l-5.707-5.707C0.902,17.316,0.902,16.684,1.293,16.293z"/>
  </symbol>
  <symbol viewBox="0 0 1792 1792" id="icon-download-speed">
    <path d="M384 1152q0-53-37.5-90.5t-90.5-37.5-90.5 37.5-37.5 90.5 37.5 90.5 90.5 37.5 90.5-37.5 37.5-90.5zm192-448q0-53-37.5-90.5t-90.5-37.5-90.5 37.5-37.5 90.5 37.5 90.5 90.5 37.5 90.5-37.5 37.5-90.5zm428 481l101-382q6-26-7.5-48.5t-38.5-29.5-48 6.5-30 39.5l-101 382q-60 5-107 43.5t-63 98.5q-20 77 20 146t117 89 146-20 89-117q16-60-6-117t-72-91zm660-33q0-53-37.5-90.5t-90.5-37.5-90.5 37.5-37.5 90.5 37.5 90.5 90.5 37.5 90.5-37.5 37.5-90.5zm-640-640q0-53-37.5-90.5t-90.5-37.5-90.5 37.5-37.5 90.5 37.5 90.5 90.5 37.5 90.5-37.5 37.5-90.5zm448 192q0-53-37.5-90.5t-90.5-37.5-90.5 37.5-37.5 90.5 37.5 90.5 90.5 37.5 90.5-37.5 37.5-90.5zm320 448q0 261-141 483-19 29-54 29h-1402q-35 0-54-29-141-221-141-483 0-182 71-348t191-286 286-191 348-71 348 71 286 191 191 286 71 348z"/>
  </symbol>
  <symbol viewBox="0 0 24 24" id="icon-parse-failed">
    <path d="M12,1C5.9,1,1,5.9,1,12s4.9,11,11,11s11-4.9,11-11S18.1,1,12,1z M5,12c0-3.9,3.1-7,7-7 c1.2,0,2.3,0.3,3.3,0.8l-9.5,9.5C5.3,14.3,5,13.2,5,12z M12,19c-1.2,0-2.3-0.3-3.3-0.8l9.5-9.5c0.5,1,0.8,2.1,0.8,3.3 C19,15.9,15.9,19,12,19z"/>
  </symbol>
  <symbol viewBox="0 0 24 24" id="icon-sad">
    <path d="M12,0A12,12,0,1,0,24,12,12,12,0,0,0,12,0Zm4.5,9A1.5,1.5,0,1,1,15,10.5,1.5,1.5,0,0,1,16.5,9ZM6,10.5A1.5,1.5,0,1,1,7.5,12,1.5,1.5,0,0,1,6,10.5Zm7.333,6.009A2,2,0,0,0,10,18H8a4,4,0,0,1,6.667-2.981ZM17,19a2,2,0,0,1-2-2c0-1.105,2-4,2-4s2,2.895,2,4A2,2,0,0,1,17,19Z"/>
  </symbol>
  <symbol viewBox="0 0 32 32" id="icon-executable">
    <path d="M3,29v2c0,0.6,0.4,1,1,1h24c0.6,0,1-0.4,1-1v-2H3z"/>
    <path d="M31,13h-2V9h-8c-0.6,0-1-0.4-1-1V0H4C3.4,0,3,0.4,3,1v12H1c-0.6,0-1,0.4-1,1v12c0,0.6,0.4,1,1,1h30 c0.6,0,1-0.4,1-1V14C32,13.4,31.6,13,31,13z M12.7,18.5h-1.8v0.9h1.7v1.2h-1.7v1.1h1.8V23H9.3v-5.7h3.4V18.5z M17.1,23L16,21.2 L14.9,23h-1.7l1.9-2.9l-1.8-2.8h1.7l1,1.8l1-1.8h1.8l-1.8,2.9l1.9,2.8H17.1z M22.9,18.5h-1.8v0.9h1.7v1.2h-1.7v1.1h1.8V23h-3.4v-5.7 h3.4V18.5z"/>
    <polygon points="22,1.6 22,7 27.4,7 "/>
  </symbol>
  <symbol viewBox="0 0 24 24" id="icon-folder-add">
    <path d="M23,5H12.5l-3-4H1A1,1,0,0,0,0,2V20a3,3,0,0,0,3,3H21a3,3,0,0,0,3-3V6A1,1,0,0,0,23,5ZM16,15H13v3H11V15H8V13h3V10h2v3h3Z"/>
  </symbol>
  <symbol viewBox="0 0 24 24" id="icon-auto-update">
    <path d="M19.872,10.076C19.189,6.045,15.666,3,11.5,3c-4.304,0-7.877,3.196-8.419,7.396C1.236,11.161,0,12.963,0,15 c0,2.757,2.243,5,5,5h14c2.757,0,5-2.243,5-5C24,12.54,22.215,10.49,19.872,10.076z M12,17l-5-5h4V8h2v4h4L12,17z"/>
  </symbol>
  <symbol viewBox="0 0 24 24" id="icon-showhide-up">
    <path d="M22.412,16.809L12,9.236L1.588,16.809l-1.177-1.617l11-8c0.351-0.256,0.826-0.256,1.177,0l11,8 L22.412,16.809z"/>
  </symbol>
  <symbol viewBox="0 0 24 24" id="icon-showhide-left">
    <path d="M15.191,23.588l-8-11c-0.255-0.351-0.255-0.825,0-1.176l8-11l1.617,1.176L9.236,12l7.572,10.412 L15.191,23.588z"/>
  </symbol>
  <symbol viewBox="0 0 24 24" id="icon-groups">
    <path d="M11,8V6H5V1c0-0.552-0.448-1-1-1S3,0.448,3,1v18c0,0.552,0.448,1,1,1h7v-2H5V8H11z"/>
    <path d="M20,12h-6c-0.552,0-1-0.448-1-1V3c0-0.552,0.448-1,1-1h4c0.265,0,0.52,0.105,0.707,0.293l2,2 C20.895,4.48,21,4.735,21,5v6C21,11.552,20.552,12,20,12z"/>
    <path d="M20,24h-6c-0.552,0-1-0.447-1-1v-8c0-0.553,0.448-1,1-1h4c0.265,0,0.52,0.105,0.707,0.293l2,2 C20.895,16.48,21,16.734,21,17v6C21,23.553,20.552,24,20,24z"/>
  </symbol>
  <symbol viewBox="0 0 24 24" id="icon-author">
    <path d="M21.548,16.562l-4.708-2.837c1.221-1.437,1.993-3.474,2.136-5.899c0.226-3.831-2.569-7.492-6.394-7.802 C8.461-0.311,5,2.948,5,7c0,2.789,0.803,5.128,2.16,6.726L2.456,16.56C1.552,17.104,1,18.082,1,19.137V23c0,0.552,0.448,1,1,1h20 c0.552,0,1-0.448,1-1v-3.867C23,18.081,22.449,17.105,21.548,16.562z M7.05,8.032c0.315,0.041,0.628,0.073,0.935,0.073 c1.842,0,3.586-0.618,5-1.757c1.144,0.92,2.508,1.494,3.964,1.682C16.634,11.591,14.691,14,12,14C9.31,14,7.366,11.592,7.05,8.032z M18,20h-5v-2h5V20z"/>
  </symbol>
  <symbol viewBox="0 0 24 24" id="icon-completed">
    <path d="M2,12l2-2l4,3c0,0,4.4-5.5,13-8l1,2c0,0-9.4,4.4-14,13L2,12z"/>
  </symbol>
  <symbol viewBox="0 0 24 24" id="icon-attention-required">
    <path d="M22.885,21.534l-10-19c-0.346-0.657-1.424-0.657-1.77,0l-10,19c-0.163,0.31-0.152,0.683,0.028,0.982 C1.325,22.817,1.649,23,2,23h20c0.351,0,0.675-0.183,0.856-0.483C23.037,22.217,23.048,21.844,22.885,21.534z M12,20 c-0.552,0-1-0.448-1-1c0-0.552,0.448-1,1-1s1,0.448,1,1C13,19.552,12.552,20,12,20z M13,16h-2V9h2V16z"/>
  </symbol>
  <symbol viewBox="0 0 24 24" id="icon-showhide-down">
    <path d="M12,17c-0.207,0-0.413-0.063-0.588-0.191l-11-8l1.177-1.617L12,14.764l10.412-7.572l1.177,1.617l-11,8 C12.413,16.937,12.207,17,12,17z"/>
  </symbol>
  <symbol viewBox="0 0 32 32" id="icon-menu">
    <g class="nc-interact_dots-close-o-32" transform="rotate(90 16 16)">
      <g class="nc-dot_left">
        <circle cx="6" cy="16" r="1" data-cap="butt" data-stroke="none"/>
        <circle cx="6" cy="16" r="1" stroke-linecap="round" stroke-linejoin="round" stroke-width="2"/>
      </g>
      <g class="nc-dot_right">
        <circle cx="26" cy="16" r="1" data-cap="butt" data-stroke="none"/>
        <circle cx="26" cy="16" r="1" stroke-linecap="round" stroke-linejoin="round" stroke-width="2"/>
      </g>
      <g class="nc-dot_center">
        <circle cx="16" cy="16" r="1" data-cap="butt" data-stroke="none"/>
        <circle cx="16" cy="16" r="1" stroke-linecap="round" stroke-linejoin="round" stroke-width="2"/>
      </g>
      <path class="nc-line_top-right" data-cap="none" stroke-linecap="round" stroke-linejoin="round" stroke-width="2" d="M16 16L27 5" stroke-dasharray="15.56 15.56" stroke-dashoffset="15.56" opacity="0"/>
      <path class="nc-line_bottom-left" data-cap="none" stroke-linecap="round" stroke-linejoin="round" stroke-width="2" d="M5 27l11-11" stroke-dasharray="15.56 15.56" stroke-dashoffset="15.56" opacity="0"/>
      <path class="nc-line_bottom-right" data-cap="none" stroke-linecap="round" stroke-linejoin="round" stroke-width="2" d="M16 16l11 11" stroke-dasharray="15.56 15.56" stroke-dashoffset="15.56" opacity="0"/>
      <path class="nc-line_top-left" data-cap="none" stroke-linecap="round" stroke-linejoin="round" stroke-width="2" d="M5 5l11 11" stroke-dasharray="15.56 15.56" stroke-dashoffset="15.56" opacity="0"/>
    </g>
  </symbol>
  <symbol viewBox="0 0 32 32" id="icon-game-menu">
    <g class="nc-interact_dots-close-o-32" transform="rotate(90 16 16)">
      <g class="nc-dot_left">
        <circle cx="6" cy="16" r="1" data-cap="butt" data-stroke="none"/>
        <circle cx="6" cy="16" r="1" stroke-linecap="round" stroke-linejoin="round" stroke-width="2"/>
      </g>
      <g class="nc-dot_right">
        <circle cx="26" cy="16" r="1" data-cap="butt" data-stroke="none"/>
        <circle cx="26" cy="16" r="1" stroke-linecap="round" stroke-linejoin="round" stroke-width="2"/>
      </g>
      <g class="nc-dot_center">
        <circle cx="16" cy="16" r="1" data-cap="butt" data-stroke="none"/>
        <circle cx="16" cy="16" r="1" stroke-linecap="round" stroke-linejoin="round" stroke-width="2"/>
      </g>
      <path class="nc-line_top-right" data-cap="none" stroke-linecap="round" stroke-linejoin="round" stroke-width="2" d="M16 16L27 5" stroke-dasharray="15.56 15.56" stroke-dashoffset="15.56" opacity="0"/>
      <path class="nc-line_bottom-left" data-cap="none" stroke-linecap="round" stroke-linejoin="round" stroke-width="2" d="M5 27l11-11" stroke-dasharray="15.56 15.56" stroke-dashoffset="15.56" opacity="0"/>
      <path class="nc-line_bottom-right" data-cap="none" stroke-linecap="round" stroke-linejoin="round" stroke-width="2" d="M16 16l11 11" stroke-dasharray="15.56 15.56" stroke-dashoffset="15.56" opacity="0"/>
      <path class="nc-line_top-left" data-cap="none" stroke-linecap="round" stroke-linejoin="round" stroke-width="2" d="M5 5l11 11" stroke-dasharray="15.56 15.56" stroke-dashoffset="15.56" opacity="0"/>
    </g>
  </symbol>
  <symbol viewBox="0 0 24 24" id="icon-in-progress">
    <circle cx="12" cy="13" r="2"/>
    <circle cx="3" cy="13" r="2"/>
    <circle cx="21" cy="13" r="2"/>
  </symbol>
  <symbol viewBox="0 0 24 24" id="icon-launch">
    <polygon points="24,0 13,0 17.793,4.793 11.293,11.293 12.707,12.707 19.207,6.207 24,11 "/>
    <path d="M19,24H1c-0.553,0-1-0.447-1-1V5c0-0.553,0.447-1,1-1h9v2H2v16h16v-8h2v9C20,23.553,19.553,24,19,24z"/>
  </symbol>
  <symbol viewBox="0 0 24 24" id="icon-showhide-right">
    <path d="M8.809,23.588l-1.617-1.176L14.764,12L7.191,1.588l1.617-1.176l8,11c0.255,0.351,0.255,0.825,0,1.176 L8.809,23.588z"/>
  </symbol>
  <symbol viewBox="0 0 24 24" id="icon-nav-forward">
    <path d="M10,22l13.7-10L10,2v6H2C1.4,8,1,8.4,1,9v6c0,0.6,0.4,1,1,1h8V22z"/>
  </symbol>
  <symbol viewBox="0 0 24 24" id="icon-milestone">
    <path d="M18,0c-2.9,0-5,2.6-5,6c0,1.2,0.2,2,0.4,2.9C13.7,9.9,14,11,14,13c0,0.6,0.4,1,1,1h6c0.5,0,0.9-0.3,1-0.8 c0-0.2,1-4.2,1-7.2C23,2.6,20.9,0,18,0z"/>
    <path d="M6,2C3.1,2,1,4.6,1,8c0,3.1,1,7.1,1,7.2C2.1,15.7,2.5,16,3,16h6c0.6,0,1-0.4,1-1c0-2,0.3-3.1,0.6-4.1 C10.8,10,11,9.2,11,8C11,4.6,8.9,2,6,2z"/>
    <path d="M9.3,18H2.7c-0.4,0-0.8,0.3-0.9,0.7h0c-0.2,0.8-0.2,1.7,0.1,2.5C2.7,23,4.3,24,6,24 c1.6,0,3.1-0.9,3.8-2.4c0.4-0.9,0.5-1.9,0.3-2.9h0C10.1,18.3,9.7,18,9.3,18z"/>
    <path d="M21.3,16h-6.6c-0.4,0-0.8,0.3-0.9,0.7h0c-0.2,0.8-0.2,1.7,0.1,2.5c0.7,1.7,2.3,2.8,4,2.8 c1.6,0,3.1-0.9,3.8-2.4c0.4-0.9,0.5-1.9,0.3-2.9l0,0C22.1,16.3,21.7,16,21.3,16z"/>
  </symbol>
  <symbol viewBox="0 0 24 24" id="icon-override">
    <polygon points="13,16 11,16 10,1 14,1 "/>
    <circle cx="12" cy="21" r="2"/>
  </symbol>
  <symbol viewBox="0 0 24 24" id="icon-nav-back">
    <path d="M14,16h8c0.6,0,1-0.4,1-1V9c0-0.6-0.4-1-1-1h-8V2L0.3,12L14,22V16z"/>
  </symbol>
  <symbol viewBox="0 0 24 24" id="icon-video">
    <path d="M23,0H1C0.447,0,0,0.447,0,1v22c0,0.553,0.447,1,1,1h22c0.553,0,1-0.447,1-1V1C24,0.447,23.553,0,23,0z M17,2v2h-2V2H17z M13,2v2h-2V2H13z M9,2v2H7V2H9z M7,22v-2h2v2H7z M11,22v-2h2v2H11z M15,22v-2h2v2H15z M22,22h-3v-2h2v-2H3v2h2v2 H2V2h3v2H3v2h18V4h-2V2h3V22z"/>
    <polygon points="9,8 9,16 16,12 "/>
  </symbol>
  <symbol viewBox="0 0 24 24" id="icon-idea">
    <rect y="11" width="3" height="2"/>
    <rect x="3.575" y="3.075" transform="matrix(0.7071 -0.7071 0.7071 0.7071 -1.8951 4.5752)" width="2" height="3"/>
    <rect x="11" width="2" height="3"/>
    <rect x="17.925" y="3.575" transform="matrix(0.7071 -0.7071 0.7071 0.7071 2.4542 15.0755)" width="3" height="2"/>
    <rect x="21" y="11" width="3" height="2"/>
    <path d="M12,5c-3.86,0-7,3.141-7,7c0,2.714,1.581,5.17,4,6.319V23h6v-4.681c2.419-1.148,4-3.604,4-6.319 C19,8.141,15.86,5,12,5z"/>
  </symbol>
  <symbol viewBox="0 0 1792 1792" id="icon-clipboard">
    <path d="M768 1664h896v-640h-416q-40 0-68-28t-28-68v-416h-384v1152zm256-1440v-64q0-13-9.5-22.5t-22.5-9.5h-704q-13 0-22.5 9.5t-9.5 22.5v64q0 13 9.5 22.5t22.5 9.5h704q13 0 22.5-9.5t9.5-22.5zm256 672h299l-299-299v299zm512 128v672q0 40-28 68t-68 28h-960q-40 0-68-28t-28-68v-160h-544q-40 0-68-28t-28-68v-1344q0-40 28-68t68-28h1088q40 0 68 28t28 68v328q21 13 36 28l408 408q28 28 48 76t20 88z"/>
  </symbol>
  <symbol viewBox="0 0 24 24" id="icon-incompatible">
    <path d="M22.885,21.534l-10-19c-0.346-0.657-1.424-0.657-1.77,0l-10,19c-0.163,0.31-0.152,0.683,0.028,0.982 C1.325,22.817,1.649,23,2,23h20c0.351,0,0.675-0.183,0.856-0.483C23.037,22.217,23.048,21.844,22.885,21.534z M12,20 c-0.552,0-1-0.448-1-1c0-0.552,0.448-1,1-1s1,0.448,1,1C13,19.552,12.552,20,12,20z M13,16h-2V9h2V16z"/>
  </symbol>
  <symbol viewBox="0 0 24 24" id="icon-contributor">
    <path d="M10,12L10,12c-2.761,0-5-3.239-5-6V5c0-2.761,2.239-5,5-5h0c2.761,0,5,2.239,5,5v1C15,8.761,12.761,12,10,12 z"/>
    <path d="M12,19c0-2.206,1.794-4,4-4c0.177,0,0.352,0.026,0.528,0.05C14.893,14.534,12.584,14,10,14 c-2.824,0-5.329,0.638-6.974,1.193C1.81,15.604,1,16.749,1,18.032V22h12.382C12.542,21.266,12,20.2,12,19z"/>
    <path d="M21,20c-0.35,0-0.674,0.098-0.961,0.257l-2.042-1.225C17.997,19.021,18,19.011,18,19 s-0.003-0.021-0.003-0.032l2.042-1.225C20.326,17.902,20.65,18,21,18c1.103,0,2-0.897,2-2s-0.897-2-2-2s-2,0.897-2,2 c0,0.011,0.003,0.021,0.003,0.032l-2.042,1.225C16.674,17.098,16.35,17,16,17c-1.103,0-2,0.897-2,2s0.897,2,2,2 c0.35,0,0.674-0.098,0.961-0.257l2.042,1.225C19.003,21.979,19,21.989,19,22c0,1.103,0.897,2,2,2s2-0.897,2-2S22.103,20,21,20z"/>
  </symbol>
  <symbol viewBox="0 0 32 32" id="icon-archive">
    <path d="M31,2H1C0.448,2,0,2.448,0,3v6c0,0.552,0.448,1,1,1h30c0.552,0,1-0.448,1-1V3 C32,2.448,31.552,2,31,2z"/>
    <path d="M3,12v18c0,0.552,0.448,1,1,1h24c0.552,0,1-0.448,1-1V12H3z M20,22h-8v-5h8V22z"/>
  </symbol>
  <symbol viewBox="0 0 24 24" id="icon-smart">
    <path d="M22.106,5.53c-0.58-0.905-1.97-1.827-5.3-1.082c-0.254,0.057-0.515,0.125-0.779,0.199 C15.199,1.912,13.847,0,12,0c-1.706,0-3.113,1.652-4.022,4.656C5.357,3.918,2.929,3.912,1.895,5.53 c-0.58,0.906-0.837,2.555,1.235,5.266C3.435,11.195,3.783,11.597,4.157,12c-0.374,0.403-0.722,0.805-1.027,1.205 c-2.072,2.711-1.815,4.36-1.235,5.266c0.578,0.903,1.641,1.358,3.103,1.358c0.859,0,1.859-0.161,2.977-0.476 C8.763,21.97,10.067,24,12,24c1.847,0,3.199-1.912,4.028-4.648c0.264,0.074,0.524,0.142,0.779,0.199 c1.888,0.423,4.261,0.544,5.299-1.082c0.993-1.55,0.167-3.821-2.286-6.442C21.925,9.781,23.249,7.315,22.106,5.53z M20.422,6.608 c0.441,0.689-0.593,2.86-3.422,5.374c-0.001-1.852-0.168-3.71-0.496-5.391C17.433,6.326,19.903,5.799,20.422,6.608z M7.018,12 c2.147-1.902,4.925-3.652,7.57-4.737c0.533,2.894,0.565,6.403,0,9.474C11.945,15.653,9.167,13.903,7.018,12z M12,2 c0.656,0,1.496,1.21,2.12,3.293C13.427,5.567,12.716,5.891,12,6.252c-0.687-0.345-1.404-0.668-2.13-0.953 C10.586,2.907,11.508,2,12,2z M3.579,6.608c0.43-0.674,2.827-0.657,6.276,0.843c-1.571,0.961-2.964,1.981-4.269,3.15 C4.844,9.795,3,7.51,3.579,6.608z M3.578,17.392c-0.577-0.902,1.264-3.185,2.008-3.993c0.48,0.43,0.992,0.854,1.531,1.269 c0.08,0.907,0.205,1.832,0.382,2.735C5.099,18.09,3.843,17.803,3.578,17.392z M12,22c-0.818,0-2.091-2.042-2.682-5.781 c1.604,1.026,3.245,1.873,4.802,2.488C13.496,20.79,12.656,22,12,22z M20.421,17.392c-0.516,0.812-2.991,0.281-3.917,0.018 c0.17-0.873,0.292-1.795,0.375-2.737c0.512-0.395,1.02-0.814,1.51-1.253C20.354,15.532,20.713,16.937,20.421,17.392z"/>
    <circle cx="12" cy="12" r="1"/>
  </symbol>
  <symbol viewBox="0 0 24 24" id="icon-announcements">
    <path d="M19.525,1.149a1,1,0,0,0-.972-.044L10.764,5H5A5,5,0,0,0,5,15h5.764L18.553,18.9A1,1,0,0,0,20,18V2A1,1,0,0,0,19.525,1.149Z"/>
    <path d="M21,7v6a3,3,0,0,0,0-6Z"/>
    <path d="M10.142,17H5.813l2.334,5.744a2,2,0,0,0,3.708-1.492Z"/>
  </symbol>
  <symbol viewBox="0 0 24 24" id="icon-official">
    <path d="M12,18c-2.252,0-4.326-0.758-6-2.019V24l6-3l6,3v-8.019C16.326,17.242,14.252,18,12,18z"/>
    <circle cx="12" cy="8" r="8"/>
  </symbol>
  <symbol viewBox="0 0 24 24" id="icon-support">
    <path d="M14,19.242c0-0.79-0.46-1.503-1.181-1.826C11.498,16.826,9.249,16,7,16s-4.498,0.826-5.819,1.416 C0.46,17.739,0,18.452,0,19.242V22h14V19.242z"/>
    <path d="M7,15L7,15c-1.7,0-3-1.3-3-3v-1c0-1.7,1.3-3,3-3l0,0c1.7,0,3,1.3,3,3v1C10,13.7,8.7,15,7,15z"/>
    <path d="M12,2v10l4-3h7c0.552,0,1-0.448,1-1V2c0-0.552-0.448-1-1-1H13C12.448,1,12,1.448,12,2z"/>
  </symbol>
  <symbol viewBox="0 0 24 24" id="icon-report">
    <path d="M22,0H2C1.447,0,1,0.448,1,1v22c0,0.552,0.447,1,1,1h20c0.553,0,1-0.448,1-1V1C23,0.448,22.553,0,22,0z M20,21H4V3h3v3h3c0-1.105,0.895-2,2-2s2,0.895,2,2h3V3h3V21z"/>
    <path d="M11,17c-0.256,0-0.512-0.098-0.707-0.293L7.586,14L9,12.586l2,2l4-4L16.414,12l-4.707,4.707 C11.512,16.902,11.256,17,11,17z"/>
  </symbol>
  <symbol viewBox="0 0 24 24" id="icon-extension-render-failed">
    <path d="M23.865,20.5l-11-19a1.04,1.04,0,0,0-1.73,0l-11,19A1,1,0,0,0,1,22H23a1,1,0,0,0,.865-1.5ZM13.206,8l-.473,6.6H11.267L10.821,8ZM12,19a1.467,1.467,0,1,1,1.467-1.467A1.467,1.467,0,0,1,12,19Z"/>
  </symbol>
  <symbol viewBox="0 0 24 24" id="icon-undo">
    <path d="M13,9c-2.74,0-5.342,0.728-7.605,2.065l-2.93-4.209L0,15.656L9.179,16.5L6.54,12.709 C8.468,11.602,10.676,11,13,11c3.55,0,6.937,1.351,9.293,3.707c0.391,0.391,1.023,0.391,1.414,0c0.391-0.391,0.391-1.023,0-1.414 C20.979,10.565,17.076,9,13,9z"/>
  </symbol>
  <symbol viewBox="0 0 24 24" id="icon-merge">
    <path d="M17,13H13.588L8.874,4.515A1,1,0,0,0,8,4H3V6H7.412L11.3,13H1v2H17v5l7-6L17,8Z"/>
  </symbol>
  <symbol viewBox="0 0 24 24" id="icon-tags">
    <path d="M22,12.414,11.586,2H3V0h9a1,1,0,0,1,.707.293L23.414,11Z"/>
    <path d="M20.121,13.707,10.707,4.293A1,1,0,0,0,10,4H2A1,1,0,0,0,1,5v8a1,1,0,0,0,.293.707l9.414,9.414a3,3,0,0,0,4.243,0h0l5.171-5.171a3,3,0,0,0,0-4.243ZM7,12a2,2,0,1,1,2-2A2,2,0,0,1,7,12Z"/>
  </symbol>
  <symbol viewBox="0 0 24 24" id="icon-filter-dependencies">
    <path d="M11,8V6H5V1c0-0.552-0.448-1-1-1S3,0.448,3,1v18c0,0.552,0.448,1,1,1h7v-2H5V8H11z"/>
    <path d="M20,12h-6c-0.552,0-1-0.448-1-1V3c0-0.552,0.448-1,1-1h4c0.265,0,0.52,0.105,0.707,0.293l2,2 C20.895,4.48,21,4.735,21,5v6C21,11.552,20.552,12,20,12z"/>
    <path d="M20,24h-6c-0.552,0-1-0.447-1-1v-8c0-0.553,0.448-1,1-1h4c0.265,0,0.52,0.105,0.707,0.293l2,2 C20.895,16.48,21,16.734,21,17v6C21,23.553,20.552,24,20,24z"/>
  </symbol>
  <symbol viewBox="0 0 24 24" id="icon-disconnected">
    <path d="M13.044 15.198l-3.846 3.846A2.996 2.996 0 0 0 12 21c1.654 0 3-1.346 3-3a2.996 2.996 0 0 0-1.956-2.802z"/>
    <path d="M7.05 13.05A6.956 6.956 0 0 1 12 11c.315 0 .624.028.931.069l1.684-1.684A8.994 8.994 0 0 0 12 9a8.943 8.943 0 0 0-6.364 2.636l-.707.707 1.414 1.414.707-.707z"/>
    <path d="M17.418 10.824l-1.428 1.428c.339.236.662.5.96.798l.707.707 1.414-1.414-.707-.707a9.18 9.18 0 0 0-.946-.812z"/>
    <path d="M2.808 8.808A12.91 12.91 0 0 1 12 5c2.004 0 3.933.464 5.683 1.317l1.491-1.491A14.913 14.913 0 0 0 12 3 14.9 14.9 0 0 0 1.394 7.394l-.707.707 1.414 1.414.707-.707z"/>
    <path d="M21.685 6.557l-1.414 1.414c.318.263.626.541.922.836l.707.707L23.314 8.1l-.707-.707a15.765 15.765 0 0 0-.922-.836z"/>
    <path d="M2.586 20L22 .586 23.414 2 4 21.414z"/>
  </symbol>
  <symbol viewBox="0 0 24 24" id="icon-track">
    <path d="M7.829,6.939A2.582,2.582,0,0,0,8.385,7a2.476,2.476,0,0,0,1.46-.476,2.865,2.865,0,0,0,1.137-2.038A3.139,3.139,0,0,0,8.671,1.061a2.482,2.482,0,0,0-2.016.414A2.865,2.865,0,0,0,5.518,3.513,3.139,3.139,0,0,0,7.829,6.939Z"/>
    <path d="M5.109,10.727a3.144,3.144,0,0,0,.262-2.419A2.969,2.969,0,0,0,1.949,6.075a2.507,2.507,0,0,0-1.558,1.2A3.144,3.144,0,0,0,.129,9.692,3.065,3.065,0,0,0,2.953,12a2.442,2.442,0,0,0,.6-.074A2.507,2.507,0,0,0,5.109,10.727Z"/>
    <path d="M14.155,6.525A2.476,2.476,0,0,0,15.615,7a2.582,2.582,0,0,0,.556-.062,3.139,3.139,0,0,0,2.311-3.426,2.865,2.865,0,0,0-1.137-2.038,2.484,2.484,0,0,0-2.016-.414,3.139,3.139,0,0,0-2.311,3.426A2.865,2.865,0,0,0,14.155,6.525Z"/>
    <path d="M23.609,7.273a2.507,2.507,0,0,0-1.558-1.2,2.963,2.963,0,0,0-3.422,2.233,3.144,3.144,0,0,0,.262,2.419,2.507,2.507,0,0,0,1.558,1.2,2.44,2.44,0,0,0,.6.074,3.066,3.066,0,0,0,2.825-2.307A3.144,3.144,0,0,0,23.609,7.273Z"/>
    <path d="M12,9C8.411,9,4,14.514,4,19a4,4,0,0,0,4,4,4.868,4.868,0,0,0,2.447-.605A2.89,2.89,0,0,1,12,22a2.89,2.89,0,0,1,1.553.395A4.868,4.868,0,0,0,16,23a4,4,0,0,0,4-4C20,14.514,15.589,9,12,9Z"/>
  </symbol>
  <symbol viewBox="0 0 24 24" id="icon-turn-s">
    <path d="M8,21l-7-9h6V4c0-0.552,0.448-1,1-1h15v2H9v7h6L8,21z"/>
  </symbol>
  <symbol viewBox="0 0 24 24" id="icon-history">
    <polygon points="13 0 11 0 11 11 9 11 9 13 11 13 11 24 13 24 13 20 15 20 15 18 13 18 13 6 15 6 15 4 13 4 13 0"/>
    <rect x="16" y="1" width="8" height="8" rx="1" ry="1"/>
    <rect x="16" y="15" width="8" height="8" rx="1" ry="1"/>
    <rect y="8" width="8" height="8" rx="1" ry="1"/>
  </symbol>
  <symbol viewBox="0 0 24 24" id="icon-ghost">
    <path d="M12,0C6.4858398,0,2,4.4858398,2,10v12c0,0.3466797,0.1796875,0.668457,0.4741211,0.8505859 c0.2954102,0.1821289,0.6630859,0.1982422,0.9731445,0.0439453l3.5981445-1.7993164l4.5830078,1.8334961 c0.2392578,0.0947266,0.5039062,0.0947266,0.7431641,0l4.5830078-1.8334961l3.5981445,1.7993164 C20.6938477,22.9648438,20.847168,23,21,23c0.1826172,0,0.3652344-0.050293,0.5258789-0.1494141 C21.8203125,22.668457,22,22.3466797,22,22V10C22,4.4858398,17.5141602,0,12,0z M8,13c-1.1045532,0-2-0.8954468-2-2 c0-1.1046143,0.8954468-2,2-2s2,0.8953857,2,2C10,12.1045532,9.1045532,13,8,13z M16,13c-1.1045532,0-2-0.8954468-2-2 c0-1.1046143,0.8954468-2,2-2s2,0.8953857,2,2C18,12.1045532,17.1045532,13,16,13z"/>
  </symbol>
  <symbol viewBox="0 0 24 24" id="icon-onoff">
    <path d="M17.497,3.47c-0.478-0.276-1.09-0.113-1.366,0.366c-0.276,0.478-0.112,1.09,0.366,1.366 C19.274,6.808,21,9.796,21,13c0,4.963-4.037,9-9,9s-9-4.037-9-9c0-3.203,1.725-6.19,4.501-7.797 c0.478-0.276,0.642-0.888,0.364-1.366C7.59,3.358,6.978,3.193,6.499,3.473C3.107,5.435,1,9.086,1,13c0,6.065,4.935,11,11,11 s11-4.935,11-11C23,9.084,20.892,5.432,17.497,3.47z"/>
    <path d="M12,9c0.553,0,1-0.447,1-1V1c0-0.553-0.447-1-1-1s-1,0.447-1,1v7C11,8.553,11.447,9,12,9z"/>
  </symbol>
  <symbol viewBox="0 0 24 24" id="icon-expand-overlay">
    <path d="M12,17c-0.207,0-0.413-0.063-0.588-0.191l-11-8l1.177-1.617L12,14.764l10.412-7.572l1.177,1.617l-11,8 C12.413,16.937,12.207,17,12,17z"/>
  </symbol>
  <symbol viewBox="0 0 48 48" id="icon-corner-handle">
    <polygon points="44.172 1 1 44.172 1 47 3.828 47 47 3.828 47 1 44.172 1"/>
    <polygon points="37.172 47 42.828 47 47 42.828 47 37.172 37.172 47"/>
    <polygon points="24.172 47 29.828 47 47 29.828 47 24.172 24.172 47"/>
    <polygon points="11.172 47 16.828 47 47 16.828 47 11.172 11.172 47"/>
    <polygon points="10.828 1 5.172 1 1 5.172 1 10.828 10.828 1"/>
    <polygon points="36.828 1 31.172 1 1 31.172 1 36.828 36.828 1"/>
    <polygon points="23.828 1 18.172 1 1 18.172 1 23.828 23.828 1"/>
  </symbol>
  <symbol viewBox="0 0 24 24" id="icon-autosort-disabled">
    <path d="M23,8H1a1,1,0,0,0,0,2H23a1,1,0,0,0,0-2Z"/>
    <path d="M23,2H1A1,1,0,0,0,1,4H23a1,1,0,0,0,0-2Z"/>
    <path d="M11,14H1a1,1,0,0,0,0,2H11a1,1,0,0,0,0-2Z"/>
    <path d="M11,20H1a1,1,0,0,0,0,2H11a1,1,0,0,0,0-2Z"/>
    <polygon points="23.414 15 22 13.586 19 16.586 16 13.586 14.586 15 17.586 18 14.586 21 16 22.414 19 19.414 22 22.414 23.414 21 20.414 18 23.414 15"/>
  </symbol>
  <symbol viewBox="0 0 24 24" id="icon-autosort-enabled">
    <path d="M23,10H1A1,1,0,0,1,1,8H23a1,1,0,0,1,0,2Z"/>
    <path d="M23,4H1A1,1,0,0,1,1,2H23a1,1,0,0,1,0,2Z"/>
    <path d="M9,16H1a1,1,0,0,1,0-2H9a1,1,0,0,1,0,2Z"/>
    <path d="M9,22H1a1,1,0,0,1,0-2H9a1,1,0,0,1,0,2Z"/>
    <polygon points="16 21.414 12.586 18 14 16.586 16 18.586 21 13.586 22.414 15 16 21.414"/>
  </symbol>
  <symbol viewBox="0 0 24 24" id="icon-collapse-overlay">
    <path d="M22,11H2c-0.6,0-1,0.4-1,1s0.4,1,1,1h20c0.6,0,1-0.4,1-1S22.6,11,22,11z"/>
  </symbol>
</svg>