<?xml version="1.0" encoding="UTF-8" standalone="yes"?>
<svg xmlns="http://www.w3.org/2000/svg" style="display: none;">
  <symbol id="icon-arrow-updown" viewBox="0 0 16 16">
    <g>
      <g class="nc-icon-wrapper">
        <polygon fill="currentColor" points="2,6 14,6 8,0 "/>
        <polygon fill="currentColor" points="8,16 14,10 2,10 "/>
      </g>
    </g>
  </symbol>
  <symbol id="icon-filter" viewBox="0 0 16 16">
    <g>
      <g class="nc-icon-wrapper">
        <path d="M15,0H1C0.4,0,0,0.4,0,1v2c0,0.3,0.1,0.6,0.4,0.8L6,8.5V15c0,0.4,0.2,0.8,0.6,0.9C6.7,16,6.9,16,7,16 c0.3,0,0.5-0.1,0.7-0.3l2-2C9.9,13.5,10,13.3,10,13V8.5l5.6-4.7C15.9,3.6,16,3.3,16,3V1C16,0.4,15.6,0,15,0z"/>
      </g>
    </g>
  </symbol>
  <symbol id="icon-layers" viewBox="0 0 24 24">
    <g>
      <g class="nc-icon-wrapper">
        <polygon fill="currentColor" points="12,0 24,7 12,14 0,7 "/>
        <polygon data-color="color-2" points="12,21.315 2.301,15.658 0,17 12,24 24,17 21.699,15.658 "/>
        <polygon data-color="color-2" points="12,16.315 2.301,10.658 0,12 12,19 24,12 21.699,10.658 "/>
      </g>
    </g>
  </symbol>
  <symbol id="icon-up" viewBox="0 0 48 48">
    <g>
      <g class="nc-icon-wrapper">
        <path d="M24.625,7.21924c-0.36523-0.29199-0.88477-0.29199-1.25,0l-20,16C3.1377,23.40869,3,23.69629,3,24v16 c0,0.38428,0.2207,0.73486,0.56641,0.90137C3.91406,41.06689,4.32422,41.021,4.625,40.78076l19.375-15.5l19.375,15.5 C43.55566,40.92529,43.77734,41,44,41c0.14746,0,0.2959-0.03271,0.43359-0.09863C44.7793,40.73486,45,40.38428,45,40V24 c0-0.30371-0.1377-0.59131-0.375-0.78076L24.625,7.21924z"/>
      </g>
    </g>
  </symbol>
  <symbol id="icon-right" viewBox="0 0 48 48">
    <g>
      <g class="nc-icon-wrapper">
        <path d="M24.78076,3.37549C24.59131,3.13818,24.30371,3,24,3H8C7.61572,3,7.26514,3.22021,7.09863,3.56689 C6.93213,3.91309,6.979,4.32471,7.21924,4.62451L22.71924,24l-15.5,19.37549c-0.24023,0.2998-0.28711,0.71143-0.12061,1.05762 C7.26514,44.77979,7.61572,45,8,45h16c0.30371,0,0.59131-0.13818,0.78076-0.37549l16-20c0.29248-0.36523,0.29248-0.88379,0-1.24902 L24.78076,3.37549z"/>
      </g>
    </g>
  </symbol>
  <symbol id="icon-left" viewBox="0 0 48 48">
    <g>
      <g class="nc-icon-wrapper">
        <path d="M40.90137,3.56689C40.73438,3.22021,40.38477,3,40,3H24c-0.30371,0-0.59082,0.13818-0.78125,0.37549l-16,20 c-0.29199,0.36523-0.29199,0.88379,0,1.24902l16,20C23.40918,44.86182,23.69629,45,24,45h16 c0.38477,0,0.73438-0.22021,0.90137-0.56689c0.16602-0.34619,0.12012-0.75781-0.12012-1.05762L25.28027,24L40.78125,4.62451 C41.02148,4.32471,41.06738,3.91309,40.90137,3.56689z"/>
      </g>
    </g>
  </symbol>
  <symbol id="icon-down" viewBox="0 0 48 48">
    <g>
      <g class="nc-icon-wrapper">
        <path d="M44.43359,7.09863C44.08594,6.93359,43.6748,6.979,43.375,7.21924L24,22.71924l-19.375-15.5 C4.32422,6.97803,3.91211,6.93311,3.56641,7.09863C3.2207,7.26514,3,7.61572,3,8v16c0,0.30371,0.1377,0.59131,0.375,0.78076l20,16 C23.55762,40.92676,23.7793,41,24,41s0.44238-0.07324,0.625-0.21924l20-16C44.8623,24.59131,45,24.30371,45,24V8 C45,7.61572,44.7793,7.26514,44.43359,7.09863z"/>
      </g>
    </g>
  </symbol>
  <symbol id="icon-cloud-refresh" viewBox="0 0 64 64">
    <g>
      <g class="nc-icon-wrapper">
        <path d="M52.8,29.1C51.4,18.7,42.6,11,32,11c-9.1,0-17,5.7-19.9,14.3C5.6,26.7,1,32.3,1,39c0,7.3,5.7,13.4,13,14h38 c0,0,0.1,0,0.1,0C58.2,52.4,63,47.2,63,41C63,35.1,58.6,30,52.8,29.1z M20.8,34.1c0-6.2,5-11.2,11.2-11.2c3.3,0,6.3,1.4,8.4,3.7 l0.2-3.1c0-0.6,0.5-1,1-1c0.6,0,1,0.5,1,1l-0.3,6.1c0,0.1,0,0.1-0.1,0.2c0,0,0,0,0,0.1c0,0.1-0.1,0.2-0.2,0.3c0,0,0,0,0,0 c0,0,0,0.1-0.1,0.1c-0.2,0.2-0.4,0.3-0.7,0.3c0,0,0,0,0,0L35,30.3c-0.6,0-1-0.5-1-1s0.5-1,1-1l4.2,0.2c-1.7-2.3-4.4-3.7-7.3-3.7 c-5.1,0-9.2,4.1-9.2,9.2c0,0.6-0.4,1-1,1S20.8,34.6,20.8,34.1z M32,45.7c-3.2,0-6.1-1.3-8.2-3.6l0,3c0,0.6-0.5,1-1,1c0,0,0,0,0,0 c-0.6,0-1-0.5-1-1l0-6.1c0-0.1,0-0.1,0-0.2c0,0,0-0.1,0-0.1c0-0.1,0.1-0.2,0.1-0.2c0,0,0-0.1,0.1-0.1c0.1-0.1,0.2-0.1,0.3-0.2 c0,0,0,0,0,0c0,0,0,0,0,0c0.1,0,0.2-0.1,0.3-0.1c0,0,0.1,0,0.1,0c0,0,0,0,0,0c0,0,0,0,0,0l6.1,0c0.6,0,1,0.5,1,1s-0.5,1-1,1l-4.3,0 c1.7,2.3,4.4,3.7,7.4,3.7c5.1,0,9.2-4.1,9.2-9.2c0-0.6,0.4-1,1-1s1,0.4,1,1C43.2,40.6,38.2,45.7,32,45.7z"/>
      </g>
    </g>
  </symbol>
  <symbol id="icon-square-download" viewBox="0 0 48 48">
    <g>
      <g class="nc-icon-wrapper">
        <path d="M2,35c-0.552,0-1,0.448-1,1v10c0,0.552,0.448,1,1,1h44c0.552,0,1-0.448,1-1V36 c0-0.552-0.448-1-1-1s-1,0.448-1,1v9H3v-9C3,35.448,2.552,35,2,35z"/>
        <path d="M35,23h-9V2c0-0.552-0.447-1-1-1h-2c-0.553,0-1,0.448-1,1v21h-9c-0.383,0-0.732,0.219-0.899,0.563 s-0.123,0.754,0.113,1.055l11,14C23.403,38.859,23.693,39,24,39s0.597-0.141,0.786-0.382l11-14c0.236-0.301,0.28-0.71,0.113-1.055 S35.383,23,35,23z"/>
      </g>
    </g>
  </symbol>
  <symbol id="icon-dots" viewBox="0 0 64 64">
    <g>
      <g class="nc-icon-wrapper">
        <circle cx="32" cy="32" r="6" data-color="color-2"/>
        <circle fill="currentColor" cx="8" cy="32" r="6"/>
        <circle fill="currentColor" cx="56" cy="32" r="6"/>
      </g>
    </g>
  </symbol>
  <symbol id="icon-plus" viewBox="0 0 64 64">
    <g>
      <g class="nc-icon-wrapper">
        <path d="M14,37h13v13c0,0.6,0.4,1,1,1h8c0.6,0,1-0.4,1-1V37h13c0.6,0,1-0.4,1-1v-8c0-0.6-0.4-1-1-1H37V14 c0-0.6-0.4-1-1-1h-8c-0.6,0-1,0.4-1,1v13H14c-0.6,0-1,0.4-1,1v8C13,36.6,13.4,37,14,37z"/>
      </g>
    </g>
  </symbol>
  <symbol id="icon-chain" viewBox="0 0 64 64">
    <g>
      <g class="nc-icon-wrapper">
        <path d="M30.204,39.452c0.879,2.905,0.174,6.191-2.118,8.484l-7.575,7.575c-3.314,3.314-8.707,3.314-12.021,0 s-3.314-8.707,0-12.021l7.575-7.575c1.657-1.657,3.834-2.485,6.011-2.485c0.834,0,1.668,0.124,2.473,0.367l3.066-3.066 c-4.672-2.307-10.494-1.529-14.378,2.356l-7.575,7.575c-4.874,4.874-4.874,12.804,0,17.678c2.437,2.438,5.638,3.655,8.839,3.655 s6.402-1.218,8.839-3.655l7.575-7.575c3.884-3.884,4.662-9.705,2.356-14.377L30.204,39.452z"/>
        <path d="M39.452,30.204c2.905,0.879,6.191,0.174,8.484-2.118l7.575-7.575c3.314-3.314,3.314-8.707,0-12.021 s-8.707-3.314-12.021,0l-7.575,7.575c-1.657,1.657-2.485,3.834-2.485,6.011c0,0.834,0.124,1.668,0.367,2.473l-3.066,3.066 c-2.307-4.672-1.529-10.494,2.356-14.378l7.575-7.575c4.874-4.874,12.804-4.874,17.678,0c2.438,2.437,3.655,5.638,3.655,8.839 s-1.218,6.402-3.655,8.839l-7.575,7.575c-3.884,3.884-9.705,4.662-14.377,2.356L39.452,30.204z"/>
        <path d="M22,44c-0.512,0-1.023-0.195-1.414-0.586c-0.781-0.781-0.781-2.047,0-2.828l20-20 c0.781-0.781,2.047-0.781,2.828,0s0.781,2.047,0,2.828l-20,20C23.023,43.805,22.512,44,22,44z"/>
      </g>
    </g>
  </symbol>
  <symbol id="icon-chain-broken" viewBox="0 0 64 64">
    <g>
      <g class="nc-icon-wrapper">
        <path d="M58.196,41.02l-10-2c-0.545-0.114-1.069,0.242-1.177,0.784 c-0.108,0.542,0.243,1.068,0.784,1.177l10,2C57.87,42.994,57.936,43,58.001,43c0.467,0,0.885-0.328,0.979-0.804 C59.089,41.654,58.738,41.128,58.196,41.02z"/>
        <path d="M39.804,47.02c-0.542,0.108-0.893,0.635-0.784,1.177l2,10C41.114,58.672,41.532,59,41.999,59 c0.065,0,0.131-0.006,0.197-0.02c0.542-0.108,0.893-0.635,0.784-1.177l-2-10C40.873,47.262,40.348,46.906,39.804,47.02z"/>
        <path d="M23.999,17c0.065,0,0.131-0.006,0.197-0.02c0.542-0.108,0.893-0.635,0.784-1.177l-2-10 c-0.108-0.542-0.632-0.897-1.177-0.784c-0.542,0.108-0.893,0.635-0.784,1.177l2,10C23.114,16.672,23.532,17,23.999,17z"/>
        <path d="M5.804,22.98l10,2C15.87,24.994,15.936,25,16.001,25c0.467,0,0.885-0.328,0.979-0.804 c0.108-0.542-0.243-1.068-0.784-1.177l-10-2c-0.544-0.113-1.069,0.242-1.177,0.784C4.911,22.346,5.262,22.872,5.804,22.98z"/>
        <path d="M30.204,39.452c0.879,2.905,0.174,6.191-2.118,8.484l-7.575,7.575c-3.314,3.314-8.707,3.314-12.021,0 s-3.314-8.707,0-12.021l7.575-7.575c1.657-1.657,3.834-2.485,6.011-2.485c0.834,0,1.668,0.124,2.473,0.367l3.066-3.066 c-4.672-2.307-10.494-1.529-14.378,2.356l-7.575,7.575c-4.874,4.874-4.874,12.804,0,17.678c2.437,2.438,5.638,3.655,8.839,3.655 s6.402-1.218,8.839-3.655l7.575-7.575c3.884-3.884,4.662-9.705,2.356-14.377L30.204,39.452z"/>
        <path d="M39.452,30.204c2.905,0.879,6.191,0.174,8.484-2.118l7.575-7.575c3.314-3.314,3.314-8.707,0-12.021 s-8.707-3.314-12.021,0l-7.575,7.575c-1.657,1.657-2.485,3.834-2.485,6.011c0,0.834,0.124,1.668,0.367,2.473l-3.066,3.066 c-2.307-4.672-1.529-10.494,2.356-14.378l7.575-7.575c4.874-4.874,12.804-4.874,17.678,0c2.438,2.437,3.655,5.638,3.655,8.839 s-1.218,6.402-3.655,8.839l-7.575,7.575c-3.884,3.884-9.705,4.662-14.377,2.356L39.452,30.204z"/>
        <path d="M22,44c-0.512,0-1.023-0.195-1.414-0.586c-0.781-0.781-0.781-2.047,0-2.828l20-20 c0.781-0.781,2.047-0.781,2.828,0s0.781,2.047,0,2.828l-20,20C23.024,43.805,22.512,44,22,44z"/>
      </g>
    </g>
  </symbol>
  <symbol id="icon-alert-circle-i" viewBox="0 0 16 16">
    <g>
      <g class="nc-icon-wrapper">
        <path d="M8,0C3.6,0,0,3.6,0,8s3.6,8,8,8s8-3.6,8-8S12.4,0,8,0z M9,12H7V7h2V12z M8,6C7.4,6,7,5.6,7,5s0.4-1,1-1 s1,0.4,1,1S8.6,6,8,6z"/>
      </g>
    </g>
  </symbol>
  <symbol id="icon-play" viewBox="0 0 64 64">
    <g>
      <g class="nc-icon-wrapper">
        <path d="M57.52,31.146l-46-28c-0.308-0.187-0.693-0.192-1.01-0.018C10.195,3.306,10,3.639,10,4v56 c0,0.361,0.195,0.694,0.51,0.872C10.662,60.957,10.831,61,11,61c0.181,0,0.36-0.049,0.52-0.146l46-28C57.818,32.673,58,32.349,58,32 S57.818,31.327,57.52,31.146z"/>
      </g>
    </g>
  </symbol>
  <symbol id="icon-clone" viewBox="0 0 48 48">
    <g>
      <g class="nc-icon-wrapper">
        <path d="M45,13h-8v22c0,1.105-0.895,2-2,2H13v8c0,1.105,0.895,2,2,2h30c1.105,0,2-0.895,2-2V15 C47,13.895,46.105,13,45,13z"/>
        <path d="M33,35H3c-1.105,0-2-0.895-2-2V3c0-1.105,0.895-2,2-2h30c1.105,0,2,0.895,2,2v30C35,34.105,34.105,35,33,35z "/>
      </g>
    </g>
  </symbol>
  <symbol id="icon-cog" viewBox="0 0 64 64">
    <g>
      <g class="nc-icon-wrapper">
        <path d="M62,25h-6.1c-1.2,0-2.2-0.7-2.7-1.8c-0.4-1.1-0.2-2.3,0.6-3.1l4.3-4.3c0.4-0.4,0.4-1,0-1.4l-8.5-8.5 c-0.4-0.4-1-0.4-1.4,0l-4.3,4.3c-0.8,0.8-1.9,1.1-3.2,0.6C39.7,10.3,39,9.3,39,8.1V2c0-0.6-0.4-1-1-1H26c-0.6,0-1,0.4-1,1v6.1 c0,1.2-0.7,2.2-1.8,2.7c-1.1,0.4-2.3,0.2-3.1-0.6l-4.3-4.3c-0.4-0.4-1-0.4-1.4,0l-8.5,8.5c-0.4,0.4-0.4,1,0,1.4l4.3,4.3 c0.8,0.8,1.1,2,0.6,3.2C10.3,24.3,9.3,25,8.1,25H2c-0.6,0-1,0.4-1,1v12c0,0.6,0.4,1,1,1h6.1c1.2,0,2.2,0.7,2.7,1.8 c0.4,1.1,0.2,2.3-0.6,3.1l-4.3,4.3c-0.4,0.4-0.4,1,0,1.4l8.5,8.5c0.4,0.4,1,0.4,1.4,0l4.3-4.3c0.8-0.8,1.9-1.1,3.2-0.6 c1.1,0.4,1.8,1.5,1.8,2.6V62c0,0.6,0.4,1,1,1h12c0.6,0,1-0.4,1-1v-6.1c0-1.2,0.7-2.2,1.8-2.7c1.1-0.4,2.3-0.2,3.1,0.6l4.3,4.3 c0.2,0.2,0.4,0.3,0.7,0.3s0.5-0.1,0.7-0.3l8.5-8.5c0.4-0.4,0.4-1,0-1.4l-4.3-4.3c-0.8-0.8-1.1-2-0.6-3.2c0.4-1.1,1.5-1.8,2.6-1.8H62 c0.6,0,1-0.4,1-1V26C63,25.4,62.6,25,62,25z M32,41c-5,0-9-4-9-9s4-9,9-9s9,4,9,9S37,41,32,41z"/>
      </g>
    </g>
  </symbol>
  <symbol id="icon-edit" viewBox="0 0 64 64">
    <g>
      <g class="nc-icon-wrapper">
        <path d="M52,37c-0.553,0-1,0.447-1,1v23H3V13h23c0.553,0,1-0.447,1-1s-0.447-1-1-1H2 c-0.553,0-1,0.447-1,1v50c0,0.553,0.447,1,1,1h50c0.553,0,1-0.447,1-1V38C53,37.447,52.553,37,52,37z"/>
        <path d="M45.586,9L22.293,32.293c-0.123,0.123-0.212,0.276-0.258,0.444l-3,11c-0.095,0.346,0.004,0.716,0.258,0.97 C19.483,44.897,19.738,45,20,45c0.088,0,0.176-0.012,0.263-0.035l11-3c0.168-0.046,0.321-0.135,0.444-0.258L55,18.414L45.586,9z"/>
        <path d="M61,9.586L54.414,3c-0.781-0.781-2.047-0.781-2.828,0L47,7.586L56.414,17L61,12.414 C61.781,11.633,61.781,10.367,61,9.586z"/>
      </g>
    </g>
  </symbol>
  <symbol id="icon-controller" viewBox="0 0 64 64">
    <g>
      <g class="nc-icon-wrapper">
        <path d="M32,21c-0.552,0-1-0.448-1-1V4c0-0.552,0.448-1,1-1s1,0.448,1,1v16 C33,20.552,32.552,21,32,21z"/>
        <path d="M48.364,25H15.636C7.566,25,1,31.729,1,40s6.566,15,14.636,15c5.701,0,10.625-3.048,13.008-8h6.711 c2.384,4.952,7.308,8,13.008,8C56.434,55,63,48.271,63,40S56.434,25,48.364,25z M22,41h-5v5c0,0.552-0.448,1-1,1s-1-0.448-1-1v-5h-5 c-0.552,0-1-0.448-1-1s0.448-1,1-1h5v-5c0-0.552,0.448-1,1-1s1,0.448,1,1v5h5c0.552,0,1,0.448,1,1S22.552,41,22,41z M46,47 c-1.105,0-2-0.895-2-2c0-1.105,0.895-2,2-2c1.105,0,2,0.895,2,2C48,46.105,47.105,47,46,47z M53,40c-1.105,0-2-0.895-2-2 c0-1.105,0.895-2,2-2c1.105,0,2,0.895,2,2C55,39.105,54.105,40,53,40z"/>
      </g>
    </g>
  </symbol>
  <symbol id="icon-import" viewBox="0 0 64 64">
    <g>
      <g class="nc-icon-wrapper">
        <path d="M31.2,43.6l-12-16c-0.229-0.303-0.263-0.708-0.095-1.047C19.275,26.214,19.621,26,20,26h10V7 c0-0.552,0.448-1,1-1h2c0.552,0,1,0.448,1,1v19h10c0.379,0,0.725,0.214,0.895,0.553C44.965,26.694,45,26.848,45,27 c0,0.212-0.067,0.424-0.2,0.6l-12,16C32.612,43.852,32.315,44,32,44C31.685,44,31.389,43.852,31.2,43.6z"/>
        <path d="M62,6H46c-0.552,0-1,0.448-1,1v0c0,0.552,0.448,1,1,1h15v48H3V8h15c0.552,0,1-0.448,1-1v0 c0-0.552-0.448-1-1-1H2C1.448,6,1,6.448,1,7v50c0,0.552,0.448,1,1,1h60c0.552,0,1-0.448,1-1V7C63,6.448,62.552,6,62,6z"/>
      </g>
    </g>
  </symbol>
  <symbol id="icon-info" viewBox="0 0 64 64">
    <g>
      <g class="nc-icon-wrapper">
        <path d="M39.949,56.922l-0.586,2.5C36.7,60.493,32.824,62,29.949,62c-2.084,0-3.646-0.542-4.688-1.623 c-1.592-1.652-1.766-3.638-1.406-5.885c0.548-3.449,4.218-16.561,5.239-22.017c0.279-1.488,0.637-4.502-0.429-5.572 c-1.352-1.353-5.551-0.465-7.389,0.019l0.586-2.5c2.433-1.092,6.627-2.695,9.293-2.695c2.134,0,3.684,0.508,4.646,1.525 c1.613,1.703,1.559,3.91,1.288,6.022c-0.203,1.567-0.055,0.767-4.62,19.043c-0.636,2.509-1.81,6.931,0.023,8.447 C34.3,58.26,38.881,57.317,39.949,56.922z"/>
        <circle data-color="color-2" cx="38" cy="7" r="5"/>
      </g>
    </g>
  </symbol>
  <symbol id="icon-message" viewBox="0 0 64 64">
    <g>
      <g class="nc-icon-wrapper">
        <path d="M42,15H22c-0.553,0-1-0.447-1-1s0.447-1,1-1h20c0.553,0,1,0.447,1,1S42.553,15,42,15z"/>
        <path d="M42,25H22c-0.553,0-1-0.447-1-1s0.447-1,1-1h20c0.553,0,1,0.447,1,1S42.553,25,42,25z"/>
        <path d="M13,32.3V22V3h38v19v10.3l10.5-5.9l-8.5-5V2c0-0.6-0.4-1-1-1H12c-0.6,0-1,0.4-1,1v19.4l-8.6,5L13,32.3z"/>
        <path d="M32.5,44.9C32.3,45,32.2,45,32,45s-0.3,0-0.5-0.1L1,27.9V61c0,1.105,0.895,2,2,2h58c1.105,0,2-0.895,2-2 V27.9L32.5,44.9z"/>
      </g>
    </g>
  </symbol>
  <symbol id="icon-puzzle" viewBox="0 0 64 64">
    <g>
      <g class="nc-icon-wrapper">
        <path d="M55,25.055V10c0-0.552-0.447-1-1-1H37.944C37.445,4.506,33.625,1,29,1s-8.445,3.506-8.944,8H2 c-0.553,0-1,0.448-1,1v14c0,0.552,0.447,1,1,1c4.963,0,9,4.038,9,9s-4.037,9-9,9c-0.553,0-1,0.448-1,1v18c0,0.552,0.447,1,1,1h17 c0.553,0,1-0.448,1-1c0-4.962,4.037-9,9-9s9,4.038,9,9c0,0.552,0.447,1,1,1h15c0.553,0,1-0.448,1-1V42.945 c4.494-0.499,8-4.32,8-8.945S59.494,25.554,55,25.055z"/>
      </g>
    </g>
  </symbol>
  <symbol id="icon-remove" viewBox="0 0 64 64">
    <g>
      <g class="nc-icon-wrapper">
        <path d="M60,9H43V2c0-0.552-0.447-1-1-1H22c-0.553,0-1,0.448-1,1v7H4c-0.553,0-1,0.448-1,1v4 c0,0.552,0.447,1,1,1h56c0.553,0,1-0.448,1-1v-4C61,9.448,60.553,9,60,9z M23,3h18v6H23V3z"/>
        <path d="M55,17H9v43c0,1.657,1.343,3,3,3h40c1.657,0,3-1.343,3-3V17z M23,50c0,0.552-0.447,1-1,1s-1-0.448-1-1V30 c0-0.552,0.447-1,1-1s1,0.448,1,1V50z M33,50c0,0.552-0.447,1-1,1s-1-0.448-1-1V30c0-0.552,0.447-1,1-1s1,0.448,1,1V50z M43,50 c0,0.552-0.447,1-1,1s-1-0.448-1-1V30c0-0.552,0.447-1,1-1s1,0.448,1,1V50z"/>
      </g>
    </g>
  </symbol>
  <symbol id="icon-save" viewBox="0 0 64 64">
    <g>
      <g class="nc-icon-wrapper">
        <path d="M62.819,21.427l-14-20C48.632,1.159,48.326,1,48,1h-7v18c0,0.552-0.448,1-1,1H12c-0.552,0-1-0.448-1-1V1H3 C1.895,1,1,1.895,1,3v58c0,1.105,0.895,2,2,2h58c1.105,0,2-0.895,2-2V22C63,21.795,62.937,21.595,62.819,21.427z M53,56 c0,0.552-0.448,1-1,1H12c-0.552,0-1-0.448-1-1V36c0-0.552,0.448-1,1-1h40c0.552,0,1,0.448,1,1V56z"/>
        <path d="M42,44H22c-0.552,0-1-0.448-1-1s0.448-1,1-1h20c0.552,0,1,0.448,1,1S42.552,44,42,44z"/>
        <path d="M34,50H22c-0.552,0-1-0.448-1-1s0.448-1,1-1h12c0.552,0,1,0.448,1,1S34.552,50,34,50z"/>
        <path d="M30,16h6c0.552,0,1-0.448,1-1V1h-8v14C29,15.552,29.448,16,30,16z"/>
      </g>
    </g>
  </symbol>
  <symbol id="icon-shapes" viewBox="0 0 64 64">
    <g>
      <g class="nc-icon-wrapper">
        <path d="M61,1H3C1.895,1,1,1.895,1,3v58c0,1.105,0.895,2,2,2h58c1.105,0,2-0.895,2-2V3C63,1.895,62.105,1,61,1z M26,47h-7v7c0,0.552-0.448,1-1,1s-1-0.448-1-1v-7h-7c-0.552,0-1-0.448-1-1s0.448-1,1-1h7v-7c0-0.552,0.448-1,1-1s1,0.448,1,1v7h7 c0.552,0,1,0.448,1,1S26.552,47,26,47z M18,27c-4.962,0-9-4.038-9-9s4.038-9,9-9s9,4.038,9,9S22.962,27,18,27z M37,10 c0-0.552,0.448-1,1-1h16c0.552,0,1,0.448,1,1v16c0,0.552-0.448,1-1,1H38c-0.552,0-1-0.448-1-1V10z M54.02,53 c-0.007,0-0.013,0-0.02,0H38c-0.369,0-0.708-0.203-0.882-0.528c-0.174-0.325-0.155-0.72,0.05-1.026l8-12 c0.371-0.557,1.293-0.557,1.664,0l7.905,11.858c0.175,0.18,0.283,0.426,0.283,0.697C55.02,52.552,54.572,53,54.02,53z"/>
      </g>
    </g>
  </symbol>
  <symbol id="icon-sliders" viewBox="0 0 64 64">
    <g>
      <g class="nc-icon-wrapper">
        <path d="M62,9H31v2h31c0.552,0,1-0.448,1-1S62.552,9,62,9z"/>
        <path d="M26,1H16c-0.552,0-1,0.448-1,1v7H2c-0.552,0-1,0.448-1,1s0.448,1,1,1h13v7c0,0.552,0.448,1,1,1h10 c0.552,0,1-0.448,1-1V2C27,1.448,26.552,1,26,1z"/>
        <path d="M62,53H31v2h31c0.552,0,1-0.448,1-1S62.552,53,62,53z"/>
        <path d="M26,45H16c-0.552,0-1,0.448-1,1v7H2c-0.552,0-1,0.448-1,1s0.448,1,1,1h13v7c0,0.552,0.448,1,1,1h10 c0.552,0,1-0.448,1-1V46C27,45.448,26.552,45,26,45z"/>
        <path d="M2,31h31v2H2c-0.552,0-1-0.448-1-1S1.448,31,2,31z"/>
        <path d="M38,23h10c0.552,0,1,0.448,1,1v7h13c0.552,0,1,0.448,1,1s-0.448,1-1,1H49v7 c0,0.552-0.448,1-1,1H38c-0.552,0-1-0.448-1-1V24C37,23.448,37.448,23,38,23z"/>
      </g>
    </g>
  </symbol>
  <symbol id="icon-grid" viewBox="0 0 64 64">
    <g>
      <g class="nc-icon-wrapper">
        <path d="M14,1H2C1.447,1,1,1.447,1,2v12c0,0.553,0.447,1,1,1h12c0.553,0,1-0.447,1-1V2C15,1.447,14.553,1,14,1z"/>
        <path d="M38,1H26c-0.553,0-1,0.447-1,1v12c0,0.553,0.447,1,1,1h12c0.553,0,1-0.447,1-1V2C39,1.447,38.553,1,38,1z"/>
        <path d="M62,1H50c-0.553,0-1,0.447-1,1v12c0,0.553,0.447,1,1,1h12c0.553,0,1-0.447,1-1V2 C63,1.447,62.553,1,62,1z"/>
        <path d="M14,25H2c-0.553,0-1,0.447-1,1v12c0,0.553,0.447,1,1,1h12c0.553,0,1-0.447,1-1V26C15,25.447,14.553,25,14,25 z"/>
        <path d="M38,25H26c-0.553,0-1,0.447-1,1v12c0,0.553,0.447,1,1,1h12c0.553,0,1-0.447,1-1V26 C39,25.447,38.553,25,38,25z"/>
        <path d="M62,25H50c-0.553,0-1,0.447-1,1v12c0,0.553,0.447,1,1,1h12c0.553,0,1-0.447,1-1V26 C63,25.447,62.553,25,62,25z"/>
        <path d="M14,49H2c-0.553,0-1,0.447-1,1v12c0,0.553,0.447,1,1,1h12c0.553,0,1-0.447,1-1V50 C15,49.447,14.553,49,14,49z"/>
        <path d="M38,49H26c-0.553,0-1,0.447-1,1v12c0,0.553,0.447,1,1,1h12c0.553,0,1-0.447,1-1V50 C39,49.447,38.553,49,38,49z"/>
        <path d="M62,49H50c-0.553,0-1,0.447-1,1v12c0,0.553,0.447,1,1,1h12c0.553,0,1-0.447,1-1V50 C63,49.447,62.553,49,62,49z"/>
      </g>
    </g>
  </symbol>
  <symbol id="icon-wrench" viewBox="0 0 48 48">
    <g>
      <g class="nc-icon-wrapper">
        <path d="M40,14l-6-6l6.175-6.175C38.887,1.296,37.479,1,36,1c-6.075,0-11,4.925-11,11 c0,1.134,0.172,2.228,0.491,3.257L3.799,33.328c-3.506,2.902-3.755,8.192-0.537,11.41h0c3.218,3.218,8.508,2.969,11.41-0.537 l18.071-21.692C33.772,22.828,34.866,23,36,23c6.075,0,11-4.925,11-11c0-1.479-0.296-2.887-0.825-4.175L40,14z M10,41 c-1.657,0-3-1.343-3-3s1.343-3,3-3s3,1.343,3,3S11.657,41,10,41z"/>
      </g>
    </g>
  </symbol>
  <symbol id="icon-file-text" viewBox="0 0 64 64">
    <g>
      <g class="nc-icon-wrapper">
        <polygon data-color="color-2" points="42,2.6 42,16 55.4,16 "/>
        <path d="M57,29V18H41c-0.6,0-1-0.4-1-1V1H8C7.4,1,7,1.4,7,2v27H57z"/>
        <path d="M7,56v6c0,0.6,0.4,1,1,1h48c0.6,0,1-0.4,1-1v-6H7z"/>
        <path d="M61,31H3c-0.6,0-1,0.4-1,1v21c0,0.6,0.4,1,1,1h58c0.6,0,1-0.4,1-1V32C62,31.4,61.6,31,61,31z M27.1,39.4h-2.5V47h-2v-7.6h-2.5v-1.6h7V39.4z M34.1,47l-2.2-3.5L29.8,47h-2.1l3.1-4.8l-2.9-4.5H30l2,3.3l2-3.3h2.1l-2.9,4.6 l3.1,4.7H34.1z M43.9,39.4h-2.5V47h-2v-7.6h-2.5v-1.6h7V39.4z"/>
      </g>
    </g>
  </symbol>
  <symbol id="icon-spinner" viewBox="0 0 64 64">
    <g>
      <g class="nc-icon-wrapper">
        <path d="M32,1c-1.657,0-3,1.343-3,3v10c0,1.657,1.343,3,3,3s3-1.343,3-3V4C35,2.343,33.657,1,32,1z"/>
        <path opacity="0.9" d="M44.728,22.272c0.768,0,1.536-0.293,2.121-0.879l7.071-7.071c1.172-1.171,1.172-3.071,0-4.242 c-1.171-1.172-3.071-1.172-4.242,0l-7.071,7.071c-1.172,1.171-1.172,3.071,0,4.242C43.192,21.979,43.96,22.272,44.728,22.272z"/>
        <path opacity="0.8" d="M60,29H50c-1.657,0-3,1.343-3,3c0,1.657,1.343,3,3,3h10c1.657,0,3-1.343,3-3 C63,30.343,61.657,29,60,29z"/>
        <path opacity="0.7" d="M46.85,42.606c-1.172-1.172-3.072-1.172-4.243,0c-1.172,1.171-1.172,3.07,0,4.242l7.071,7.071 c0.586,0.586,1.354,0.879,2.122,0.879c0.768,0,1.536-0.293,2.121-0.879c1.172-1.171,1.172-3.07,0-4.242L46.85,42.606z"/>
        <path opacity="0.6" d="M32,47c-1.657,0-3,1.343-3,3v10c0,1.657,1.343,3,3,3s3-1.343,3-3V50 C35,48.343,33.657,47,32,47z"/>
        <path opacity="0.5" d="M17.15,42.606l-7.071,7.071c-1.171,1.172-1.171,3.071,0,4.242 c0.585,0.586,1.354,0.879,2.121,0.879s1.536-0.293,2.122-0.879l7.071-7.071c1.171-1.172,1.171-3.071,0-4.242 C20.222,41.435,18.322,41.435,17.15,42.606z"/>
        <path opacity="0.4" d="M17,32c0-1.657-1.343-3-3-3H4c-1.657,0-3,1.343-3,3c0,1.657,1.343,3,3,3h10 C15.657,35,17,33.657,17,32z"/>
        <path opacity="0.3" d="M17.151,21.393c0.585,0.586,1.354,0.879,2.121,0.879s1.536-0.293,2.121-0.879 c1.172-1.171,1.172-3.071,0-4.242l-7.071-7.071c-1.171-1.172-3.071-1.172-4.242,0c-1.172,1.171-1.172,3.071,0,4.242L17.151,21.393z"/>
      </g>
    </g>
  </symbol>
  <symbol id="icon-eye-slash" viewBox="0 0 64 64">
    <g>
      <g class="nc-icon-wrapper">
        <path d="M15.1,44.6l7.3-7.3C21.5,35.8,21,33.9,21,32c0-6.1,4.9-11,11-11c1.9,0,3.8,0.5,5.4,1.4l6.3-6.3 C40.1,14.3,36.2,13,32,13C16.3,13,3.7,30.7,3.2,31.4c-0.2,0.3-0.2,0.8,0,1.2C3.5,33,8.1,39.5,15.1,44.6z"/>
        <path d="M60.8,31.4c-0.3-0.4-4.9-6.9-11.9-12.1l-7.3,7.3c0.9,1.6,1.4,3.4,1.4,5.4c0,6.1-4.9,11-11,11 c-1.9,0-3.8-0.5-5.4-1.4l-6.3,6.3C23.9,49.7,27.8,51,32,51c15.5,0,28.3-17.7,28.8-18.4C61.1,32.2,61.1,31.8,60.8,31.4z"/>
        <path d="M8,57c-0.3,0-0.5-0.1-0.7-0.3c-0.4-0.4-0.4-1,0-1.4l48-48c0.4-0.4,1-0.4,1.4,0s0.4,1,0,1.4 l-48,48C8.5,56.9,8.3,57,8,57z"/>
      </g>
    </g>
  </symbol>
  <symbol id="icon-eye" viewBox="0 0 64 64">
    <g>
      <g class="nc-icon-wrapper">
        <path d="M60.8,31.4C60.3,30.7,47.6,13,32,13C16.3,13,3.7,30.7,3.2,31.4c-0.2,0.3-0.2,0.8,0,1.2 C3.7,33.3,16.4,51,32,51c15.5,0,28.3-17.7,28.8-18.4C61.1,32.2,61.1,31.8,60.8,31.4z M32,43c-6.1,0-11-4.9-11-11s4.9-11,11-11 s11,4.9,11,11S38.1,43,32,43z"/>
      </g>
    </g>
  </symbol>
  <symbol id="icon-refresh" viewBox="0 0 64 64">
    <g>
      <g class="nc-icon-wrapper">
        <path d="M6,32C6,17.664,17.664,6,32,6c6.348,0,12.391,2.285,17.136,6.45l-6.843,6.843 c-0.271,0.271-0.363,0.673-0.238,1.035c0.126,0.362,0.447,0.62,0.828,0.665l17,2C59.922,22.998,59.961,23,60,23 c0.264,0,0.519-0.104,0.707-0.293c0.216-0.216,0.322-0.52,0.286-0.824l-2-17c-0.045-0.381-0.303-0.702-0.665-0.828 c-0.362-0.125-0.765-0.034-1.035,0.238l-5.326,5.326C46.462,4.703,39.412,2,32,2C15.458,2,2,15.458,2,32c0,1.104,0.896,2,2,2 S6,33.104,6,32z"/>
        <path d="M60,30c-1.104,0-2,0.896-2,2c0,14.337-11.664,26-26,26c-6.348,0-12.391-2.285-17.135-6.451l6.842-6.842 c0.271-0.271,0.363-0.673,0.238-1.035c-0.126-0.362-0.447-0.62-0.828-0.665l-17-2c-0.306-0.036-0.608,0.07-0.824,0.286 c-0.216,0.217-0.322,0.52-0.286,0.824l2,17c0.045,0.38,0.303,0.702,0.665,0.827C5.779,59.981,5.89,60,6,60 c0.261,0,0.517-0.103,0.707-0.293l5.326-5.326C17.538,59.297,24.587,62,32,62c16.542,0,30-13.458,30-30C62,30.896,61.104,30,60,30z"/>
      </g>
    </g>
  </symbol>
  <symbol id="icon-folder-open" viewBox="0 0 64 64">
    <g>
      <g class="nc-icon-wrapper">
        <path d="M11.154,22.051C11.562,20.825,12.706,20,14,20h35v-9c0-0.552-0.447-1-1-1H24.414l-5.707-5.707 C18.52,4.105,18.266,4,18,4H2C1.447,4,1,4.448,1,5v47.515L11.154,22.051z"/>
        <path d="M49,60H2c-0.321,0-0.623-0.154-0.812-0.416c-0.188-0.261-0.239-0.596-0.137-0.901l12-36 C13.188,22.275,13.569,22,14,22h47c0.321,0,0.623,0.154,0.812,0.416c0.188,0.261,0.239,0.596,0.137,0.901l-12,36 C49.812,59.725,49.431,60,49,60z"/>
      </g>
    </g>
  </symbol>
  <symbol id="icon-triangle-down" viewBox="0 0 64 64">
    <g>
      <g class="nc-icon-wrapper">
        <path d="M60.893,12.549C60.723,12.212,60.377,12,60,12H4c-0.377,0-0.723,0.212-0.893,0.549 c-0.17,0.337-0.137,0.741,0.088,1.044l28,38C31.384,51.849,31.683,52,32,52s0.616-0.151,0.805-0.407l28-38 C61.029,13.29,61.062,12.886,60.893,12.549z"/>
      </g>
    </g>
  </symbol>
  <symbol id="icon-triangle-up" viewBox="0 0 64 64">
    <g>
      <g class="nc-icon-wrapper">
        <path d="M32.805,12.407c-0.377-0.512-1.232-0.512-1.609,0l-28,38c-0.225,0.304-0.258,0.708-0.088,1.044 C3.277,51.788,3.623,52,4,52h56c0.377,0,0.723-0.212,0.893-0.549c0.17-0.337,0.137-0.741-0.088-1.044L32.805,12.407z"/>
      </g>
    </g>
  </symbol>
  <symbol id="icon-bell" viewBox="0 0 64 64">
    <g>
      <g class="nc-icon-wrapper">
        <path d="M58.8,52.4C58.7,52.3,51,42.7,51,33V22c0-10.5-8.5-19-19-19s-19,8.5-19,19v11c0,9.7-7.7,19.3-7.8,19.4 c-0.2,0.3-0.3,0.7-0.1,1.1C5.3,53.8,5.6,54,6,54h52c0.4,0,0.7-0.2,0.9-0.6C59.1,53.1,59,52.7,58.8,52.4z"/>
        <path d="M25.3,56c0.9,2.9,3.5,5,6.7,5s5.8-2.1,6.7-5H25.3z"/>
      </g>
    </g>
  </symbol>
  <symbol id="icon-user" viewBox="0 0 64 64">
    <g>
      <g class="nc-icon-wrapper">
        <path d="M32,1C14.906,1,1,14.907,1,32s13.906,31,31,31s31-13.907,31-31S49.094,1,32,1z M20,28 c0-6.617,5.383-12,12-12s12,5.383,12,12v3c0,6.617-5.383,12-12,12s-12-5.383-12-12V28z M32,61c-6.701,0-12.873-2.291-17.789-6.122 C17.082,49.99,22.26,47,28,47h8c5.733,0,10.911,2.99,13.788,7.879C44.872,58.71,38.7,61,32,61z"/>
      </g>
    </g>
  </symbol>
  <symbol id="icon-circle-play" viewBox="0 0 64 64">
    <g>
      <g class="nc-icon-wrapper">
        <path d="M32,1C14.906,1,1,14.906,1,32s13.906,31,31,31s31-13.906,31-31S49.094,1,32,1z M45.537,32.844l-22,14 C23.373,46.947,23.187,47,23,47c-0.165,0-0.331-0.041-0.481-0.123C22.199,46.701,22,46.365,22,46V18 c0-0.365,0.199-0.701,0.519-0.877c0.32-0.175,0.709-0.162,1.019,0.033l22,14C45.825,31.34,46,31.658,46,32 S45.825,32.66,45.537,32.844z"/>
      </g>
    </g>
  </symbol>
  <symbol id="icon-file-small" viewBox="0 0 16 16">
    <g>
      <g class="nc-icon-wrapper">
        <path d="M14,0H2C1.4,0,1,0.4,1,1v14c0,0.6,0.4,1,1,1h12c0.6,0,1-0.4,1-1V1C15,0.4,14.6,0,14,0z M8,13H4v-2h4V13z M12,9H4V7h8V9z M12,5H4V3h8V5z"/>
      </g>
    </g>
  </symbol>
  <symbol id="icon-search" viewBox="0 0 64 64">
    <g>
      <g class="nc-icon-wrapper">
        <path d="M61.832,53.347L47.399,38.913C49.683,35.142,51,30.722,51,26C51,12.215,39.785,1,26,1S1,12.215,1,26 s11.215,25,25,25c4.722,0,9.142-1.317,12.914-3.601l14.433,14.433c0.188,0.188,0.441,0.293,0.707,0.293s0.52-0.105,0.707-0.293 l7.071-7.071C62.223,54.37,62.223,53.737,61.832,53.347z M26,49C13.297,49,3,38.703,3,26C3,13.297,13.297,3,26,3s23,10.297,23,23 C49,38.703,38.703,49,26,49z"/>
      </g>
    </g>
  </symbol>
  <symbol id="icon-square-check" viewBox="0 0 1792 1792">
    <g>
      <g class="nc-icon-wrapper">
        <path d="M1472 930v318q0 119-84.5 203.5T1184 1536H352q-119 0-203.5-84.5T64 1248V416q0-119 84.5-203.5T352 128h832q63 0 117 25 15 7 18 23 3 17-9 29l-49 49q-10 10-23 10-3 0-9-2-23-6-45-6H352q-66 0-113 47t-47 113v832q0 66 47 113t113 47h832q66 0 113-47t47-113V994q0-13 9-22l64-64q10-10 23-10 6 0 12 3 20 8 20 29zm231-489l-814 814q-24 24-57 24t-57-24L345 825q-24-24-24-57t24-57l110-110q24-24 57-24t57 24l263 263 647-647q24-24 57-24t57 24l110 110q24 24 24 57t-24 57z"/>
      </g>
    </g>
  </symbol>
  <symbol id="icon-square-empty" viewBox="0 0 1792 1792">
    <g>
      <g class="nc-icon-wrapper">
        <path d="M1312 256H480q-66 0-113 47t-47 113v832q0 66 47 113t113 47h832q66 0 113-47t47-113V416q0-66-47-113t-113-47zm288 160v832q0 119-84.5 203.5T1312 1536H480q-119 0-203.5-84.5T192 1248V416q0-119 84.5-203.5T480 128h832q119 0 203.5 84.5T1600 416z"/>
      </g>
    </g>
  </symbol>
  <symbol id="icon-triangle-alert" viewBox="0 0 64 64">
    <g>
      <g class="nc-icon-wrapper">
        <path d="M62.874,59.514l-30-54c-0.353-0.635-1.396-0.635-1.748,0l-30,54c-0.172,0.31-0.167,0.688,0.012,0.993 C1.318,60.812,1.646,61,2,61h60c0.354,0,0.682-0.188,0.862-0.493C63.042,60.202,63.046,59.824,62.874,59.514z M34.857,24 l-1.429,20.714h-2.857L29.143,24H34.857z M32,55c-1.657,0-3-1.343-3-3s1.343-3,3-3s3,1.343,3,3S33.657,55,32,55z"/>
      </g>
    </g>
  </symbol>
  <symbol id="icon-folder" viewBox="0 0 64 64">
    <g>
      <g class="nc-icon-wrapper">
        <path d="M62,21H14c-0.553,0-1,0.448-1,1v33c0,3.06-2.293,5.581-5.254,5.949C7.829,60.971,7.91,61,8,61h48 c3.859,0,7-3.14,7-7V22C63,21.448,62.553,21,62,21z"/>
        <path d="M52,11H24.5l-5.7-7.6C18.611,3.148,18.315,3,18,3H2C1.448,3,1,3.448,1,4v50 c0,2.761,2.239,5,5,5h0c2.761,0,5-2.239,5-5V22c0-1.657,1.343-3,3-3h39v-7C53,11.448,52.552,11,52,11z"/>
      </g>
    </g>
  </symbol>
  <symbol id="icon-folder-gallery" viewBox="0 0 64 64">
    <g>
      <g class="nc-icon-wrapper">
        <path d="M62,12H30.5l-5.7-7.6C24.611,4.148,24.314,4,24,4H2C1.447,4,1,4.447,1,5v50c0,2.757,2.243,5,5,5h52 c2.757,0,5-2.243,5-5V13C63,12.447,62.553,12,62,12z M30,48c0,0.553-0.447,1-1,1h-9c-0.553,0-1-0.447-1-1v-9c0-0.553,0.447-1,1-1h9 c0.553,0,1,0.447,1,1V48z M30,33c0,0.553-0.447,1-1,1h-9c-0.553,0-1-0.447-1-1v-9c0-0.553,0.447-1,1-1h9c0.553,0,1,0.447,1,1V33z M45,48c0,0.553-0.447,1-1,1h-9c-0.553,0-1-0.447-1-1v-9c0-0.553,0.447-1,1-1h9c0.553,0,1,0.447,1,1V48z M45,33c0,0.553-0.447,1-1,1 h-9c-0.553,0-1-0.447-1-1v-9c0-0.553,0.447-1,1-1h9c0.553,0,1,0.447,1,1V33z"/>
      </g>
    </g>
  </symbol>
  <symbol id="icon-dashboard" viewBox="0 0 64 64">
    <g>
      <g class="nc-icon-wrapper">
        <path d="M27,36H6c-0.552,0-1-0.448-1-1V2c0-0.552,0.448-1,1-1h21c0.552,0,1,0.448,1,1v33C28,35.552,27.552,36,27,36z "/>
        <path d="M27,63H6c-0.552,0-1-0.448-1-1V45c0-0.552,0.448-1,1-1h21c0.552,0,1,0.448,1,1v17 C28,62.552,27.552,63,27,63z"/>
        <path d="M58,20H37c-0.552,0-1-0.448-1-1V2c0-0.552,0.448-1,1-1h21c0.552,0,1,0.448,1,1v17 C59,19.552,58.552,20,58,20z"/>
        <path d="M58,63H37c-0.552,0-1-0.448-1-1V29c0-0.552,0.448-1,1-1h21c0.552,0,1,0.448,1,1v33 C59,62.552,58.552,63,58,63z"/>
      </g>
    </g>
  </symbol>
  <symbol id="icon-list" viewBox="0 0 64 64">
    <g>
      <g class="nc-icon-wrapper">
        <circle data-color="color-2" cx="8" cy="12" r="6"/>
        <circle data-color="color-2" cx="8" cy="32" r="6"/>
        <circle data-color="color-2" cx="8" cy="52" r="6"/>
        <path d="M61,14H21c-0.55228,0-1-0.44771-1-1v-2c0-0.55229,0.44772-1,1-1h40c0.55228,0,1,0.44771,1,1v2 C62,13.55229,61.55228,14,61,14z"/>
        <path d="M61,34H21c-0.55228,0-1-0.44772-1-1v-2c0-0.55228,0.44772-1,1-1h40c0.55228,0,1,0.44772,1,1v2 C62,33.55228,61.55228,34,61,34z"/>
        <path d="M61,54H21c-0.55228,0-1-0.44772-1-1v-2c0-0.55228,0.44772-1,1-1h40c0.55228,0,1,0.44772,1,1v2 C62,53.55228,61.55228,54,61,54z"/>
      </g>
    </g>
  </symbol>
  <symbol id="icon-archive" viewBox="0 0 64 64">
    <g>
      <g class="nc-icon-wrapper">
        <path d="M57,15H7c-1.105,0-2,0.895-2,2v42c0,1.105,0.895,2,2,2h50c1.105,0,2-0.895,2-2V17C59,15.895,58.105,15,57,15 z M43,34c0,0.553-0.448,1-1,1H22c-0.552,0-1-0.447-1-1v-5c0-0.553,0.448-1,1-1s1,0.447,1,1v4h18v-4c0-0.553,0.448-1,1-1s1,0.447,1,1 V34z"/>
        <path d="M52,8H12c-0.552,0-1,0.448-1,1v4h42V9C53,8.448,52.552,8,52,8z"/>
        <path d="M46,3H18c-0.552,0-1,0.448-1,1v2h30V4C47,3.448,46.552,3,46,3z"/>
      </g>
    </g>
  </symbol>
  <symbol id="icon-sitemap" viewBox="0 0 48 48">
    <g>
      <g class="nc-icon-wrapper">
        <path d="M29,35H19c-0.552,0-1,0.447-1,1v10c0,0.553,0.448,1,1,1h10c0.552,0,1-0.447,1-1V36 C30,35.447,29.552,35,29,35z"/>
        <path d="M19,13h10c0.552,0,1-0.447,1-1V2c0-0.553-0.448-1-1-1H19c-0.552,0-1,0.447-1,1v10C18,12.553,18.448,13,19,13 z"/>
        <path d="M46,35H36c-0.552,0-1,0.447-1,1v10c0,0.553,0.448,1,1,1h10c0.552,0,1-0.447,1-1V36 C47,35.447,46.552,35,46,35z"/>
        <path d="M12,35H2c-0.552,0-1,0.447-1,1v10c0,0.553,0.448,1,1,1h10c0.552,0,1-0.447,1-1V36C13,35.447,12.552,35,12,35 z"/>
        <path d="M7,31c0.552,0,1-0.447,1-1v-5h15v5c0,0.553,0.448,1,1,1s1-0.447,1-1v-5h15v5 c0,0.553,0.448,1,1,1s1-0.447,1-1v-6c0-0.553-0.448-1-1-1H25v-5c0-0.553-0.448-1-1-1s-1,0.447-1,1v5H7c-0.552,0-1,0.447-1,1v6 C6,30.553,6.448,31,7,31z"/>
      </g>
    </g>
  </symbol>
  <symbol id="icon-download" viewBox="0 0 64 64">
    <g>
      <g class="nc-icon-wrapper">
        <path d="M62,49c-0.552,0-1,0.448-1,1v11H3V50c0-0.552-0.448-1-1-1s-1,0.448-1,1v12 c0,0.552,0.448,1,1,1h60c0.552,0,1-0.448,1-1V50C63,49.448,62.552,49,62,49z"/>
        <path d="M46,31H34V2c0-0.552-0.448-1-1-1h-2c-0.552,0-1,0.448-1,1v29H18c-0.373,0-0.715,0.208-0.887,0.538 c-0.171,0.332-0.146,0.731,0.068,1.035l14,20C31.367,52.841,31.674,53,32,53s0.632-0.159,0.819-0.427l14-20 C46.939,32.402,47,32.202,47,32c0-0.158-0.038-0.316-0.113-0.462C46.715,31.208,46.373,31,46,31z"/>
      </g>
    </g>
  </symbol>
  <symbol id="icon-square-exclamation" viewBox="0 0 48 48">
    <g>
      <g class="nc-icon-wrapper">
        <path d="M45,1H3C1.895,1,1,1.895,1,3v42c0,1.105,0.895,2,2,2h42c1.105,0,2-0.895,2-2V3C47,1.895,46.105,1,45,1z&#xA;&#x9; M26.286,12l-1.143,16.571h-2.286L21.714,12H26.286z M24,37c-1.657,0-3-1.343-3-3s1.343-3,3-3s3,1.343,3,3S25.657,37,24,37z"/>
      </g>
    </g>
  </symbol>
  <symbol id="icon-check" viewBox="0 0 64 64">
    <g>
      <g class="nc-icon-wrapper">
        <path d="M2,34l6-6l13,8c0,0,16.841-16.75,39-28l2,7c0,0-23.727,13.955-41,41L2,34z"/>
      </g>
    </g>
  </symbol>
  <symbol id="icon-square-info" viewBox="0 0 48 48">
    <g>
      <g class="nc-icon-wrapper">
        <path d="M45,1H3C1.895,1,1,1.895,1,3v42c0,1.105,0.895,2,2,2h42c1.105,0,2-0.895,2-2V3C47,1.895,46.105,1,45,1z M26.5,12c1.381,0,2.5,1.119,2.5,2.5S27.881,17,26.5,17c-1.381,0-2.5-1.119-2.5-2.5S25.119,12,26.5,12z M28.874,34.764 C26.518,35.692,25.83,36,24.317,36c-1.236,0-2.196-0.301-2.881-0.904c-0.685-0.602-1.028-1.367-1.028-2.294 c0-0.818,0.132-1.573,0.324-2.379l1.275-4.511c0.244-0.928,0.744-2.824,0.047-3.491c-0.69-0.658-2.297-0.255-3.268,0.108l0.34-1.39 c1.366-0.556,3.09-1.236,4.562-1.236c2.215,0,3.835,1.107,3.835,3.198c0,0.545-0.101,1.65-0.324,2.394l-1.27,4.495 c-0.159,0.553-0.403,1.714-0.403,2.286c0,0.597,0.133,1.004,0.401,1.22c0.725,0.587,2.442,0.274,3.286-0.124L28.874,34.764z"/>
      </g>
    </g>
  </symbol>
  <symbol id="icon-upload" viewBox="0 0 64 64">
    <g>
      <g class="nc-icon-wrapper">
        <path d="M33,6.414l10.293,10.293C43.488,16.902,43.744,17,44,17s0.512-0.098,0.707-0.293 c0.391-0.391,0.391-1.023,0-1.414l-12-12c-0.391-0.391-1.023-0.391-1.414,0l-12,12c-0.391,0.391-0.391,1.023,0,1.414 s1.023,0.391,1.414,0L31,6.414V29h2V6.414z"/>
        <path d="M60.97,61.757l-8-32C52.859,29.312,52.459,29,52,29H33v17c0,0.552-0.448,1-1,1s-1-0.448-1-1V29H12 c-0.459,0-0.859,0.312-0.97,0.757l-8,32c-0.075,0.299-0.007,0.615,0.182,0.858S3.692,63,4,63h56c0.308,0,0.599-0.142,0.788-0.385 S61.045,62.056,60.97,61.757z"/>
      </g>
    </g>
  </symbol>
  <symbol id="icon-bug" viewBox="0 0 1792 1792">
    <g>
      <g class="nc-icon-wrapper">
        <path d="M1696 960q0 26-19 45t-45 19h-224q0 171-67 290l208 209q19 19 19 45t-19 45q-18 19-45 19t-45-19l-198-197q-5 5-15 13t-42 28.5-65 36.5-82 29-97 13V640H832v896q-51 0-101.5-13.5t-87-33-66-39T534 1418l-15-14-183 207q-20 21-48 21-24 0-43-16-19-18-20.5-44.5T240 1525l202-227q-58-114-58-274H160q-26 0-45-19t-19-45 19-45 45-19h224V602L211 429q-19-19-19-45t19-45 45-19 45 19l173 173h844l173-173q19-19 45-19t45 19 19 45-19 45l-173 173v294h224q26 0 45 19t19 45zm-480-576H576q0-133 93.5-226.5T896 64t226.5 93.5T1216 384z"/>
      </g>
    </g>
  </symbol>
  <symbol id="icon-nexus" viewBox="0 0 256 256">
    <g>
      <metadata id="metadata85">
        <rdf:rdf>
          <cc:work rdf:about="">
            <dc:format>image/svg+xml</dc:format>
            <dc:type rdf:resource="http://purl.org/dc/dcmitype/StillImage"/>
          </cc:work>
        </rdf:rdf>
      </metadata>
      <defs id="defs83"/>
      <sodipodi:namedview pagecolor="#ffffff" bordercolor="#666666" borderopacity="1" objecttolerance="10" gridtolerance="10" guidetolerance="10" inkscape:pageopacity="0" inkscape:pageshadow="2" inkscape:window-width="1920" inkscape:window-height="1027" id="namedview81" showgrid="false" inkscape:zoom="0.99097812" inkscape:cx="-168.02874" inkscape:cy="-110.09247" inkscape:window-x="1912" inkscape:window-y="-8" inkscape:window-maximized="1" inkscape:current-layer="Layer_7"/>
      <style type="text/css" id="style3">
	.st0{fill:#307495;}
	.st1{fill:#61AED3;}
	.st2{fill:#FFFFFF;}
	.st3{fill:#60AED3;}
</style>
      <g id="g5" transform="matrix(1.5735692,0,0,1.5753846,-0.2449024,-0.3312154)">
        <g id="g7">
          <g id="g9">
            <path d="m 44.4,162.5 c -0.6,0 -1.3,0 -1.9,-0.1 -1.5,-0.2 -2.9,-0.5 -4.5,-1 -2.8,-0.9 -5.2,-2.2 -6.9,-3.2 -3.8,-2.2 -7.7,-4.9 -11.8,-8.3 -1.8,-1.5 -3.6,-3.1 -5.3,-4.7 l -1.4,-1.4 c -1,-0.9 -1.9,-1.9 -2.6,-3 -1.3,-2 -2.4,-4.6 -2.5,-8 -0.1,-1.1 -0.2,-2.2 -0.2,-3.4 0,-2.4 0.1,-5 0.5,-7.5 0.7,-5.2 2.4,-9.8 3.7,-13.3 0.1,-0.3 0.2,-0.6 0.3,-0.9 -0.4,-0.9 -0.7,-1.9 -1.1,-2.9 C 8.9,99.6 7.7,93.8 7.1,88 6.5,81.9 6.7,75.7 7.6,69.6 7.8,68.3 8,67 8.3,65.8 5.9,62.3 2.9,57.3 1,51.5 l 0,-0.1 c -0.4,-1.2 -1.4,-4.2 -0.8,-8 0.2,-1.4 0.5,-2.8 1,-4.3 0.9,-2.8 2.2,-5.1 3.2,-6.8 2.2,-3.8 4.9,-7.6 8.2,-11.7 1.5,-1.8 3,-3.6 4.6,-5.2 L 18.6,14 c 0.7,-0.8 1.5,-1.5 2.4,-2.1 2,-1.5 4.8,-2.8 8.6,-2.9 1.2,-0.1 2.5,-0.2 3.8,-0.2 l 0.1,0 c 2.5,0 5.2,0.2 7.8,0.6 4,0.6 7.6,1.7 10.8,2.9 2.1,-0.9 4.3,-1.7 6.6,-2.5 5.4,-1.8 11.2,-3 17,-3.4 6.1,-0.5 12.3,-0.2 18.2,0.8 1.4,0.2 2.8,0.5 4.2,0.8 4.7,-3.2 9,-5.5 13.5,-6.9 l 0.1,0 c 1,-0.4 3.2,-1.1 6.1,-1.1 0.6,0 1.3,0 1.9,0.1 1.5,0.2 2.9,0.5 4.5,1 2.8,0.9 5.2,2.2 6.9,3.2 3.8,2.2 7.7,4.9 11.8,8.3 1.8,1.5 3.6,3.1 5.3,4.7 l 1.4,1.4 c 0.7,0.6 1.4,1.3 1.9,2.1 1.8,2.3 3.2,5.6 3.3,10.2 0.1,1.6 0.1,3.3 0,5 -0.2,3.7 -0.7,7.2 -1.6,10.4 -0.7,2.4 -1.5,4.8 -2.4,7.2 1.8,4.5 3.1,9.1 4,13.8 1.8,9.9 1.6,20.1 -0.6,29.9 1.3,1.9 2.5,3.7 3.5,5.5 1.7,3 3.1,6.1 4.1,9.3 0.4,1.2 1.3,4.2 0.7,8.2 -0.2,1.4 -0.6,2.7 -1.1,4.2 -1.8,5.1 -4.6,9.3 -7.1,12.8 -2.7,3.8 -5.8,7.5 -9,10.9 l -1.2,1.2 c -0.7,0.8 -1.5,1.5 -2.4,2.2 -2,1.5 -4.8,2.7 -8.6,2.9 -1.2,0.1 -2.5,0.2 -3.8,0.2 l -0.1,0 c -2.7,0 -5.4,-0.2 -8.2,-0.7 -4.5,-0.7 -8.5,-2.1 -12.1,-3.5 -1.9,0.8 -3.9,1.5 -5.8,2.1 -5.6,1.7 -11.5,2.8 -17.4,3.1 -6.1,0.4 -12.3,-0.1 -18.3,-1.2 -0.7,-0.1 -1.5,-0.3 -2.2,-0.4 -5.2,3.7 -9.8,6.1 -14.6,7.7 l -0.1,0 c -1,-0.1 -3.2,0.7 -6.1,0.7 l 0,0 z m -19.8,-28.4 10.6,3.7 c 0.9,-2.6 1,-5.4 0.4,-8 0,0.2 0,0.5 0.1,0.7 0,0.3 0.1,0.7 0.1,1.1 -0.1,-2 -0.8,-4.6 -2.6,-7 -0.7,-0.9 -1.5,-1.7 -2.4,-2.4 l 0.5,0.4 0.9,0.9 c -0.8,-0.8 -1.7,-1.6 -2.7,-2.3 l -4.9,12.9 0,0 z m 99.1,-4.7 c -0.8,0.8 -1.6,1.6 -2.3,2.7 l 11.9,4.6 0,-11.1 c 0,0 0,0 0,0 -1.1,0 -2.2,0.1 -3.2,0.4 0.2,0 0.4,0 0.6,0 0.3,0 0.7,-0.1 1.1,-0.1 -1.8,0.1 -4.2,0.7 -6.4,2.1 -1.2,0.8 -2.2,1.7 -3.1,2.9 l 0.4,-0.5 1,-1 0,0 z m -87.9,-2.6 c 0.5,0.4 1,0.8 1.5,1.3 2.6,2.2 5,3.9 7.2,5.2 1.4,-0.7 3,-1.7 4.7,-3 0.5,-0.3 0.9,-0.7 1.4,-1.1 0.3,-0.2 0.5,-0.5 0.8,-0.7 0.1,-0.1 0.3,-0.3 0.4,-0.4 l 6.2,-6.3 8.4,2.9 c 0.3,0.1 0.6,0.2 0.8,0.3 1.8,0.6 3.6,1 5.4,1.4 3.7,0.7 7.6,1 11.4,0.7 3.6,-0.2 7.3,-0.9 10.7,-1.9 1.7,-0.5 3.4,-1.1 5,-1.9 0.8,-0.3 1.6,-0.7 2.3,-1.1 2,-1 4.3,-1.6 6.6,-1.6 3.6,0 6.3,1.3 7.6,2 0.4,0.2 0.8,0.4 1.3,0.5 2.5,1 5.4,2.2 8,2.6 0.4,0.1 0.9,0.1 1.3,0.2 1.5,-1.7 2.9,-3.5 4.2,-5.3 0.8,-1.1 1.6,-2.2 2.3,-3.3 -0.1,-0.2 -0.2,-0.4 -0.4,-0.7 -0.7,-1.2 -1.5,-2.4 -2.5,-3.9 -0.3,-0.5 -0.7,-0.9 -1.1,-1.4 -0.2,-0.2 -0.3,-0.4 -0.5,-0.6 -4.1,-4 -5.5,-9.7 -3.6,-15.1 0.1,-0.3 0.2,-0.6 0.3,-0.8 2.3,-7.2 2.7,-14.9 1.4,-22.3 -0.7,-3.5 -1.7,-7 -3.2,-10.3 -0.1,-0.3 -0.3,-0.6 -0.4,-0.9 -3.3,-6.1 -1.9,-11.3 -0.7,-13.8 0.5,-1 0.9,-2.1 1.3,-3.1 0.8,-1.9 1.4,-3.9 2,-5.7 0.2,-0.9 0.4,-1.8 0.5,-2.9 -0.5,-0.4 -1,-0.8 -1.5,-1.3 -2.7,-2.2 -5,-3.9 -7.2,-5.2 -1.4,0.8 -3,1.8 -4.8,3 -0.5,0.4 -1,0.8 -1.5,1.2 -0.1,0.1 -0.3,0.2 -0.4,0.4 -2.7,2.6 -6.3,4 -10,4 -1.8,0 -3.5,-0.3 -5.2,-1 C 95.4,36.8 95,36.6 94.6,36.5 92.8,36 91,35.5 89.1,35.2 85.4,34.6 81.5,34.4 77.7,34.7 c -3.6,0.3 -7.2,1 -10.6,2.1 -1.7,0.5 -3.3,1.2 -4.9,1.9 -0.8,0.3 -1.5,0.7 -2.3,1.1 L 59.5,40 c -2.1,1.2 -4.6,1.8 -7,1.8 -2.2,0 -4.4,-0.5 -6.5,-1.5 -0.5,-0.2 -0.9,-0.4 -1.4,-0.6 -2.4,-1 -5.3,-2.1 -7.8,-2.4 -0.4,-0.1 -0.8,-0.1 -1.1,-0.2 -0.4,0.5 -0.8,1 -1.2,1.4 -2.2,2.7 -3.9,5 -5.2,7.3 0.7,1.4 1.7,2.9 2.9,4.7 0.3,0.5 0.7,1 1.1,1.4 0.2,0.3 0.5,0.5 0.7,0.8 l 5.8,6.1 -2.5,8 c -0.2,0.5 -0.3,1 -0.5,1.5 -0.5,1.8 -0.9,3.7 -1.2,5.6 -0.6,3.8 -0.7,7.6 -0.3,11.5 0.3,3.6 1.1,7.2 2.3,10.6 0.6,1.7 1.3,3.3 2,4.9 0.1,0.2 0.2,0.4 0.3,0.6 2.1,4.3 2.1,9.1 -0.1,13.4 -0.2,0.4 -0.4,0.8 -0.5,1.2 -0.4,1 -0.9,2 -1.3,3 -0.8,2.2 -1.8,4.8 -2.1,7.1 0,0.1 -0.1,0.4 -0.1,0.6 l 0,0 z m 94.1,-88 c 0.8,0.8 1.7,1.6 2.8,2.4 L 137.6,28.3 127,24.6 c -0.9,2.6 -1,5.4 -0.4,8 0,-0.1 0,-0.2 0,-0.3 0,-0.3 0,-0.8 0,-1.3 l 0,-0.1 c 0,1.5 0.5,4 2.1,6.4 0.8,1.1 1.7,2.1 2.8,3 l -0.5,-0.4 -1.1,-1.1 0,0 z M 29.3,26.3 l 0,11.1 c 1.1,0 2.2,-0.1 3.2,-0.4 -0.2,0 -0.4,0 -0.6,0 -0.3,0 -0.7,0.1 -1.1,0.1 1.8,-0.1 4.2,-0.7 6.4,-2.1 1.2,-0.8 2.2,-1.7 3.1,-2.9 l -0.4,0.5 -0.9,1 c 0.8,-0.8 1.6,-1.7 2.3,-2.7 l -12,-4.6 0,0 z" id="path11" inkscape:connector-curvature="0"/>
          </g>
        </g>
        <g id="g13">
          <g id="g15">
            <g id="g17">
              <path class="st0" d="M 56.3,88.4 57,116.7 50,111 c -7.8,12.7 -10.3,25 -6.6,34.1 l 1.3,3.2 -3.2,-1.4 c -7.3,-3.2 -13.9,-7.7 -19.4,-13.5 l -0.3,-0.3 -0.1,-0.5 c -0.4,-3.5 -0.2,-7.3 0.7,-11.2 l 0,-0.1 c 1.3,-4.9 3.2,-9.8 5.6,-14.7 1.5,-3.1 3.3,-6.2 5.3,-9.2 l -6.1,-5 29.1,-4 z" id="path19" style="color:#000000;display:inline;overflow:visible;visibility:visible;fill:#be7f31;fill-opacity:1;fill-rule:nonzero;stroke-width:1;stroke-linecap:butt;stroke-linejoin:miter;stroke-miterlimit:4;stroke-dasharray:none;stroke-dashoffset:0;stroke-opacity:1;marker:none;enable-background:accumulate" inkscape:connector-curvature="0"/>
            </g>
          </g>
          <g id="g21">
            <g id="g23">
              <path class="st0" d="m 105.9,74.1 -0.7,-28.3 7,5.7 c 7.8,-12.7 10.3,-25 6.6,-34.1 l -1.3,-3.2 3.2,1.4 c 7.3,3.2 13.9,7.7 19.4,13.5 l 0.3,0.3 0.1,0.5 c 0.4,3.5 0.2,7.3 -0.7,11.2 l 0,0.1 c -1.3,4.9 -3.2,9.8 -5.6,14.7 -1.5,3.1 -3.3,6.2 -5.3,9.2 l 6.1,5 -29.1,4 z" id="path25" style="color:#000000;display:inline;overflow:visible;visibility:visible;fill:#be7f31;fill-opacity:1;fill-rule:nonzero;stroke-width:1;stroke-linecap:butt;stroke-linejoin:miter;stroke-miterlimit:4;stroke-dasharray:none;stroke-dashoffset:0;stroke-opacity:1;marker:none;enable-background:accumulate" inkscape:connector-curvature="0"/>
            </g>
          </g>
          <g id="g27">
            <g id="g29">
              <path class="st0" d="m 88.5,105.4 28.3,-0.7 -5.7,7 c 12.7,7.8 25,10.3 34.1,6.6 l 3.2,-1.3 -1.4,3.2 c -3.2,7.3 -7.7,13.9 -13.5,19.4 l -0.3,0.3 -0.5,0.1 c -3.5,0.4 -7.3,0.2 -11.2,-0.7 l -0.1,0 c -4.9,-1.3 -9.8,-3.2 -14.7,-5.6 -3.1,-1.5 -6.2,-3.3 -9.2,-5.3 l -5,6.1 -4,-29.1 z" id="path31" style="color:#000000;display:inline;overflow:visible;visibility:visible;fill:#be7f31;fill-opacity:1;fill-rule:nonzero;stroke-width:1;stroke-linecap:butt;stroke-linejoin:miter;stroke-miterlimit:4;stroke-dasharray:none;stroke-dashoffset:0;stroke-opacity:1;marker:none;enable-background:accumulate" inkscape:connector-curvature="0"/>
            </g>
          </g>
          <g id="g33">
            <g id="g35">
              <path class="st0" d="m 74.1,57.6 -28.3,0.7 5.7,-7 C 38.8,43.5 26.5,41 17.4,44.7 L 14.3,46 15.7,42.8 C 18.9,35.5 23.4,28.9 29.2,23.4 L 29.5,23.1 30,23 c 3.5,-0.4 7.3,-0.2 11.2,0.7 l 0.1,0 c 4.9,1.3 9.8,3.2 14.7,5.6 3.1,1.5 6.2,3.3 9.2,5.3 l 5,-6.1 3.9,29.1 z" id="path37" style="color:#000000;display:inline;overflow:visible;visibility:visible;fill:#be7f31;fill-opacity:1;fill-rule:nonzero;stroke-width:1;stroke-linecap:butt;stroke-linejoin:miter;stroke-miterlimit:4;stroke-dasharray:none;stroke-dashoffset:0;stroke-opacity:1;marker:none;enable-background:accumulate" inkscape:connector-curvature="0"/>
            </g>
          </g>
          <g id="g39">
            <g id="g41">
              <circle class="st1" cx="81.400002" cy="80.800003" r="60.5" id="circle43" style="fill:#faa431;fill-opacity:1"/>
            </g>
          </g>
          <g id="g45">
            <path class="st2" d="M 59.3,59.5 C 55.8,57.9 53.2,56.3 50.6,54.4 46.6,51.6 42.9,48.5 39.8,45.2 32.2,37.5 28.2,29.6 29.3,23.1 L 27,25.6 c -5.5,5.8 -12.8,16 -12.9,20.4 0.1,0.5 0.1,0.5 0.1,0.5 1,3.4 2.6,6.8 4.9,10.1 l 0,0.1 c 3,4.8 8.9,12.7 29.9,21.9 l -3.7,7 28.3,-7.6 -10.1,-26.5 -4.2,8 z" id="path47" inkscape:connector-curvature="0" style="fill:#ffffff"/>
          </g>
          <g id="g49">
            <path class="st2" d="m 103.3,103.5 c 3.5,1.6 6.1,3.2 8.7,5.1 4,2.8 7.7,5.9 10.8,9.2 7.6,7.7 11.6,15.6 10.5,22.1 l 2.3,-2.4 c 5.5,-5.8 12.8,-16 12.9,-20.4 -0.1,-0.5 -0.1,-0.5 -0.1,-0.5 -1,-3.4 -2.6,-6.8 -4.9,-10.1 l 0,-0.1 c -3,-4.8 -8.9,-12.7 -29.9,-21.9 l 3.7,-7 -28.3,7.6 10.2,26.2 4.1,-7.8 z" id="path51" inkscape:connector-curvature="0" style="fill:#ffffff"/>
          </g>
          <g id="g53">
            <path class="st2" d="m 104,59.3 c 1.6,-3.5 3.2,-6.1 5.1,-8.7 2.8,-4 5.9,-7.7 9.2,-10.8 7.7,-7.6 15.6,-11.6 22.1,-10.5 L 138,27 c -5.8,-5.5 -16,-12.8 -20.4,-12.9 -0.5,0.1 -0.5,0.1 -0.5,0.1 -3.4,1 -6.8,2.6 -10.1,4.9 l -0.1,0 C 102.1,22.1 94.2,28 85,49 l -7,-3.7 7.6,28.3 26.4,-10 -8,-4.3 z" id="path55" inkscape:connector-curvature="0" style="fill:#ffffff"/>
          </g>
          <g id="g57">
            <path class="st2" d="m 58.2,103.2 c -1.6,3.5 -3.2,6.1 -5.1,8.7 -2.8,4 -5.9,7.7 -9.2,10.8 -7.7,7.6 -15.6,11.6 -22.1,10.5 l 2.4,2.3 c 5.8,5.5 16,12.8 20.4,12.9 0.5,-0.1 0.5,-0.1 0.5,-0.1 3.4,-1 6.8,-2.6 10.1,-4.9 l 0.1,0 c 4.8,-3 12.7,-8.9 21.9,-29.9 l 7,3.7 -7.6,-28.3 -26.3,10 7.9,4.3 z" id="path59" inkscape:connector-curvature="0" style="fill:#ffffff"/>
          </g>
        </g>
      </g>
    </g>
  </symbol>
  <symbol id="icon-globe" viewBox="0 0 24 24">
    <g>
      <g class="nc-icon-wrapper">
        <path data-cap="butt" data-color="color-2" fill="none" stroke-miterlimit="10" d="M5.704,2.979 c0.694,0.513,1.257,1.164,1.767,2.02C7.917,5.746,8.908,7.826,8,9c-1.027,1.328-4,1.776-4,3c0,0.921,1.304,1.972,2,3 c1.047,1.546,0.571,3.044,0,4c-0.296,0.496-0.769,0.92-1.293,1.234" stroke-linejoin="miter" stroke-linecap="butt" stroke="currentColor"/>
        <path data-cap="butt" data-color="color-2" fill="none" stroke-miterlimit="10" d="M20.668,5.227 C18.509,6.262,15.542,6.961,15,7c-1.045,0.075-1.2-0.784-2-2c-0.6-0.912-2-2.053-2-3c0-0.371,0.036-0.672,0.131-0.966" stroke-linejoin="miter" stroke-linecap="butt" stroke="currentColor"/>
        <path data-cap="butt" data-color="color-2" fill="none" stroke-miterlimit="10" d="M19.014,12.903 C19.056,15.987,15.042,19.833,13,19c-1.79-0.73-0.527-2.138-0.986-6.097c-0.191-1.646,1.567-3,3.5-3S18.992,11.247,19.014,12.903z" stroke-linejoin="miter" stroke-linecap="butt" stroke="currentColor"/>
        <circle fill="none" stroke="currentColor" stroke-linecap="square" stroke-miterlimit="10" cx="12" cy="12" r="11" stroke-linejoin="miter"/>
      </g>
    </g>
  </symbol>
  <symbol id="icon-lock" viewBox="0 0 64 64">
    <g>
      <g class="nc-icon-wrapper">
        <path d="M21,23v-9c0-6.065,4.935-11,11-11s11,4.935,11,11v9h2v-9c0-7.168-5.832-13-13-13 S19,6.832,19,14v9H21z"/>
        <path d="M53,25H11c-1.105,0-2,0.895-2,2v34c0,1.105,0.895,2,2,2h42c1.105,0,2-0.895,2-2V27 C55,25.895,54.105,25,53,25z M33,46.91V53h-2v-6.09c-2.837-0.477-5-2.938-5-5.91c0-3.314,2.686-6,6-6s6,2.686,6,6 C38,43.972,35.837,46.433,33,46.91z"/>
      </g>
    </g>
  </symbol>
  <symbol id="icon-sort-amount-asc" viewBox="0 0 1792 1792">
    <g>
      <g class="nc-icon-wrapper">
        <path d="M736 1440q0 12-10 24l-319 319q-10 9-23 9-12 0-23-9L41 1463q-15-16-7-35 8-20 30-20h192V32q0-14 9-23t23-9h192q14 0 23 9t9 23v1376h192q14 0 23 9t9 23zm1056 128v192q0 14-9 23t-23 9H928q-14 0-23-9t-9-23v-192q0-14 9-23t23-9h832q14 0 23 9t9 23zm-192-512v192q0 14-9 23t-23 9H928q-14 0-23-9t-9-23v-192q0-14 9-23t23-9h640q14 0 23 9t9 23zm-192-512v192q0 14-9 23t-23 9H928q-14 0-23-9t-9-23V544q0-14 9-23t23-9h448q14 0 23 9t9 23zM1216 32v192q0 14-9 23t-23 9H928q-14 0-23-9t-9-23V32q0-14 9-23t23-9h256q14 0 23 9t9 23z"/>
      </g>
    </g>
  </symbol>
  <symbol id="icon-sort-amount-desc" viewBox="0 0 1792 1792">
    <g>
      <g class="nc-icon-wrapper">
        <path d="M1216 1568v192q0 14-9 23t-23 9H928q-14 0-23-9t-9-23v-192q0-14 9-23t23-9h256q14 0 23 9t9 23zm-480-128q0 12-10 24l-319 319q-10 9-23 9-12 0-23-9L41 1463q-15-16-7-35 8-20 30-20h192V32q0-14 9-23t23-9h192q14 0 23 9t9 23v1376h192q14 0 23 9t9 23zm672-384v192q0 14-9 23t-23 9H928q-14 0-23-9t-9-23v-192q0-14 9-23t23-9h448q14 0 23 9t9 23zm192-512v192q0 14-9 23t-23 9H928q-14 0-23-9t-9-23V544q0-14 9-23t23-9h640q14 0 23 9t9 23zm192-512v192q0 14-9 23t-23 9H928q-14 0-23-9t-9-23V32q0-14 9-23t23-9h832q14 0 23 9t9 23z"/>
      </g>
    </g>
  </symbol>
  <symbol id="icon-sort-alpha-desc" viewBox="0 0 1792 1792">
    <g>
      <g class="nc-icon-wrapper">
        <path d="M1255 1432h177l-72-218-12-47q-2-16-2-20h-4l-3 20q0 1-3.5 18t-7.5 29zm-455 8q0 12-10 24l-319 319q-10 9-23 9-12 0-23-9l-320-320q-15-16-7-35 8-20 30-20h192V32q0-14 9-23t23-9h192q14 0 23 9t9 23v1376h192q14 0 23 9t9 23zm925 246v106h-288v-106h75l-47-144h-243l-47 144h75v106H963v-106h70l230-662h162l230 662h70zm-89-1151v233h-584v-90l369-529q12-18 21-27l11-9v-3q-2 0-6.5.5t-7.5.5q-12 3-30 3h-232v115h-120V0h567v89l-369 530q-6 8-21 26l-11 10v3l14-3q9-1 30-1h248V535h121z"/>
      </g>
    </g>
  </symbol>
  <symbol id="icon-sort-alpha-asc" viewBox="0 0 1792 1792">
    <g>
      <g class="nc-icon-wrapper">
        <path d="M1255 408h177l-72-218-12-47q-2-16-2-20h-4l-3 20q0 1-3.5 18t-7.5 29zM800 1440q0 12-10 24l-319 319q-10 9-23 9-12 0-23-9l-320-320q-15-16-7-35 8-20 30-20h192V32q0-14 9-23t23-9h192q14 0 23 9t9 23v1376h192q14 0 23 9t9 23zm836 119v233h-584v-90l369-529q12-18 21-27l11-9v-3q-2 0-6.5.5t-7.5.5q-12 3-30 3h-232v115h-120v-229h567v89l-369 530q-6 8-21 26l-11 11v2l14-2q9-2 30-2h248v-119h121zm89-897v106h-288V662h75l-47-144h-243l-47 144h75v106H963V662h70L1263 0h162l230 662h70z"/>
      </g>
    </g>
  </symbol>
  <symbol id="icon-sort-numeric-asc" viewBox="0 0 1792 1792">
    <g>
      <g class="nc-icon-wrapper">
        <path d="M1474 1313q0-63-44-116t-103-53q-52 0-83 37t-31 94 36.5 95 104.5 38q50 0 85-27t35-68zm-610 127q0 12-10 24l-319 319q-10 9-23 9-12 0-23-9l-320-320q-15-16-7-35 8-20 30-20h192V32q0-14 9-23t23-9h192q14 0 23 9t9 23v1376h192q14 0 23 9t9 23zm750-69q0 62-13 121.5t-41 114-68 95.5-98.5 65.5T1266 1792q-62 0-108-16-24-8-42-15l39-113q15 7 31 11 37 13 75 13 84 0 134.5-58.5T1462 1468h-2q-21 23-61.5 37t-84.5 14q-106 0-173-71.5t-67-172.5q0-105 72-178t181-73q123 0 205 94.5t82 252.5zm-30-717v114h-469V654h167V222q0-7 .5-19t.5-17v-16h-2l-7 12q-8 13-26 31l-62 58-82-86L1296 0h123v654h165z"/>
      </g>
    </g>
  </symbol>
  <symbol id="icon-sort-numeric-desc" viewBox="0 0 1792 1792">
    <g>
      <g class="nc-icon-wrapper">
        <path d="M1474 289q0-63-44-116t-103-53q-52 0-83 37t-31 94 36.5 95 104.5 38q50 0 85-27t35-68zM864 1440q0 12-10 24l-319 319q-10 9-23 9-12 0-23-9l-320-320q-15-16-7-35 8-20 30-20h192V32q0-14 9-23t23-9h192q14 0 23 9t9 23v1376h192q14 0 23 9t9 23zm720 238v114h-469v-114h167v-432q0-7 .5-19t.5-17v-16h-2l-7 12q-8 13-26 31l-62 58-82-86 192-185h123v654h165zm30-1331q0 62-13 121.5t-41 114-68 95.5-98.5 65.5T1266 768q-62 0-108-16-24-8-42-15l39-113q15 7 31 11 37 13 75 13 84 0 134.5-58.5T1462 444h-2q-21 23-61.5 37t-84.5 14q-106 0-173-71.5T1074 251q0-105 72-178t181-73q123 0 205 94.5t82 252.5z"/>
      </g>
    </g>
  </symbol>
  <symbol id="icon-folder-add" viewBox="0 0 64 64">
    <g>
      <g class="nc-icon-wrapper">
        <path d="M62,12H30.5l-5.7-7.6C24.611,4.148,24.315,4,24,4H2C1.448,4,1,4.447,1,5v50c0,2.757,2.243,5,5,5h52 c2.757,0,5-2.243,5-5V13C63,12.447,62.552,12,62,12z M40,37h-7v7c0,0.553-0.448,1-1,1s-1-0.447-1-1v-7h-7c-0.552,0-1-0.447-1-1 s0.448-1,1-1h7v-7c0-0.553,0.448-1,1-1s1,0.447,1,1v7h7c0.552,0,1,0.447,1,1S40.552,37,40,37z"/>
      </g>
    </g>
  </symbol>
  <symbol id="icon-pencil" viewBox="0 0 24 24">
    <g>
      <g class="nc-icon-wrapper">
        <path d="M22.3,3.9l-2.2-2.2c-1.1-1.1-3.1-1.1-4.2,0L2.3,15.3c-0.1,0.1-0.1,0.2-0.2,0.3c0,0,0,0.1,0,0.1 c0,0,0,0.1,0,0.1l-1,6c-0.1,0.3,0.1,0.6,0.3,0.9C1.5,22.9,1.7,23,2,23c0.1,0,0.1,0,0.2,0l6-1c0,0,0.1,0,0.1,0c0,0,0.1,0,0.1,0 c0.1,0,0.2-0.1,0.3-0.2L22.3,8.1C23.5,7,23.5,5,22.3,3.9z M17,10.6L13.4,7l2.3-2.3l3.6,3.6L17,10.6z"/>
      </g>
    </g>
  </symbol>
  <symbol id="icon-compress" viewBox="0 0 64 64">
    <g>
      <g class="nc-icon-wrapper">
        <path d="M32,19c-7.168,0-13,5.832-13,13s5.832,13,13,13s13-5.832,13-13S39.168,19,32,19z"/>
        <path d="M8.586,10l-7.293,7.293c-0.286,0.286-0.372,0.716-0.217,1.09C1.23,18.756,1.596,19,2,19h16 c0.553,0,1-0.448,1-1V2c0-0.404-0.243-0.769-0.617-0.924c-0.373-0.155-0.804-0.07-1.09,0.217L10,8.586L2.707,1.293 c-0.391-0.391-1.023-0.391-1.414,0s-0.391,1.023,0,1.414L8.586,10z"/>
        <path d="M46,19h16c0.404,0,0.77-0.244,0.924-0.617c0.155-0.374,0.069-0.804-0.217-1.09L55.414,10l7.293-7.293 c0.391-0.391,0.391-1.023,0-1.414s-1.023-0.391-1.414,0L54,8.586l-7.293-7.293c-0.286-0.286-0.715-0.371-1.09-0.217 C45.243,1.231,45,1.596,45,2v16C45,18.552,45.447,19,46,19z"/>
        <path d="M18,45H2c-0.404,0-0.77,0.244-0.924,0.617c-0.155,0.374-0.069,0.804,0.217,1.09L8.586,54l-7.293,7.293 c-0.391,0.391-0.391,1.023,0,1.414C1.488,62.902,1.744,63,2,63s0.512-0.098,0.707-0.293L10,55.414l7.293,7.293 C17.484,62.898,17.74,63,18,63c0.129,0,0.259-0.025,0.383-0.076C18.757,62.769,19,62.404,19,62V46C19,45.448,18.553,45,18,45z"/>
        <path d="M55.414,54l7.293-7.293c0.286-0.286,0.372-0.716,0.217-1.09C62.77,45.244,62.404,45,62,45H46 c-0.553,0-1,0.448-1,1v16c0,0.404,0.243,0.769,0.617,0.924C45.741,62.975,45.871,63,46,63c0.26,0,0.516-0.102,0.707-0.293L54,55.414 l7.293,7.293C61.488,62.902,61.744,63,62,63s0.512-0.098,0.707-0.293c0.391-0.391,0.391-1.023,0-1.414L55.414,54z"/>
      </g>
    </g>
  </symbol>
  <symbol id="icon-expand" viewBox="0 0 64 64">
    <g>
      <g class="nc-icon-wrapper">
        <path d="M62,1H46c-0.404,0-0.77,0.244-0.924,0.617c-0.155,0.374-0.069,0.804,0.217,1.09L52.586,10l-7.293,7.293 c-0.391,0.391-0.391,1.023,0,1.414C45.488,18.902,45.744,19,46,19s0.512-0.098,0.707-0.293L54,11.414l7.293,7.293 C61.484,18.898,61.74,19,62,19c0.129,0,0.259-0.025,0.383-0.076C62.757,18.769,63,18.404,63,18V2C63,1.448,62.553,1,62,1z"/>
        <path d="M11.414,10l7.293-7.293c0.286-0.286,0.372-0.716,0.217-1.09C18.77,1.244,18.404,1,18,1H2 C1.447,1,1,1.448,1,2v16c0,0.404,0.243,0.769,0.617,0.924C1.741,18.975,1.871,19,2,19c0.26,0,0.516-0.102,0.707-0.293L10,11.414 l7.293,7.293C17.488,18.902,17.744,19,18,19s0.512-0.098,0.707-0.293c0.391-0.391,0.391-1.023,0-1.414L11.414,10z"/>
        <path d="M62.383,45.076c-0.374-0.154-0.804-0.07-1.09,0.217L54,52.586l-7.293-7.293 c-0.391-0.391-1.023-0.391-1.414,0s-0.391,1.023,0,1.414L52.586,54l-7.293,7.293c-0.286,0.286-0.372,0.716-0.217,1.09 C45.23,62.756,45.596,63,46,63h16c0.553,0,1-0.448,1-1V46C63,45.596,62.757,45.231,62.383,45.076z"/>
        <path d="M18.707,45.293c-0.391-0.391-1.023-0.391-1.414,0L10,52.586l-7.293-7.293 c-0.286-0.287-0.715-0.37-1.09-0.217C1.243,45.231,1,45.596,1,46v16c0,0.552,0.447,1,1,1h16c0.404,0,0.77-0.244,0.924-0.617 c0.155-0.374,0.069-0.804-0.217-1.09L11.414,54l7.293-7.293C19.098,46.316,19.098,45.684,18.707,45.293z"/>
        <path d="M32,19c-7.168,0-13,5.832-13,13s5.832,13,13,13s13-5.832,13-13S39.168,19,32,19z"/>
      </g>
    </g>
  </symbol>
  <symbol id="icon-bookmark" viewBox="0 0 64 64">
    <g>
      <g class="nc-icon-wrapper">
        <path d="M50,1H14c-2.209,0-4,1.791-4,4v55c0,0.356,0.189,0.686,0.498,0.865c0.308,0.179,0.688,0.181,0.998,0.003&#xA;&#x9;L32,49.152l20.504,11.716C52.657,60.956,52.829,61,53,61c0.174,0,0.347-0.045,0.502-0.135C53.811,60.686,54,60.356,54,60V5&#xA;&#x9;C54,2.791,52.209,1,50,1z"/>
      </g>
    </g>
  </symbol>
  <symbol id="icon-circle-question" viewBox="0 0 64 64">
    <g>
      <g class="nc-icon-wrapper">
        <path d="M32,1C14.907,1,1,14.907,1,32s13.907,31,31,31s31-13.907,31-31S49.093,1,32,1z M30,51c-1.657,0-3-1.343-3-3&#xA;&#x9;s1.343-3,3-3s3,1.343,3,3S31.657,51,30,51z M40.101,27.907c-0.638,0.83-2.013,2.168-4.126,4.013&#xA;&#x9;c-1.694,1.443-2.814,2.642-3.359,3.598c-0.887,1.556-0.818,3.357-0.818,4.534h-3.245c0-1.734-0.096-3.979,0.906-6.081&#xA;&#x9;c0.604-1.266,1.727-2.604,3.371-4.013c3.878-3.279,5.208-4.722,5.208-7.875c0-3.718-2.627-5.359-6.39-5.359&#xA;&#x9;c-3.085,0-5.445,0.771-8.202,2.164l-1.484-3.396C25.132,13.83,28.444,13,31.899,13c3.203,0,5.694,0.789,7.472,2.365&#xA;&#x9;c1.777,1.577,2.667,3.799,2.667,6.667C42.038,24.251,41.51,26.071,40.101,27.907z"/>
      </g>
    </g>
  </symbol>
  <symbol id="icon-circle-exclamation" viewBox="0 0 64 64">
    <g>
      <g class="nc-icon-wrapper">
        <path d="M32,1C14.907,1,1,14.907,1,32s13.907,31,31,31s31-13.907,31-31S49.093,1,32,1z M34.621,13l-1.31,26.862&#xA;&#x9;H30.69L29.379,13H34.621z M32,51c-1.657,0-3-1.343-3-3s1.343-3,3-3s3,1.343,3,3S33.657,51,32,51z"/>
      </g>
    </g>
  </symbol>
  <symbol id="icon-circle-info" viewBox="0 0 64 64">
    <g>
      <g class="nc-icon-wrapper">
        <path d="M32,1C14.907,1,1,14.907,1,32s13.907,31,31,31s31-13.907,31-31S49.093,1,32,1z M36.576,49.367 C34.889,50.046,32.434,51,30.613,51c-1.32,0-2.309-0.343-2.969-1.028c-1.008-1.046-1.119-2.304-0.891-3.727 c0.347-2.184,2.671-10.488,3.318-13.944c0.177-0.942,0.403-2.851-0.271-3.529c-0.856-0.857-3.515-0.294-4.68,0.012l0.371-1.583 c1.541-0.691,4.197-1.707,5.886-1.707c1.351,0,2.333,0.322,2.943,0.966c1.021,1.078,0.987,2.476,0.816,3.814 c-0.128,0.992-0.035,0.486-2.926,12.061c-0.403,1.589-1.146,4.39,0.015,5.35c1.144,0.947,4.045,0.35,4.721,0.099L36.576,49.367z M35,19c-1.657,0-3-1.343-3-3s1.343-3,3-3s3,1.343,3,3S36.657,19,35,19z"/>
      </g>
    </g>
  </symbol>
  <symbol id="icon-cross" viewBox="0 0 64 64">
    <g>
      <g class="nc-icon-wrapper">
        <path d="M56.7,15.3l-8-8c-0.4-0.4-1-0.4-1.4,0L32,22.6L16.7,7.3c-0.4-0.4-1-0.4-1.4,0l-8,8c-0.4,0.4-0.4,1,0,1.4 L22.6,32L7.3,47.3c-0.4,0.4-0.4,1,0,1.4l8,8c0.4,0.4,1,0.4,1.4,0L32,41.4l15.3,15.3c0.2,0.2,0.5,0.3,0.7,0.3s0.5-0.1,0.7-0.3l8-8 c0.4-0.4,0.4-1,0-1.4L41.4,32l15.3-15.3C57.1,16.3,57.1,15.7,56.7,15.3z"/>
      </g>
    </g>
  </symbol>
  <symbol id="icon-tachometer" viewBox="0 0 24 24">
    <g>
      <g class="nc-icon-wrapper">
        <path d="M21,15v-2h2.949c-0.213-2.558-1.226-4.888-2.795-6.741l-2.084,2.084l-1.414-1.414l2.084-2.084 C17.888,3.277,15.558,2.263,13,2.051V5h-2V2.051C5.181,2.534,0.534,7.181,0.051,13H3v2H0.044c0.204,2.427,1.144,4.752,2.7,6.637 C2.934,21.867,3.216,22,3.515,22h16.971c0.298,0,0.581-0.133,0.771-0.363c1.556-1.884,2.496-4.21,2.7-6.637H21z M12,17 c-1.654,0-3-1.346-3-3c0-0.462,0.113-0.894,0.301-1.285L5.293,8.707l1.414-1.414l4.008,4.008C11.106,11.113,11.538,11,12,11 c1.654,0,3,1.346,3,3S13.654,17,12,17z"/>
      </g>
    </g>
  </symbol>
  <symbol id="icon-cloud-download" viewBox="0 0 16 16">
    <g>
      <g class="nc-icon-wrapper">
        <path d="M13,7.1c0,0,0-0.1,0-0.1c0-2.8-2.2-5-5-5C5.5,2,3.4,3.8,3.1,6.3C1.3,6.9,0,8.5,0,10.5C0,13,2,15,4.5,15 c1.7,0,5.9,0,7.5,0c2.2,0,4-1.8,4-4C16,9.1,14.7,7.6,13,7.1z M8,13L4,9h3V6h2v3h3L8,13z"/>
      </g>
    </g>
  </symbol>
  <symbol id="icon-toggle-off" viewBox="0 0 2048 1792">
    <g>
      <g class="nc-icon-wrapper">
        <path d="M1152 896q0-104-40.5-198.5T1002 534 838.5 424.5 640 384t-198.5 40.5T278 534 168.5 697.5 128 896t40.5 198.5T278 1258t163.5 109.5T640 1408t198.5-40.5T1002 1258t109.5-163.5T1152 896zm768 0q0-104-40.5-198.5T1770 534t-163.5-109.5T1408 384h-386q119 90 188.5 224t69.5 288-69.5 288-188.5 224h386q104 0 198.5-40.5T1770 1258t109.5-163.5T1920 896zm128 0q0 130-51 248.5t-136.5 204-204 136.5-248.5 51H640q-130 0-248.5-51t-204-136.5-136.5-204T0 896t51-248.5 136.5-204 204-136.5T640 256h768q130 0 248.5 51t204 136.5 136.5 204 51 248.5z"/>
      </g>
    </g>
  </symbol>
  <symbol id="icon-toggle-on" viewBox="0 0 2048 1792">
    <g>
      <g class="nc-icon-wrapper">
        <path d="M0 896q0-130 51-248.5t136.5-204 204-136.5T640 256h768q130 0 248.5 51t204 136.5 136.5 204 51 248.5-51 248.5-136.5 204-204 136.5-248.5 51H640q-130 0-248.5-51t-204-136.5-136.5-204T0 896zm1408 512q104 0 198.5-40.5T1770 1258t109.5-163.5T1920 896t-40.5-198.5T1770 534t-163.5-109.5T1408 384t-198.5 40.5T1046 534 936.5 697.5 896 896t40.5 198.5T1046 1258t163.5 109.5T1408 1408z"/>
      </g>
    </g>
  </symbol>
  <symbol id="icon-connect" viewBox="0 0 32 32">
    <g>
      <g class="nc-icon-wrapper">
        <path d="M11.609,16.912l2.104-3.367C14.419,13.837,15.191,14,16,14c3.309,0,6-2.691,6-6s-2.691-6-6-6s-6,2.691-6,6 c0,1.782,0.785,3.38,2.022,4.479l-2.108,3.372L11.609,16.912z"/>
        <path d="M6,18c-3.309,0-6,2.691-6,6s2.691,6,6,6c2.967,0,5.431-2.167,5.91-5H17v-2h-5.09 C11.431,20.167,8.967,18,6,18z"/>
        <path d="M26,18c-0.809,0-1.581,0.163-2.286,0.455l-2.289-3.662l-1.695,1.061l2.292,3.667 C20.785,20.62,20,22.218,20,24c0,3.309,2.691,6,6,6s6-2.691,6-6S29.309,18,26,18z"/>
      </g>
    </g>
  </symbol>
  <symbol id="icon-flash" viewBox="0 0 32 32">
    <g>
      <g class="nc-icon-wrapper">
        <path d="M26,10h-7.656l2.614-8.713c0.091-0.303,0.033-0.63-0.156-0.884C20.614,0.149,20.316,0,20,0H10 C9.547,0,9.15,0.305,9.034,0.742l-4,15c-0.08,0.3-0.016,0.621,0.173,0.867C5.396,16.855,5.689,17,6,17h6.858l-1.849,13.868 c-0.061,0.457,0.198,0.896,0.628,1.064C11.755,31.978,11.878,32,12,32c0.319,0,0.628-0.153,0.82-0.427l14-20 c0.214-0.305,0.24-0.704,0.068-1.035C26.715,10.208,26.373,10,26,10z"/>
      </g>
    </g>
  </symbol>
  <symbol id="icon-wand" viewBox="0 0 32 32">
    <g>
      <g class="nc-icon-wrapper">
        <path d="M23.707,11.293l-3-3c-0.391-0.391-1.023-0.391-1.414,0L16,11.586L20.414,16l3.293-3.293 C24.098,12.316,24.098,11.684,23.707,11.293z"/>
        <path d="M14.586,13L1.293,26.293c-0.391,0.391-0.391,1.023,0,1.414l3,3C4.488,30.902,4.744,31,5,31 s0.512-0.098,0.707-0.293L19,17.414L14.586,13z"/>
        <path d="M25.293,6.707c-0.391-0.391-0.391-1.023,0-1.414l2-2c0.391-0.391,1.023-0.391,1.414,0 s0.391,1.023,0,1.414l-2,2C26.316,7.098,25.684,7.098,25.293,6.707z"/>
        <path d="M31,12h-3c-0.552,0-1-0.448-1-1s0.448-1,1-1h3c0.552,0,1,0.448,1,1S31.552,12,31,12z"/>
        <path d="M27.293,18.707l-2-2c-0.391-0.391-0.391-1.023,0-1.414s1.023-0.391,1.414,0l2,2 c0.391,0.391,0.391,1.023,0,1.414C28.316,19.098,27.684,19.098,27.293,18.707z"/>
        <path d="M21,5c-0.552,0-1-0.448-1-1V1c0-0.552,0.448-1,1-1s1,0.448,1,1v3C22,4.552,21.552,5,21,5z"/>
        <path d="M15.293,6.707l-2-2c-0.391-0.391-0.391-1.023,0-1.414s1.023-0.391,1.414,0l2,2 c0.391,0.391,0.391,1.023,0,1.414C16.316,7.098,15.684,7.098,15.293,6.707z"/>
      </g>
    </g>
  </symbol>
  <symbol id="icon-swap-horizontal" viewBox="0 0 32 32">
    <g>
      <g class="nc-icon-wrapper">
        <polygon data-color="color-2" points="23,9 9,9 9,3 0,10 9,17 9,11 23,11 "/>
        <polygon fill="currentColor" points="9,23 23,23 23,29 32,22 23,15 23,21 9,21 "/>
      </g>
    </g>
  </symbol>
  <symbol id="icon-like" viewBox="0 0 16 16">
    <g>
      <g class="nc-icon-wrapper">
        <path d="M14,6H8V2c0-1.2-0.8-2-2-2L3,7H1C0.4,7,0,7.4,0,8v7c0,0.6,0.4,1,1,1h11c1.4,0,2.7-1,2.9-2.4l1-5.2&#xA;&#x9;C16.2,7.2,15.3,6,14,6z"/>
      </g>
    </g>
  </symbol>
  <symbol id="icon-like-no" viewBox="0 0 16 16">
    <g>
      <g class="nc-icon-wrapper">
        <path d="M14,10H8v4c0,1.2-0.8,2-2,2L3,9H1C0.4,9,0,8.6,0,8V1c0-0.6,0.4-1,1-1h11c1.4,0,2.7,1,2.9,2.4l1,5.2 C16.2,8.8,15.3,10,14,10z"/>
      </g>
    </g>
  </symbol>
  <symbol id="icon-bomb" viewBox="0 0 16 16">
    <g>
      <g class="nc-icon-wrapper">
        <path d="M14.1,3.3L16,1.4L14.6,0l-1.9,1.9l-0.7-0.7l-1.6,1.6c-2.7-1.4-6-1-8.3,1.2c-2.7,2.7-2.7,7.2,0,9.9 c2.7,2.7,7.2,2.7,9.9,0c2.2-2.2,2.6-5.6,1.2-8.3l1.6-1.6L14.1,3.3z"/>
      </g>
    </g>
  </symbol>
  <symbol id="icon-map" viewBox="0 0 16 16">
    <g>
      <g class="nc-icon-wrapper">
        <path d="M14.6,0.1L10,1.9L6.4,0.1C6.2,0,5.9,0,5.6,0.1l-5,2C0.2,2.2,0,2.6,0,3v12c0,0.7,0.7,1.2,1.4,0.9L6,14.1 l3.6,1.8c0.3,0.1,0.5,0.1,0.8,0l5-1.9c0.4-0.1,0.6-0.5,0.6-0.9V1C16,0.3,15.3-0.2,14.6,0.1z M7,2.6l2,1v9.8l-2-1V2.6z M2,3.7l3-1.2 v9.8l-3,1.2V3.7z M14,12.4l-3,1.1V3.7l3-1.2V12.4z"/>
      </g>
    </g>
  </symbol>
  <symbol id="icon-shield" viewBox="0 0 16 16">
    <g>
      <g class="nc-icon-wrapper">
        <path d="M15,3c-1.75,0-4.545-1.408-6.4-2.8c-0.355-0.268-0.845-0.268-1.2,0C5.545,1.592,2.75,3,1,3 C0.448,3,0,3.447,0,4c0,5.584,2.701,9.817,7.606,11.919C7.732,15.973,7.866,16,8,16s0.268-0.027,0.394-0.081 C13.299,13.817,16,9.584,16,4C16,3.447,15.552,3,15,3z M8,13.904V8H2.616C2.298,7.048,2.095,6.019,2.027,4.907 C3.955,4.582,6.236,3.445,8,2.23V8h5.384C12.506,10.634,10.694,12.643,8,13.904z"/>
      </g>
    </g>
  </symbol>
  <symbol id="icon-flask" viewBox="0 0 16 16">
    <g>
      <g class="nc-icon-wrapper">
        <path d="M2,0v3h2v2h3v2H4v2h3v2H4v1c0,2.2,1.8,4,4,4s4-1.8,4-4V3h2V0H2z"/>
      </g>
    </g>
  </symbol>
  <symbol id="icon-flag" viewBox="0 0 16 16">
    <g>
      <g class="nc-icon-wrapper">
        <path d="M15,1H3c0-0.6-0.4-1-1-1S1,0.4,1,1v14c0,0.6,0.4,1,1,1s1-0.4,1-1v-5h12V1z"/>
      </g>
    </g>
  </symbol>
  <symbol id="icon-hotel" viewBox="0 0 16 16">
    <g>
      <g class="nc-icon-wrapper">
        <path d="M13,8V1c0-0.6-0.4-1-1-1H4C3.4,0,3,0.4,3,1v7H0v8h16V8H13z M10,13H6v-2h4V13z M10,9H6V7h4V9z M10,5H6V3h4V5z "/>
      </g>
    </g>
  </symbol>
  <symbol id="icon-home" viewBox="0 0 16 16">
    <g>
      <g class="nc-icon-wrapper">
        <path d="M11,16h2c0.6,0,1-0.4,1-1V8h1v0c0.3,0,0.6-0.1,0.8-0.3c0.4-0.4,0.3-1-0.1-1.4l-7-6c-0.4-0.3-0.9-0.3-1.3,0 l-7,6c-0.4,0.4-0.5,1-0.1,1.4C0.4,7.9,0.7,8,1,8c0.2,0,1,0,1,0v7c0,0.6,0.4,1,1,1h2c0.6,0,1-0.4,1-1v-3h4v3C10,15.6,10.4,16,11,16z"/>
      </g>
    </g>
  </symbol>
  <symbol id="icon-key" viewBox="0 0 32 32">
    <g>
      <g class="nc-icon-wrapper">
        <path d="M31,0h-6c-0.265,0-0.518,0.104-0.705,0.291L11.58,12.947c-3.126-0.628-6.403,0.341-8.669,2.605 c-3.732,3.732-3.732,9.804,0,13.536c1.866,1.866,4.317,2.799,6.768,2.799c2.451,0,4.902-0.933,6.769-2.799 c2.267-2.266,3.238-5.543,2.604-8.673l2.662-2.715C21.897,17.513,22,17.262,22,17v-3h3c0.553,0,1-0.448,1-1v-3h3 c0.266,0,0.52-0.105,0.707-0.293l2-2C31.895,7.52,32,7.265,32,7V1C32,0.448,31.553,0,31,0z M11.121,25.121 c-1.172,1.172-3.071,1.172-4.243,0c-1.172-1.172-1.172-3.071,0-4.243s3.071-1.172,4.243,0S12.293,23.95,11.121,25.121z"/>
      </g>
    </g>
  </symbol>
  <symbol id="icon-unlock" viewBox="0 0 64 64">
    <g>
      <g class="nc-icon-wrapper">
        <path d="M21,23v-9c0-6.065,4.935-11,11-11s11,4.935,11,11h2c0-7.168-5.832-13-13-13S19,6.832,19,14v9 H21z"/>
        <path d="M53,25H11c-1.105,0-2,0.895-2,2v34c0,1.105,0.895,2,2,2h42c1.105,0,2-0.895,2-2V27 C55,25.895,54.105,25,53,25z M33,46.91V53h-2v-6.09c-2.837-0.477-5-2.938-5-5.91c0-3.314,2.686-6,6-6s6,2.686,6,6 C38,43.972,35.837,46.433,33,46.91z"/>
      </g>
    </g>
  </symbol>
  <symbol id="icon-file-add" viewBox="0 0 24 24">
    <g>
      <g class="nc-icon-wrapper">
        <path d="M23,22H1a1,1,0,0,1-1-1V14H2v6H22V14h2v7A1,1,0,0,1,23,22Z"/>
        <path d="M12,2a7,7,0,1,0,7,7A7,7,0,0,0,12,2Zm4,8H13v3H11V10H8V8h3V5h2V8h3Z"/>
      </g>
    </g>
  </symbol>
  <symbol id="icon-file-delete" viewBox="0 0 24 24">
    <g>
      <g class="nc-icon-wrapper">
        <path d="M23,22H1a1,1,0,0,1-1-1V14H2v6H22V14h2v7A1,1,0,0,1,23,22Z"/>
        <path d="M12,2a7,7,0,1,0,7,7A7,7,0,0,0,12,2Zm4,8H8V8h8Z"/>
      </g>
    </g>
  </symbol>
  <symbol id="icon-button-pause" viewBox="0 0 16 16">
    <g>
      <g class="nc-icon-wrapper">
        <path d="M5,1H2C1.4,1,1,1.4,1,2v12c0,0.6,0.4,1,1,1h3c0.6,0,1-0.4,1-1V2C6,1.4,5.6,1,5,1z"/>
        <path d="M14,1h-3c-0.6,0-1,0.4-1,1v12c0,0.6,0.4,1,1,1h3c0.6,0,1-0.4,1-1V2C15,1.4,14.6,1,14,1z"/>
      </g>
    </g>
  </symbol>
  <symbol id="icon-button-stop" viewBox="0 0 16 16">
    <g>
      <g class="nc-icon-wrapper">
        <path d="M14,1H2C1.4,1,1,1.4,1,2v12c0,0.6,0.4,1,1,1h12c0.6,0,1-0.4,1-1V2C15,1.4,14.6,1,14,1z"/>
      </g>
    </g>
  </symbol>
  <symbol id="icon-copy" viewBox="0 0 32 32">
    <g>
      <g class="nc-icon-wrapper">
        <path d="M12,12c0-1.1,0.9-2,2-2h12V1c0-0.6-0.4-1-1-1H1C0.4,0,0,0.4,0,1v26c0,0.6,0.4,1,1,1h11V12z"/>
        <path d="M31,12H15c-0.6,0-1,0.4-1,1v18c0,0.6,0.4,1,1,1h16c0.6,0,1-0.4,1-1V13C32,12.4,31.6,12,31,12 z"/>
      </g>
    </g>
  </symbol>
  <symbol id="icon-ban-bold" viewBox="0 0 32 32">
    <g>
      <g class="nc-icon-wrapper">
        <path d="M16,0C7.2,0,0,7.2,0,16s7.2,16,16,16s16-7.2,16-16S24.8,0,16,0z M16,26c-1.6,0-3.2-0.4-4.6-1.1l13.5-13.5 c0.7,1.4,1.1,3,1.1,4.6C26,21.5,21.5,26,16,26z M16,6c1.6,0,3.2,0.4,4.6,1.1L7.1,20.6C6.4,19.2,6,17.6,6,16C6,10.5,10.5,6,16,6z"/>
      </g>
    </g>
  </symbol>
</svg>