<svg xmlns="http://www.w3.org/2000/svg" style="display: none;"><symbol id="icon-shader" viewBox="0 0 32 32"><g class="nc-icon-wrapper"><path d="M30,5a3,3,0,0,1-3-3,1,1,0,0,0-2,0,3,3,0,0,1-3,3,1,1,0,0,0,0,2,3,3,0,0,1,3,3,1,1,0,0,0,2,0,3,3,0,0,1,3-3,1,1,0,0,0,0-2Z"/><path d="M10,25a3,3,0,0,1-3-3,1,1,0,0,0-2,0,3,3,0,0,1-3,3,1,1,0,0,0,0,2,3,3,0,0,1,3,3,1,1,0,0,0,2,0,3,3,0,0,1,3-3,1,1,0,0,0,0-2Z"/><path d="M23,31a1,1,0,0,1-1-1,6.006,6.006,0,0,0-6-6,1,1,0,0,1,0-2,6.006,6.006,0,0,0,6-6,1,1,0,0,1,2,0,6.006,6.006,0,0,0,6,6,1,1,0,0,1,0,2,6.006,6.006,0,0,0-6,6A1,1,0,0,1,23,31Z"/><path d="M9,17a1,1,0,0,1-1-1,6.006,6.006,0,0,0-6-6A1,1,0,0,1,2,8,6.006,6.006,0,0,0,8,2a1,1,0,0,1,2,0,6.006,6.006,0,0,0,6,6,1,1,0,0,1,0,2,6.006,6.006,0,0,0-6,6A1,1,0,0,1,9,17Z"/></g></symbol><symbol id="icon-mesh" viewBox="0 0 32 32"><g class="nc-icon-wrapper"><path d="M31.447,25.105l-4.506-2.253l-0.994,1.739l4.605,2.302C30.696,26.966,30.848,27,30.999,27 c0.367,0,0.72-0.202,0.896-0.553C32.141,25.953,31.941,25.353,31.447,25.105z"/> <path d="M4.553,23.106l-4,2c-0.494,0.247-0.694,0.848-0.447,1.342C0.282,26.798,0.634,27,1.001,27 c0.15,0,0.303-0.034,0.446-0.105l4-2L4.553,23.106z"/> <path d="M17,6V1c0-0.553-0.447-1-1-1s-1,0.447-1,1v5H17z"/> <path d="M27.414,9.09l-11-5c-0.264-0.119-0.564-0.119-0.828,0l-11,5C4.229,9.252,4,9.607,4,10v14 c0,0.393,0.229,0.748,0.586,0.91l11,5C15.718,29.97,15.858,30,16,30s0.282-0.03,0.414-0.09l11-5C27.771,24.748,28,24.393,28,24V10 C28,9.607,27.771,9.252,27.414,9.09z M16,6.099L24.584,10L16,13.901L7.416,10L16,6.099z M6,11.553l9,4.091v11.803l-9-4.09V11.553z M17,27.447V15.644l9-4.091v11.804L17,27.447z"/></g></symbol><symbol id="icon-texture" viewBox="0 0 32 32"><g class="nc-icon-wrapper"><path d="M22.828,13h-7.046C15.916,13.972,16,14.971,16,16c0,1.031-0.084,2.029-0.216,3h7.045 C22.934,17.998,23,16.99,23,16C23,15.012,22.933,14.003,22.828,13z"/> <path d="M14,16c0-1.027-0.087-2.03-0.235-3H0v6h13.767C13.913,18.031,14,17.029,14,16z"/> <path d="M15.425,11h7.141c-0.634-3.999-1.786-7.589-2.273-9h-8.655 C12.937,4.072,14.573,7.22,15.425,11z"/> <path d="M15.433,21c-0.847,3.794-2.481,6.934-3.782,9h8.644c0.487-1.408,1.641-4.991,2.274-9H15.433 z"/> <path d="M32,19v-6h-7.159C24.939,13.999,25,15.006,25,16c0,0.996-0.06,2.002-0.157,3H32z"/> <path d="M13.362,21H0v8c0,0.552,0.447,1,1,1h8.245C10.433,28.279,12.366,25.031,13.362,21z"/> <path d="M22.409,30H31c0.553,0,1-0.448,1-1v-8h-7.405C24.03,24.782,23.011,28.192,22.409,30z"/> <path d="M9.239,2H1C0.447,2,0,2.448,0,3v8h13.356C12.357,6.983,10.426,3.727,9.239,2z"/> <path d="M24.592,11H32V3c0-0.552-0.447-1-1-1h-8.593C23.007,3.811,24.026,7.227,24.592,11z"/></g></symbol><symbol id="icon-music" viewBox="0 0 32 32"><g class="nc-icon-wrapper"><path d="M30,1H10C9.448,1,9,1.448,9,2v19.261C8.048,20.474,6.828,20,5.5,20C2.467,20,0,22.467,0,25.5 S2.467,31,5.5,31s5.5-2.467,5.5-5.5V10h18v8.261C28.048,17.474,26.828,17,25.5,17c-3.033,0-5.5,2.467-5.5,5.5s2.467,5.5,5.5,5.5 s5.5-2.467,5.5-5.5V2C31,1.448,30.552,1,30,1z"/></g></symbol><symbol id="icon-script" viewBox="0 0 32 32"><g class="nc-icon-wrapper"><path d="M9,8H0v21c0,0.552,0.448,1,1,1h8V8z"/> <path d="M11,8v22h20c0.552,0,1-0.448,1-1V8H11z M15,12h4v2h-4V12z M19,26h-4v-2h4V26z M24,22h-7v-2h7V22z M28,18h-9 v-2h9V18z"/> <path d="M32,6V3c0-0.552-0.448-1-1-1H1C0.448,2,0,2.448,0,3v3H32z"/></g></symbol><symbol id="icon-executable" viewBox="0 0 32 32"><g class="nc-icon-wrapper"><path d="M3,29v2c0,0.6,0.4,1,1,1h24c0.6,0,1-0.4,1-1v-2H3z"/> <polygon points="22,1.6 22,7 27.4,7 "/> <path d="M31,13h-2V9h-8c-0.6,0-1-0.4-1-1V0H4C3.4,0,3,0.4,3,1v12H1c-0.6,0-1,0.4-1,1v12c0,0.6,0.4,1,1,1h30 c0.6,0,1-0.4,1-1V14C32,13.4,31.6,13,31,13z M12.7,18.5h-1.8v0.9h1.7v1.2h-1.7v1.1h1.8V23H9.3v-5.7h3.4V18.5z M17.1,23L16,21.2 L14.9,23h-1.7l1.9-2.9l-1.8-2.8h1.7l1,1.8l1-1.8h1.8l-1.8,2.9l1.9,2.8H17.1z M22.9,18.5h-1.8v0.9h1.7v1.2h-1.7v1.1h1.8V23h-3.4v-5.7 h3.4V18.5z"/></g></symbol><symbol id="icon-config" viewBox="0 0 32 32"><g class="nc-icon-wrapper"><path d="M30.359,6,25.55,10.81,21.191,6.451,26,1.643A8.173,8.173,0,0,0,15.275,12.3L1.381,24.21a1.09,1.09,0,0,0-.062,1.6l4.874,4.874a1.09,1.09,0,0,0,1.6-.061L19.7,16.726A8.173,8.173,0,0,0,30.359,6Z"/></g></symbol><symbol id="icon-map" viewBox="0 0 32 32"><g class="nc-icon-wrapper"><path d="M16,0C7.178,0,0,7.178,0,16s7.178,16,16,16s16-7.178,16-16S24.822,0,16,0z M16,30 c-3.692,0-7.045-1.447-9.549-3.791c0.033-0.051,0.074-0.1,0.104-0.151c1.326-2.223,1.315-4.541-0.031-6.528 c-0.347-0.512-0.776-1.007-1.19-1.485C4.726,17.342,3.969,16.468,3.969,16c0-0.292,1.45-1.001,1.996-1.268 c1.161-0.567,2.476-1.211,3.25-2.211c1.624-2.1,0.31-5.799-0.353-6.909C8.603,5.18,8.307,4.822,8.009,4.521 c2.027-1.416,4.444-2.299,7.055-2.473c0.235,0.181,0.482,0.362,0.74,0.541c0.552,0.387,1.124,0.787,1.361,1.148 c0.309,0.47,0.509,0.958,0.703,1.429c0.442,1.079,0.944,2.301,2.668,2.741C20.785,7.97,21.041,8,21.303,8 c1.383,0,2.951-0.819,4.717-1.757C28.478,8.766,30,12.207,30,16C30,23.72,23.72,30,16,30z"/> <path d="M20.792,12.141c-1.915,0-3.785,0.822-4.881,2.145c-0.771,0.93-1.081,2.042-0.874,3.133 c0.476,2.508,0.386,4.042,0.321,5.163c-0.084,1.448-0.15,2.592,1.403,3.763c0.472,0.355,1.032,0.536,1.664,0.536 c1.38,0,3.085-0.926,4.677-2.539c1.697-1.72,3.497-4.494,3.462-7.123C26.527,14.419,23.937,12.141,20.792,12.141z"/></g></symbol><symbol id="icon-animation" viewBox="0 0 32 32"><g class="nc-icon-wrapper"><path d="M8.837,13.775l3.059-1.02.494-2.273L7.684,12.052a1,1,0,0,0-.654.706l-1.243,4.97,1.568.392Z"/>
  <path d="M16.81,18.4l-.505,2.323L19,23.414,19.354,30H21V23a1,1,0,0,0-.293-.707Z"/>
  <path d="M24.837,14.348l-3.617.566-4.9-3.688.488-2.245c.064,0,.125.019.19.019a4.03,4.03,0,1,0-2.108-.613l-4.87,22.4,1.954.426,3.877-17.835L20.4,16.8a1,1,0,0,0,.6.2.978.978,0,0,0,.243-.03l4-1Z"/></g></symbol><symbol id="icon-plugin" viewBox="0 0 32 32"><g class="nc-icon-wrapper"><path d="M16,0A16,16,0,1,0,32,16,16.047,16.047,0,0,0,16,0Zm8,17H17v7H15V17H8V15h7V8h2v7h7Z"/></g></symbol><symbol id="icon-interface" viewBox="0 0 32 32"><g class="nc-icon-wrapper"><path d="M0,8v21c0,0.553,0.448,1,1,1h30c0.552,0,1-0.447,1-1V8H0z M17,16h11v2H17V16z M17,20h6v2h-6V20z M14,15v8 c0,0.553-0.448,1-1,1H5c-0.552,0-1-0.447-1-1v-8c0-0.553,0.448-1,1-1h8C13.552,14,14,14.447,14,15z"/> <path d="M32,6V3c0-0.552-0.447-1-1-1H7v4H32z"/> <path d="M5,2H1C0.447,2,0,2.448,0,3v3h5V2z"/></g></symbol><symbol id="icon-extender" viewBox="0 0 32 32"><g class="nc-icon-wrapper"><path d="M16,32A10.011,10.011,0,0,1,6,22V7.5a7.5,7.5,0,0,1,15,0V22a5,5,0,0,1-10,0V7h3V22a2,2,0,0,0,4,0V7.5a4.5,4.5,0,0,0-9,0V22a7,7,0,0,0,14,0V8h3V22A10.011,10.011,0,0,1,16,32Z"/></g></symbol><symbol id="icon-archive" viewBox="0 0 32 32"><g class="nc-icon-wrapper"><path d="M31,2H1C0.448,2,0,2.448,0,3v6c0,0.552,0.448,1,1,1h30c0.552,0,1-0.448,1-1V3 C32,2.448,31.552,2,31,2z"/> <path d="M3,12v18c0,0.552,0.448,1,1,1h24c0.552,0,1-0.448,1-1V12H3z M20,22h-8v-5h8V22z"/></g></symbol></svg>