<?xml version="1.0" encoding="UTF-8" standalone="no"?>
<!-- Generator: Adobe Illustrator 19.2.0, SVG Export Plug-In . SVG Version: 6.00 Build 0)  -->

<svg
   xmlns:dc="http://purl.org/dc/elements/1.1/"
   xmlns:cc="http://creativecommons.org/ns#"
   xmlns:rdf="http://www.w3.org/1999/02/22-rdf-syntax-ns#"
   xmlns:svg="http://www.w3.org/2000/svg"
   xmlns="http://www.w3.org/2000/svg"
   xmlns:sodipodi="http://sodipodi.sourceforge.net/DTD/sodipodi-0.dtd"
   xmlns:inkscape="http://www.inkscape.org/namespaces/inkscape"
   version="1.1"
   id="Layer_7"
   x="0px"
   y="0px"
   viewBox="0 0 256 256"
   xml:space="preserve"
   inkscape:version="0.91 r13725"
   width="100%"
   height="100%"
   sodipodi:docname="logo.svg"><metadata
     id="metadata85"><rdf:RDF><cc:Work
         rdf:about=""><dc:format>image/svg+xml</dc:format><dc:type
           rdf:resource="http://purl.org/dc/dcmitype/StillImage" /></cc:Work></rdf:RDF></metadata><defs
     id="defs83" /><sodipodi:namedview
     pagecolor="#ffffff"
     bordercolor="#666666"
     borderopacity="1"
     objecttolerance="10"
     gridtolerance="10"
     guidetolerance="10"
     inkscape:pageopacity="0"
     inkscape:pageshadow="2"
     inkscape:window-width="1920"
     inkscape:window-height="1027"
     id="namedview81"
     showgrid="false"
     inkscape:zoom="0.99097812"
     inkscape:cx="-168.02874"
     inkscape:cy="-110.09247"
     inkscape:window-x="1912"
     inkscape:window-y="-8"
     inkscape:window-maximized="1"
     inkscape:current-layer="Layer_7" /><style
     type="text/css"
     id="style3">
	.st0{fill:#307495;}
	.st1{fill:#61AED3;}
	.st2{fill:#FFFFFF;}
	.st3{fill:#60AED3;}
</style><g
     id="g5"
     transform="matrix(1.5735692,0,0,1.5753846,-0.2449024,-0.3312154)"><g
       id="g7"><g
         id="g9"><path
           d="m 44.4,162.5 c -0.6,0 -1.3,0 -1.9,-0.1 -1.5,-0.2 -2.9,-0.5 -4.5,-1 -2.8,-0.9 -5.2,-2.2 -6.9,-3.2 -3.8,-2.2 -7.7,-4.9 -11.8,-8.3 -1.8,-1.5 -3.6,-3.1 -5.3,-4.7 l -1.4,-1.4 c -1,-0.9 -1.9,-1.9 -2.6,-3 -1.3,-2 -2.4,-4.6 -2.5,-8 -0.1,-1.1 -0.2,-2.2 -0.2,-3.4 0,-2.4 0.1,-5 0.5,-7.5 0.7,-5.2 2.4,-9.8 3.7,-13.3 0.1,-0.3 0.2,-0.6 0.3,-0.9 -0.4,-0.9 -0.7,-1.9 -1.1,-2.9 C 8.9,99.6 7.7,93.8 7.1,88 6.5,81.9 6.7,75.7 7.6,69.6 7.8,68.3 8,67 8.3,65.8 5.9,62.3 2.9,57.3 1,51.5 l 0,-0.1 c -0.4,-1.2 -1.4,-4.2 -0.8,-8 0.2,-1.4 0.5,-2.8 1,-4.3 0.9,-2.8 2.2,-5.1 3.2,-6.8 2.2,-3.8 4.9,-7.6 8.2,-11.7 1.5,-1.8 3,-3.6 4.6,-5.2 L 18.6,14 c 0.7,-0.8 1.5,-1.5 2.4,-2.1 2,-1.5 4.8,-2.8 8.6,-2.9 1.2,-0.1 2.5,-0.2 3.8,-0.2 l 0.1,0 c 2.5,0 5.2,0.2 7.8,0.6 4,0.6 7.6,1.7 10.8,2.9 2.1,-0.9 4.3,-1.7 6.6,-2.5 5.4,-1.8 11.2,-3 17,-3.4 6.1,-0.5 12.3,-0.2 18.2,0.8 1.4,0.2 2.8,0.5 4.2,0.8 4.7,-3.2 9,-5.5 13.5,-6.9 l 0.1,0 c 1,-0.4 3.2,-1.1 6.1,-1.1 0.6,0 1.3,0 1.9,0.1 1.5,0.2 2.9,0.5 4.5,1 2.8,0.9 5.2,2.2 6.9,3.2 3.8,2.2 7.7,4.9 11.8,8.3 1.8,1.5 3.6,3.1 5.3,4.7 l 1.4,1.4 c 0.7,0.6 1.4,1.3 1.9,2.1 1.8,2.3 3.2,5.6 3.3,10.2 0.1,1.6 0.1,3.3 0,5 -0.2,3.7 -0.7,7.2 -1.6,10.4 -0.7,2.4 -1.5,4.8 -2.4,7.2 1.8,4.5 3.1,9.1 4,13.8 1.8,9.9 1.6,20.1 -0.6,29.9 1.3,1.9 2.5,3.7 3.5,5.5 1.7,3 3.1,6.1 4.1,9.3 0.4,1.2 1.3,4.2 0.7,8.2 -0.2,1.4 -0.6,2.7 -1.1,4.2 -1.8,5.1 -4.6,9.3 -7.1,12.8 -2.7,3.8 -5.8,7.5 -9,10.9 l -1.2,1.2 c -0.7,0.8 -1.5,1.5 -2.4,2.2 -2,1.5 -4.8,2.7 -8.6,2.9 -1.2,0.1 -2.5,0.2 -3.8,0.2 l -0.1,0 c -2.7,0 -5.4,-0.2 -8.2,-0.7 -4.5,-0.7 -8.5,-2.1 -12.1,-3.5 -1.9,0.8 -3.9,1.5 -5.8,2.1 -5.6,1.7 -11.5,2.8 -17.4,3.1 -6.1,0.4 -12.3,-0.1 -18.3,-1.2 -0.7,-0.1 -1.5,-0.3 -2.2,-0.4 -5.2,3.7 -9.8,6.1 -14.6,7.7 l -0.1,0 c -1,-0.1 -3.2,0.7 -6.1,0.7 l 0,0 z m -19.8,-28.4 10.6,3.7 c 0.9,-2.6 1,-5.4 0.4,-8 0,0.2 0,0.5 0.1,0.7 0,0.3 0.1,0.7 0.1,1.1 -0.1,-2 -0.8,-4.6 -2.6,-7 -0.7,-0.9 -1.5,-1.7 -2.4,-2.4 l 0.5,0.4 0.9,0.9 c -0.8,-0.8 -1.7,-1.6 -2.7,-2.3 l -4.9,12.9 0,0 z m 99.1,-4.7 c -0.8,0.8 -1.6,1.6 -2.3,2.7 l 11.9,4.6 0,-11.1 c 0,0 0,0 0,0 -1.1,0 -2.2,0.1 -3.2,0.4 0.2,0 0.4,0 0.6,0 0.3,0 0.7,-0.1 1.1,-0.1 -1.8,0.1 -4.2,0.7 -6.4,2.1 -1.2,0.8 -2.2,1.7 -3.1,2.9 l 0.4,-0.5 1,-1 0,0 z m -87.9,-2.6 c 0.5,0.4 1,0.8 1.5,1.3 2.6,2.2 5,3.9 7.2,5.2 1.4,-0.7 3,-1.7 4.7,-3 0.5,-0.3 0.9,-0.7 1.4,-1.1 0.3,-0.2 0.5,-0.5 0.8,-0.7 0.1,-0.1 0.3,-0.3 0.4,-0.4 l 6.2,-6.3 8.4,2.9 c 0.3,0.1 0.6,0.2 0.8,0.3 1.8,0.6 3.6,1 5.4,1.4 3.7,0.7 7.6,1 11.4,0.7 3.6,-0.2 7.3,-0.9 10.7,-1.9 1.7,-0.5 3.4,-1.1 5,-1.9 0.8,-0.3 1.6,-0.7 2.3,-1.1 2,-1 4.3,-1.6 6.6,-1.6 3.6,0 6.3,1.3 7.6,2 0.4,0.2 0.8,0.4 1.3,0.5 2.5,1 5.4,2.2 8,2.6 0.4,0.1 0.9,0.1 1.3,0.2 1.5,-1.7 2.9,-3.5 4.2,-5.3 0.8,-1.1 1.6,-2.2 2.3,-3.3 -0.1,-0.2 -0.2,-0.4 -0.4,-0.7 -0.7,-1.2 -1.5,-2.4 -2.5,-3.9 -0.3,-0.5 -0.7,-0.9 -1.1,-1.4 -0.2,-0.2 -0.3,-0.4 -0.5,-0.6 -4.1,-4 -5.5,-9.7 -3.6,-15.1 0.1,-0.3 0.2,-0.6 0.3,-0.8 2.3,-7.2 2.7,-14.9 1.4,-22.3 -0.7,-3.5 -1.7,-7 -3.2,-10.3 -0.1,-0.3 -0.3,-0.6 -0.4,-0.9 -3.3,-6.1 -1.9,-11.3 -0.7,-13.8 0.5,-1 0.9,-2.1 1.3,-3.1 0.8,-1.9 1.4,-3.9 2,-5.7 0.2,-0.9 0.4,-1.8 0.5,-2.9 -0.5,-0.4 -1,-0.8 -1.5,-1.3 -2.7,-2.2 -5,-3.9 -7.2,-5.2 -1.4,0.8 -3,1.8 -4.8,3 -0.5,0.4 -1,0.8 -1.5,1.2 -0.1,0.1 -0.3,0.2 -0.4,0.4 -2.7,2.6 -6.3,4 -10,4 -1.8,0 -3.5,-0.3 -5.2,-1 C 95.4,36.8 95,36.6 94.6,36.5 92.8,36 91,35.5 89.1,35.2 85.4,34.6 81.5,34.4 77.7,34.7 c -3.6,0.3 -7.2,1 -10.6,2.1 -1.7,0.5 -3.3,1.2 -4.9,1.9 -0.8,0.3 -1.5,0.7 -2.3,1.1 L 59.5,40 c -2.1,1.2 -4.6,1.8 -7,1.8 -2.2,0 -4.4,-0.5 -6.5,-1.5 -0.5,-0.2 -0.9,-0.4 -1.4,-0.6 -2.4,-1 -5.3,-2.1 -7.8,-2.4 -0.4,-0.1 -0.8,-0.1 -1.1,-0.2 -0.4,0.5 -0.8,1 -1.2,1.4 -2.2,2.7 -3.9,5 -5.2,7.3 0.7,1.4 1.7,2.9 2.9,4.7 0.3,0.5 0.7,1 1.1,1.4 0.2,0.3 0.5,0.5 0.7,0.8 l 5.8,6.1 -2.5,8 c -0.2,0.5 -0.3,1 -0.5,1.5 -0.5,1.8 -0.9,3.7 -1.2,5.6 -0.6,3.8 -0.7,7.6 -0.3,11.5 0.3,3.6 1.1,7.2 2.3,10.6 0.6,1.7 1.3,3.3 2,4.9 0.1,0.2 0.2,0.4 0.3,0.6 2.1,4.3 2.1,9.1 -0.1,13.4 -0.2,0.4 -0.4,0.8 -0.5,1.2 -0.4,1 -0.9,2 -1.3,3 -0.8,2.2 -1.8,4.8 -2.1,7.1 0,0.1 -0.1,0.4 -0.1,0.6 l 0,0 z m 94.1,-88 c 0.8,0.8 1.7,1.6 2.8,2.4 L 137.6,28.3 127,24.6 c -0.9,2.6 -1,5.4 -0.4,8 0,-0.1 0,-0.2 0,-0.3 0,-0.3 0,-0.8 0,-1.3 l 0,-0.1 c 0,1.5 0.5,4 2.1,6.4 0.8,1.1 1.7,2.1 2.8,3 l -0.5,-0.4 -1.1,-1.1 0,0 z M 29.3,26.3 l 0,11.1 c 1.1,0 2.2,-0.1 3.2,-0.4 -0.2,0 -0.4,0 -0.6,0 -0.3,0 -0.7,0.1 -1.1,0.1 1.8,-0.1 4.2,-0.7 6.4,-2.1 1.2,-0.8 2.2,-1.7 3.1,-2.9 l -0.4,0.5 -0.9,1 c 0.8,-0.8 1.6,-1.7 2.3,-2.7 l -12,-4.6 0,0 z"
           id="path11"
           inkscape:connector-curvature="0" /></g></g><g
       id="g13"><g
         id="g15"><g
           id="g17"><path
             class="st0"
             d="M 56.3,88.4 57,116.7 50,111 c -7.8,12.7 -10.3,25 -6.6,34.1 l 1.3,3.2 -3.2,-1.4 c -7.3,-3.2 -13.9,-7.7 -19.4,-13.5 l -0.3,-0.3 -0.1,-0.5 c -0.4,-3.5 -0.2,-7.3 0.7,-11.2 l 0,-0.1 c 1.3,-4.9 3.2,-9.8 5.6,-14.7 1.5,-3.1 3.3,-6.2 5.3,-9.2 l -6.1,-5 29.1,-4 z"
             id="path19"
             style="color:#000000;display:inline;overflow:visible;visibility:visible;fill:#be7f31;fill-opacity:1;fill-rule:nonzero;stroke-width:1;stroke-linecap:butt;stroke-linejoin:miter;stroke-miterlimit:4;stroke-dasharray:none;stroke-dashoffset:0;stroke-opacity:1;marker:none;enable-background:accumulate"
             inkscape:connector-curvature="0" /></g></g><g
         id="g21"><g
           id="g23"><path
             class="st0"
             d="m 105.9,74.1 -0.7,-28.3 7,5.7 c 7.8,-12.7 10.3,-25 6.6,-34.1 l -1.3,-3.2 3.2,1.4 c 7.3,3.2 13.9,7.7 19.4,13.5 l 0.3,0.3 0.1,0.5 c 0.4,3.5 0.2,7.3 -0.7,11.2 l 0,0.1 c -1.3,4.9 -3.2,9.8 -5.6,14.7 -1.5,3.1 -3.3,6.2 -5.3,9.2 l 6.1,5 -29.1,4 z"
             id="path25"
             style="color:#000000;display:inline;overflow:visible;visibility:visible;fill:#be7f31;fill-opacity:1;fill-rule:nonzero;stroke-width:1;stroke-linecap:butt;stroke-linejoin:miter;stroke-miterlimit:4;stroke-dasharray:none;stroke-dashoffset:0;stroke-opacity:1;marker:none;enable-background:accumulate"
             inkscape:connector-curvature="0" /></g></g><g
         id="g27"><g
           id="g29"><path
             class="st0"
             d="m 88.5,105.4 28.3,-0.7 -5.7,7 c 12.7,7.8 25,10.3 34.1,6.6 l 3.2,-1.3 -1.4,3.2 c -3.2,7.3 -7.7,13.9 -13.5,19.4 l -0.3,0.3 -0.5,0.1 c -3.5,0.4 -7.3,0.2 -11.2,-0.7 l -0.1,0 c -4.9,-1.3 -9.8,-3.2 -14.7,-5.6 -3.1,-1.5 -6.2,-3.3 -9.2,-5.3 l -5,6.1 -4,-29.1 z"
             id="path31"
             style="color:#000000;display:inline;overflow:visible;visibility:visible;fill:#be7f31;fill-opacity:1;fill-rule:nonzero;stroke-width:1;stroke-linecap:butt;stroke-linejoin:miter;stroke-miterlimit:4;stroke-dasharray:none;stroke-dashoffset:0;stroke-opacity:1;marker:none;enable-background:accumulate"
             inkscape:connector-curvature="0" /></g></g><g
         id="g33"><g
           id="g35"><path
             class="st0"
             d="m 74.1,57.6 -28.3,0.7 5.7,-7 C 38.8,43.5 26.5,41 17.4,44.7 L 14.3,46 15.7,42.8 C 18.9,35.5 23.4,28.9 29.2,23.4 L 29.5,23.1 30,23 c 3.5,-0.4 7.3,-0.2 11.2,0.7 l 0.1,0 c 4.9,1.3 9.8,3.2 14.7,5.6 3.1,1.5 6.2,3.3 9.2,5.3 l 5,-6.1 3.9,29.1 z"
             id="path37"
             style="color:#000000;display:inline;overflow:visible;visibility:visible;fill:#be7f31;fill-opacity:1;fill-rule:nonzero;stroke-width:1;stroke-linecap:butt;stroke-linejoin:miter;stroke-miterlimit:4;stroke-dasharray:none;stroke-dashoffset:0;stroke-opacity:1;marker:none;enable-background:accumulate"
             inkscape:connector-curvature="0" /></g></g><g
         id="g39"><g
           id="g41"><circle
             class="st1"
             cx="81.400002"
             cy="80.800003"
             r="60.5"
             id="circle43"
             style="fill:#faa431;fill-opacity:1" /></g></g><g
         id="g45"><path
           class="st2"
           d="M 59.3,59.5 C 55.8,57.9 53.2,56.3 50.6,54.4 46.6,51.6 42.9,48.5 39.8,45.2 32.2,37.5 28.2,29.6 29.3,23.1 L 27,25.6 c -5.5,5.8 -12.8,16 -12.9,20.4 0.1,0.5 0.1,0.5 0.1,0.5 1,3.4 2.6,6.8 4.9,10.1 l 0,0.1 c 3,4.8 8.9,12.7 29.9,21.9 l -3.7,7 28.3,-7.6 -10.1,-26.5 -4.2,8 z"
           id="path47"
           inkscape:connector-curvature="0"
           style="fill:#ffffff" /></g><g
         id="g49"><path
           class="st2"
           d="m 103.3,103.5 c 3.5,1.6 6.1,3.2 8.7,5.1 4,2.8 7.7,5.9 10.8,9.2 7.6,7.7 11.6,15.6 10.5,22.1 l 2.3,-2.4 c 5.5,-5.8 12.8,-16 12.9,-20.4 -0.1,-0.5 -0.1,-0.5 -0.1,-0.5 -1,-3.4 -2.6,-6.8 -4.9,-10.1 l 0,-0.1 c -3,-4.8 -8.9,-12.7 -29.9,-21.9 l 3.7,-7 -28.3,7.6 10.2,26.2 4.1,-7.8 z"
           id="path51"
           inkscape:connector-curvature="0"
           style="fill:#ffffff" /></g><g
         id="g53"><path
           class="st2"
           d="m 104,59.3 c 1.6,-3.5 3.2,-6.1 5.1,-8.7 2.8,-4 5.9,-7.7 9.2,-10.8 7.7,-7.6 15.6,-11.6 22.1,-10.5 L 138,27 c -5.8,-5.5 -16,-12.8 -20.4,-12.9 -0.5,0.1 -0.5,0.1 -0.5,0.1 -3.4,1 -6.8,2.6 -10.1,4.9 l -0.1,0 C 102.1,22.1 94.2,28 85,49 l -7,-3.7 7.6,28.3 26.4,-10 -8,-4.3 z"
           id="path55"
           inkscape:connector-curvature="0"
           style="fill:#ffffff" /></g><g
         id="g57"><path
           class="st2"
           d="m 58.2,103.2 c -1.6,3.5 -3.2,6.1 -5.1,8.7 -2.8,4 -5.9,7.7 -9.2,10.8 -7.7,7.6 -15.6,11.6 -22.1,10.5 l 2.4,2.3 c 5.8,5.5 16,12.8 20.4,12.9 0.5,-0.1 0.5,-0.1 0.5,-0.1 3.4,-1 6.8,-2.6 10.1,-4.9 l 0.1,0 c 4.8,-3 12.7,-8.9 21.9,-29.9 l 7,3.7 -7.6,-28.3 -26.3,10 7.9,4.3 z"
           id="path59"
           inkscape:connector-curvature="0"
           style="fill:#ffffff" /></g></g></g></svg>