<svg width="21" height="20" viewBox="0 0 21 20" fill="none" xmlns="http://www.w3.org/2000/svg">
<path d="M10.2699 11.957L4.60326 11.2904C4.33937 11.2626 4.16576 11.1202 4.08242 10.8633C3.99909 10.6063 4.05464 10.3876 4.24909 10.207L13.4158 1.79036C13.4713 1.7487 13.5303 1.71398 13.5928 1.6862C13.6553 1.65842 13.7491 1.64453 13.8741 1.64453C14.0824 1.64453 14.2421 1.73134 14.3533 1.90495C14.4644 2.07856 14.4644 2.25564 14.3533 2.4362L11.2283 8.04036L16.8949 8.70703C17.1588 8.73481 17.3324 8.87717 17.4158 9.13411C17.4991 9.39106 17.4435 9.60981 17.2491 9.79037L8.08242 18.207C8.02687 18.2487 7.96784 18.2834 7.90534 18.3112C7.84284 18.339 7.74909 18.3529 7.62409 18.3529C7.41576 18.3529 7.25603 18.2661 7.14492 18.0924C7.03381 17.9188 7.03381 17.7418 7.14492 17.5612L10.2699 11.957Z" fill="#F4F4F5"/>
</svg>
